%
M48
M72
T01C0.0197
T02C0.0236
T03C0.0315
T04C0.0320
T05C0.0360
T06C0.0394
T07C0.0400
T08C0.0440
T09C0.0470
T10C0.1102
T11C0.1300
%
T01
X12302Y4151
X11864Y8964
X11427Y12901
X10614Y12557
X10427Y10995
X7427Y7776
X8614Y10151
X5552Y7276
X11614Y8526
X10302Y8401
X5552Y2223
X7636Y14495
X11677Y6026
X11677Y3589
X12029Y5111
X12552Y5182
X11114Y3392
X10427Y7401
X9727Y4314
X9989Y12557
X8552Y10776
X9927Y9151
T02
X2855Y6151
X10355Y9526
X9355Y10026
X9230Y6526
X8230Y5901
T03
X1039Y19862
X1039Y19362
X1039Y18862
X1039Y18362
X1039Y17862
X1039Y17362
X1039Y16862
X1039Y16362
X1039Y15862
X1539Y19862
X1539Y19362
X1539Y18862
X1539Y18362
X1539Y17862
X1539Y17362
X1539Y16862
X1539Y16362
X1539Y15862
X5164Y19862
X5164Y19362
X5164Y18862
X5164Y18362
X5164Y17862
X5164Y17362
X5164Y16862
X5164Y16362
X4664Y19862
X4664Y19362
X4664Y18862
X4664Y18362
X4664Y17862
X4664Y17362
X4664Y16862
X4664Y16362
X2039Y19862
X4164Y19862
X2039Y17362
X2539Y17362
X4164Y17362
X3664Y17362
X2039Y16862
X2539Y16862
X3664Y16862
X4164Y16862
X2539Y16362
X2039Y16362
X4164Y16362
X3664Y16362
X2039Y15862
X2539Y15862
X3664Y15862
X4164Y15862
X4664Y15862
X5164Y15862
X3101Y16862
X3101Y16362
X3101Y15862
X1039Y15362
X1039Y14862
X1539Y15362
X1539Y14862
X5164Y15362
X4664Y15362
X2539Y15362
X2039Y15362
X4164Y15362
X3664Y15362
X2039Y14862
X2539Y14862
X3664Y14862
X4164Y14862
X4664Y14862
X5164Y14862
X3101Y15362
X3101Y14862
X1039Y14362
X1539Y14362
X2039Y14362
X2539Y14362
X3664Y14362
X4164Y14362
X4664Y14362
X5164Y14362
X3101Y14362
T04
X12715Y10526
T05
X11239Y2666
X11239Y1666
X10239Y2666
X10239Y1666
X9239Y2666
X9239Y1666
X8239Y2666
X8239Y1666
X7239Y2666
X7239Y1666
X7052Y8776
X7052Y9776
X7052Y10776
X10227Y5620
X9227Y5620
T06
X14299Y11273
X14299Y10273
X14299Y9273
X14299Y8273
X14952Y12676
X12971Y15343
X12971Y16130
X12971Y16918
X12971Y17705
X12971Y18493
X12971Y19280
X13758Y19280
X13758Y18493
X13758Y17705
X13758Y15343
X14546Y15343
X14546Y17705
X14546Y18493
X14546Y19280
X15333Y19280
X15333Y18493
X15333Y17705
X15333Y16918
X15333Y16130
X15333Y15343
T07
X13062Y4674
X13062Y5674
X14062Y4674
X14062Y5674
X15062Y4674
X15062Y5674
X9302Y11776
X9302Y13776
T08
X2105Y12776
X3105Y12776
X4105Y12776
T09
X4312Y8815
X4312Y10784
T10
X3641Y2312
X14487Y2311
T11
X3105Y18676
M30
