G75*
G70*
%OFA0B0*%
%FSLAX24Y24*%
%IPPOS*%
%LPD*%
%AMOC8*
5,1,8,0,0,1.08239X$1,22.5*
%
%ADD10C,0.0000*%
%ADD11C,0.0030*%
%ADD12C,0.0120*%
%ADD13C,0.0060*%
%ADD14R,0.0390X0.0180*%
%ADD15R,0.0180X0.0390*%
%ADD16R,0.0669X0.0295*%
%ADD17C,0.0040*%
%ADD18R,0.0690X0.0290*%
%ADD19C,0.0080*%
%ADD20R,0.0295X0.0669*%
%ADD21R,0.0200X0.0200*%
%ADD22C,0.0100*%
%ADD23C,0.0050*%
%ADD24R,0.1260X0.0730*%
%ADD25R,0.0340X0.0730*%
%ADD26R,0.0240X0.0240*%
%ADD27R,0.0900X0.0250*%
%ADD28C,0.0180*%
%ADD29C,0.0090*%
%ADD30C,0.0020*%
%ADD31R,0.0300X0.0250*%
%ADD32R,0.0500X0.1100*%
D10*
X000605Y000776D02*
X000605Y020264D01*
X005648Y020264D01*
X005648Y014949D01*
X012341Y014949D01*
X012341Y020264D01*
X015884Y020264D01*
X015884Y000776D01*
X000605Y000776D01*
X003090Y002312D02*
X003092Y002359D01*
X003098Y002405D01*
X003108Y002451D01*
X003121Y002496D01*
X003139Y002539D01*
X003160Y002581D01*
X003184Y002621D01*
X003212Y002658D01*
X003243Y002693D01*
X003277Y002726D01*
X003313Y002755D01*
X003352Y002781D01*
X003393Y002804D01*
X003436Y002823D01*
X003480Y002839D01*
X003525Y002851D01*
X003571Y002859D01*
X003618Y002863D01*
X003664Y002863D01*
X003711Y002859D01*
X003757Y002851D01*
X003802Y002839D01*
X003846Y002823D01*
X003889Y002804D01*
X003930Y002781D01*
X003969Y002755D01*
X004005Y002726D01*
X004039Y002693D01*
X004070Y002658D01*
X004098Y002621D01*
X004122Y002581D01*
X004143Y002539D01*
X004161Y002496D01*
X004174Y002451D01*
X004184Y002405D01*
X004190Y002359D01*
X004192Y002312D01*
X004190Y002265D01*
X004184Y002219D01*
X004174Y002173D01*
X004161Y002128D01*
X004143Y002085D01*
X004122Y002043D01*
X004098Y002003D01*
X004070Y001966D01*
X004039Y001931D01*
X004005Y001898D01*
X003969Y001869D01*
X003930Y001843D01*
X003889Y001820D01*
X003846Y001801D01*
X003802Y001785D01*
X003757Y001773D01*
X003711Y001765D01*
X003664Y001761D01*
X003618Y001761D01*
X003571Y001765D01*
X003525Y001773D01*
X003480Y001785D01*
X003436Y001801D01*
X003393Y001820D01*
X003352Y001843D01*
X003313Y001869D01*
X003277Y001898D01*
X003243Y001931D01*
X003212Y001966D01*
X003184Y002003D01*
X003160Y002043D01*
X003139Y002085D01*
X003121Y002128D01*
X003108Y002173D01*
X003098Y002219D01*
X003092Y002265D01*
X003090Y002312D01*
X013936Y002311D02*
X013938Y002358D01*
X013944Y002404D01*
X013954Y002450D01*
X013967Y002495D01*
X013985Y002538D01*
X014006Y002580D01*
X014030Y002620D01*
X014058Y002657D01*
X014089Y002692D01*
X014123Y002725D01*
X014159Y002754D01*
X014198Y002780D01*
X014239Y002803D01*
X014282Y002822D01*
X014326Y002838D01*
X014371Y002850D01*
X014417Y002858D01*
X014464Y002862D01*
X014510Y002862D01*
X014557Y002858D01*
X014603Y002850D01*
X014648Y002838D01*
X014692Y002822D01*
X014735Y002803D01*
X014776Y002780D01*
X014815Y002754D01*
X014851Y002725D01*
X014885Y002692D01*
X014916Y002657D01*
X014944Y002620D01*
X014968Y002580D01*
X014989Y002538D01*
X015007Y002495D01*
X015020Y002450D01*
X015030Y002404D01*
X015036Y002358D01*
X015038Y002311D01*
X015036Y002264D01*
X015030Y002218D01*
X015020Y002172D01*
X015007Y002127D01*
X014989Y002084D01*
X014968Y002042D01*
X014944Y002002D01*
X014916Y001965D01*
X014885Y001930D01*
X014851Y001897D01*
X014815Y001868D01*
X014776Y001842D01*
X014735Y001819D01*
X014692Y001800D01*
X014648Y001784D01*
X014603Y001772D01*
X014557Y001764D01*
X014510Y001760D01*
X014464Y001760D01*
X014417Y001764D01*
X014371Y001772D01*
X014326Y001784D01*
X014282Y001800D01*
X014239Y001819D01*
X014198Y001842D01*
X014159Y001868D01*
X014123Y001897D01*
X014089Y001930D01*
X014058Y001965D01*
X014030Y002002D01*
X014006Y002042D01*
X013985Y002084D01*
X013967Y002127D01*
X013954Y002172D01*
X013944Y002218D01*
X013938Y002264D01*
X013936Y002311D01*
X002455Y018676D02*
X002457Y018726D01*
X002463Y018776D01*
X002473Y018826D01*
X002486Y018874D01*
X002503Y018922D01*
X002524Y018968D01*
X002548Y019012D01*
X002576Y019054D01*
X002607Y019094D01*
X002641Y019131D01*
X002678Y019166D01*
X002717Y019197D01*
X002758Y019226D01*
X002802Y019251D01*
X002848Y019273D01*
X002895Y019291D01*
X002943Y019305D01*
X002992Y019316D01*
X003042Y019323D01*
X003092Y019326D01*
X003143Y019325D01*
X003193Y019320D01*
X003243Y019311D01*
X003291Y019299D01*
X003339Y019282D01*
X003385Y019262D01*
X003430Y019239D01*
X003473Y019212D01*
X003513Y019182D01*
X003551Y019149D01*
X003586Y019113D01*
X003619Y019074D01*
X003648Y019033D01*
X003674Y018990D01*
X003697Y018945D01*
X003716Y018898D01*
X003731Y018850D01*
X003743Y018801D01*
X003751Y018751D01*
X003755Y018701D01*
X003755Y018651D01*
X003751Y018601D01*
X003743Y018551D01*
X003731Y018502D01*
X003716Y018454D01*
X003697Y018407D01*
X003674Y018362D01*
X003648Y018319D01*
X003619Y018278D01*
X003586Y018239D01*
X003551Y018203D01*
X003513Y018170D01*
X003473Y018140D01*
X003430Y018113D01*
X003385Y018090D01*
X003339Y018070D01*
X003291Y018053D01*
X003243Y018041D01*
X003193Y018032D01*
X003143Y018027D01*
X003092Y018026D01*
X003042Y018029D01*
X002992Y018036D01*
X002943Y018047D01*
X002895Y018061D01*
X002848Y018079D01*
X002802Y018101D01*
X002758Y018126D01*
X002717Y018155D01*
X002678Y018186D01*
X002641Y018221D01*
X002607Y018258D01*
X002576Y018298D01*
X002548Y018340D01*
X002524Y018384D01*
X002503Y018430D01*
X002486Y018478D01*
X002473Y018526D01*
X002463Y018576D01*
X002457Y018626D01*
X002455Y018676D01*
D11*
X006791Y012462D02*
X007038Y012462D01*
X007162Y012339D01*
X007038Y012215D01*
X006791Y012215D01*
X006853Y012094D02*
X006791Y012032D01*
X006791Y011909D01*
X006853Y011847D01*
X006791Y011602D02*
X007162Y011602D01*
X007162Y011479D02*
X007162Y011725D01*
X007162Y011847D02*
X006915Y012094D01*
X006853Y012094D01*
X007162Y012094D02*
X007162Y011847D01*
X006915Y011479D02*
X006791Y011602D01*
X006791Y008094D02*
X007038Y008094D01*
X007162Y007970D01*
X007038Y007847D01*
X006791Y007847D01*
X006791Y007725D02*
X006791Y007479D01*
X006976Y007479D01*
X006915Y007602D01*
X006915Y007664D01*
X006976Y007725D01*
X007100Y007725D01*
X007162Y007664D01*
X007162Y007540D01*
X007100Y007479D01*
X008898Y004901D02*
X008837Y004840D01*
X008837Y004778D01*
X008898Y004716D01*
X009022Y004716D01*
X009083Y004654D01*
X009083Y004593D01*
X009022Y004531D01*
X008898Y004531D01*
X008837Y004593D01*
X008898Y004901D02*
X009022Y004901D01*
X009083Y004840D01*
X009205Y004778D02*
X009205Y004716D01*
X009267Y004716D01*
X009267Y004778D01*
X009205Y004778D01*
X009205Y004593D02*
X009205Y004531D01*
X009267Y004531D01*
X009267Y004593D01*
X009205Y004593D01*
X009389Y004654D02*
X009574Y004654D01*
X009636Y004716D01*
X009636Y004840D01*
X009574Y004901D01*
X009389Y004901D01*
X009389Y004531D01*
X009757Y004531D02*
X009881Y004531D01*
X009819Y004531D02*
X009819Y004901D01*
X009757Y004901D02*
X009881Y004901D01*
X010003Y004901D02*
X010250Y004531D01*
X010371Y004531D02*
X010618Y004531D01*
X010739Y004531D02*
X010739Y004901D01*
X010618Y004901D02*
X010371Y004901D01*
X010371Y004531D01*
X010371Y004716D02*
X010495Y004716D01*
X010250Y004901D02*
X010003Y004531D01*
X010014Y004076D02*
X009767Y004076D01*
X009891Y004076D02*
X009891Y003706D01*
X009646Y003768D02*
X009584Y003706D01*
X009461Y003706D01*
X009399Y003768D01*
X009277Y003768D02*
X009277Y003706D01*
X009215Y003706D01*
X009215Y003768D01*
X009277Y003768D01*
X009277Y003891D02*
X009215Y003891D01*
X009215Y003953D01*
X009277Y003953D01*
X009277Y003891D01*
X009399Y003953D02*
X009461Y003891D01*
X009584Y003891D01*
X009646Y003829D01*
X009646Y003768D01*
X009646Y004015D02*
X009584Y004076D01*
X009461Y004076D01*
X009399Y004015D01*
X009399Y003953D01*
X009093Y004015D02*
X009093Y003768D01*
X009032Y003706D01*
X008908Y003706D01*
X008847Y003768D01*
X008847Y004015D01*
X008908Y004076D01*
X009032Y004076D01*
X009093Y004015D01*
X010136Y004076D02*
X010136Y003706D01*
X010136Y003829D02*
X010321Y003829D01*
X010382Y003891D01*
X010382Y004015D01*
X010321Y004076D01*
X010136Y004076D01*
X010259Y003829D02*
X010382Y003706D01*
X010504Y003706D02*
X010627Y003706D01*
X010566Y003706D02*
X010566Y004076D01*
X010627Y004076D02*
X010504Y004076D01*
X010749Y004076D02*
X010749Y003706D01*
X010749Y003829D02*
X010935Y003829D01*
X010996Y003891D01*
X010996Y004015D01*
X010935Y004076D01*
X010749Y004076D01*
X010739Y004531D02*
X010986Y004531D01*
X011079Y007729D02*
X011079Y007922D01*
X010982Y008019D01*
X010886Y007922D01*
X010886Y007729D01*
X010784Y007777D02*
X010784Y007874D01*
X010688Y007874D01*
X010784Y007970D02*
X010736Y008019D01*
X010639Y008019D01*
X010591Y007970D01*
X010591Y007777D01*
X010639Y007729D01*
X010736Y007729D01*
X010784Y007777D01*
X010886Y007874D02*
X011079Y007874D01*
X011180Y007970D02*
X011229Y008019D01*
X011325Y008019D01*
X011374Y007970D01*
X011374Y007922D01*
X011325Y007874D01*
X011374Y007825D01*
X011374Y007777D01*
X011325Y007729D01*
X011229Y007729D01*
X011180Y007777D01*
X011277Y007874D02*
X011325Y007874D01*
X011475Y007970D02*
X011523Y008019D01*
X011620Y008019D01*
X011668Y007970D01*
X011668Y007922D01*
X011475Y007729D01*
X011668Y007729D01*
X011769Y007777D02*
X011769Y007825D01*
X011818Y007874D01*
X011915Y007874D01*
X011963Y007825D01*
X011963Y007777D01*
X011915Y007729D01*
X011818Y007729D01*
X011769Y007777D01*
X011818Y007874D02*
X011769Y007922D01*
X011769Y007970D01*
X011818Y008019D01*
X011915Y008019D01*
X011963Y007970D01*
X011963Y007922D01*
X011915Y007874D01*
X010490Y008019D02*
X010296Y008019D01*
X010296Y007729D01*
X010490Y007729D01*
X010393Y007874D02*
X010296Y007874D01*
X010195Y008019D02*
X010195Y007729D01*
X010002Y007729D02*
X010002Y008019D01*
X010098Y007922D01*
X010195Y008019D01*
X012160Y010951D02*
X012160Y011241D01*
X012305Y011241D01*
X012353Y011193D01*
X012353Y011096D01*
X012305Y011048D01*
X012160Y011048D01*
X012256Y011048D02*
X012353Y010951D01*
X012454Y010951D02*
X012648Y011241D01*
X012454Y011241D02*
X012648Y010951D01*
X012663Y019655D02*
X012663Y019849D01*
X012759Y019946D01*
X012856Y019849D01*
X012856Y019655D01*
X012957Y019655D02*
X012957Y019946D01*
X013102Y019946D01*
X013151Y019897D01*
X013151Y019800D01*
X013102Y019752D01*
X012957Y019752D01*
X012856Y019800D02*
X012663Y019800D01*
X013252Y019849D02*
X013349Y019946D01*
X013349Y019655D01*
X013445Y019655D02*
X013252Y019655D01*
X013547Y019655D02*
X013740Y019655D01*
X013643Y019655D02*
X013643Y019946D01*
X013547Y019849D01*
X013841Y019849D02*
X013938Y019946D01*
X013938Y019655D01*
X013841Y019655D02*
X014035Y019655D01*
X014136Y019655D02*
X014136Y019704D01*
X014329Y019897D01*
X014329Y019946D01*
X014136Y019946D01*
X014431Y019946D02*
X014431Y019655D01*
X014624Y019655D01*
X014725Y019704D02*
X014774Y019655D01*
X014870Y019655D01*
X014919Y019704D01*
X014919Y019752D01*
X014870Y019800D01*
X014822Y019800D01*
X014870Y019800D02*
X014919Y019849D01*
X014919Y019897D01*
X014870Y019946D01*
X014774Y019946D01*
X014725Y019897D01*
X014624Y019946D02*
X014431Y019946D01*
X014431Y019800D02*
X014527Y019800D01*
X015020Y019704D02*
X015068Y019655D01*
X015165Y019655D01*
X015213Y019704D01*
X015213Y019752D01*
X015165Y019800D01*
X015117Y019800D01*
X015165Y019800D02*
X015213Y019849D01*
X015213Y019897D01*
X015165Y019946D01*
X015068Y019946D01*
X015020Y019897D01*
X015315Y019897D02*
X015315Y019704D01*
X015363Y019655D01*
X015460Y019655D01*
X015508Y019704D01*
X015508Y019800D01*
X015411Y019800D01*
X015315Y019897D02*
X015363Y019946D01*
X015460Y019946D01*
X015508Y019897D01*
X002160Y010414D02*
X002063Y010318D01*
X001870Y010318D01*
X001785Y010366D02*
X001785Y010511D01*
X001495Y010511D01*
X001495Y010366D01*
X001543Y010318D01*
X001737Y010318D01*
X001785Y010366D01*
X001870Y010511D02*
X002063Y010511D01*
X002160Y010414D01*
X002015Y010318D02*
X002015Y010511D01*
X002063Y010216D02*
X001870Y010216D01*
X001966Y010216D02*
X002063Y010120D01*
X002063Y010071D01*
X002063Y009971D02*
X002063Y009874D01*
X002112Y009923D02*
X001918Y009923D01*
X001870Y009874D01*
X002015Y009774D02*
X002015Y009581D01*
X002160Y009480D02*
X001870Y009286D01*
X002160Y009286D01*
X002015Y009185D02*
X002063Y009137D01*
X002063Y009040D01*
X002015Y008992D01*
X001966Y008992D01*
X001966Y009185D01*
X001918Y009185D02*
X002015Y009185D01*
X001918Y009185D02*
X001870Y009137D01*
X001870Y009040D01*
X001688Y008991D02*
X001640Y008943D01*
X001495Y008943D01*
X001543Y008841D02*
X001640Y008841D01*
X001688Y008793D01*
X001688Y008696D01*
X001640Y008648D01*
X001591Y008648D01*
X001591Y008841D01*
X001543Y008841D02*
X001495Y008793D01*
X001495Y008696D01*
X001543Y008547D02*
X001640Y008547D01*
X001688Y008498D01*
X001688Y008353D01*
X001785Y008353D02*
X001495Y008353D01*
X001495Y008498D01*
X001543Y008547D01*
X001160Y008452D02*
X000870Y008452D01*
X000870Y008645D02*
X001160Y008645D01*
X001063Y008548D01*
X001160Y008452D01*
X001160Y008746D02*
X000870Y008746D01*
X001015Y008746D02*
X001015Y008940D01*
X000918Y009041D02*
X001112Y009041D01*
X001160Y009089D01*
X001160Y009186D01*
X001112Y009234D01*
X000918Y009234D01*
X000870Y009186D01*
X000870Y009089D01*
X000918Y009041D01*
X000870Y008940D02*
X001160Y008940D01*
X001495Y009136D02*
X001688Y009136D01*
X001688Y008991D01*
X001870Y008794D02*
X001918Y008842D01*
X002112Y008842D01*
X002063Y008794D02*
X002063Y008891D01*
X002063Y008399D02*
X002063Y008303D01*
X002112Y008351D02*
X001918Y008351D01*
X001870Y008303D01*
X001918Y008203D02*
X001870Y008155D01*
X001870Y008058D01*
X001918Y008010D01*
X002015Y008010D01*
X002063Y008058D01*
X002063Y008155D01*
X002015Y008203D01*
X001918Y008203D01*
X001785Y007957D02*
X001495Y007957D01*
X001495Y007812D01*
X001543Y007764D01*
X001640Y007764D01*
X001688Y007812D01*
X001688Y007957D01*
X001688Y007663D02*
X001543Y007663D01*
X001495Y007614D01*
X001495Y007469D01*
X001446Y007469D02*
X001398Y007518D01*
X001398Y007566D01*
X001446Y007469D02*
X001688Y007469D01*
X001688Y007368D02*
X001640Y007368D01*
X001640Y007320D01*
X001688Y007320D01*
X001688Y007368D01*
X001543Y007368D02*
X001543Y007320D01*
X001495Y007320D01*
X001495Y007368D01*
X001543Y007368D01*
X001870Y007319D02*
X001870Y007126D01*
X001870Y007024D02*
X001870Y006879D01*
X001918Y006831D01*
X002112Y006831D01*
X002160Y006879D01*
X002160Y007024D01*
X001870Y007024D01*
X001785Y006926D02*
X001785Y006781D01*
X001737Y006733D01*
X001688Y006733D01*
X001640Y006781D01*
X001640Y006926D01*
X001640Y006781D02*
X001591Y006733D01*
X001543Y006733D01*
X001495Y006781D01*
X001495Y006926D01*
X001785Y006926D01*
X001640Y006632D02*
X001543Y006632D01*
X001495Y006583D01*
X001495Y006486D01*
X001543Y006438D01*
X001640Y006438D01*
X001688Y006486D01*
X001688Y006583D01*
X001640Y006632D01*
X001870Y006435D02*
X001870Y006290D01*
X001918Y006242D01*
X001966Y006290D01*
X001966Y006387D01*
X002015Y006435D01*
X002063Y006387D01*
X002063Y006242D01*
X002063Y006141D02*
X002063Y006044D01*
X002112Y006092D02*
X001918Y006092D01*
X001870Y006044D01*
X001870Y005944D02*
X002063Y005944D01*
X001966Y005944D02*
X002063Y005847D01*
X002063Y005799D01*
X002063Y005699D02*
X002063Y005650D01*
X001870Y005650D01*
X001870Y005602D02*
X001870Y005699D01*
X001688Y005748D02*
X001495Y005651D01*
X001688Y005554D01*
X001773Y005502D02*
X002063Y005502D01*
X002063Y005357D01*
X002015Y005309D01*
X001918Y005309D01*
X001870Y005357D01*
X001870Y005502D01*
X001688Y005405D02*
X001688Y005308D01*
X001640Y005260D01*
X001495Y005260D01*
X001495Y005405D01*
X001543Y005453D01*
X001591Y005405D01*
X001591Y005260D01*
X001495Y005158D02*
X001688Y005158D01*
X001688Y005013D01*
X001640Y004965D01*
X001495Y004965D01*
X001870Y004913D02*
X001870Y004816D01*
X001870Y004865D02*
X002063Y004865D01*
X002063Y004913D01*
X002160Y004865D02*
X002208Y004865D01*
X002063Y004716D02*
X002063Y004571D01*
X002015Y004523D01*
X001870Y004523D01*
X001785Y004569D02*
X001495Y004569D01*
X001495Y004376D01*
X001543Y004274D02*
X001495Y004226D01*
X001495Y004129D01*
X001543Y004081D01*
X001640Y004081D01*
X001688Y004129D01*
X001688Y004226D01*
X001640Y004274D01*
X001543Y004274D01*
X001543Y003980D02*
X001495Y003931D01*
X001495Y003835D01*
X001543Y003786D01*
X001640Y003786D01*
X001688Y003835D01*
X001688Y003931D01*
X001640Y003980D01*
X001543Y003980D01*
X001495Y003685D02*
X001495Y003540D01*
X001543Y003492D01*
X001591Y003540D01*
X001591Y003637D01*
X001640Y003685D01*
X001688Y003637D01*
X001688Y003492D01*
X001640Y003390D02*
X001543Y003390D01*
X001495Y003342D01*
X001495Y003245D01*
X001591Y003197D02*
X001591Y003390D01*
X001640Y003390D02*
X001688Y003342D01*
X001688Y003245D01*
X001640Y003197D01*
X001591Y003197D01*
X001495Y003096D02*
X001688Y003096D01*
X001688Y002951D01*
X001640Y002902D01*
X001495Y002902D01*
X001870Y002851D02*
X001918Y002900D01*
X002015Y002900D01*
X002063Y002851D01*
X002063Y002754D01*
X002015Y002706D01*
X001966Y002706D01*
X001966Y002900D01*
X001870Y002851D02*
X001870Y002754D01*
X001870Y003001D02*
X001870Y003146D01*
X001918Y003194D01*
X002015Y003194D01*
X002063Y003146D01*
X002063Y003001D01*
X002015Y003295D02*
X001870Y003295D01*
X001870Y003441D01*
X001918Y003489D01*
X001966Y003441D01*
X001966Y003295D01*
X002015Y003295D02*
X002063Y003344D01*
X002063Y003441D01*
X002015Y003589D02*
X002015Y003685D01*
X002112Y003637D02*
X001870Y003637D01*
X002063Y003786D02*
X002063Y003834D01*
X001966Y003931D01*
X001870Y003931D02*
X002063Y003931D01*
X002015Y004032D02*
X001966Y004032D01*
X001966Y004225D01*
X001918Y004225D02*
X002015Y004225D01*
X002063Y004177D01*
X002063Y004080D01*
X002015Y004032D01*
X001870Y004080D02*
X001870Y004177D01*
X001918Y004225D01*
X001870Y004325D02*
X001918Y004374D01*
X002112Y004374D01*
X002063Y004422D02*
X002063Y004325D01*
X002063Y004716D02*
X001870Y004716D01*
X002160Y005650D02*
X002208Y005650D01*
X001688Y006192D02*
X001688Y006337D01*
X001785Y006337D02*
X001495Y006337D01*
X001495Y006192D01*
X001543Y006143D01*
X001640Y006143D01*
X001688Y006192D01*
X001112Y006978D02*
X001063Y006978D01*
X001015Y007027D01*
X000966Y006978D01*
X000918Y006978D01*
X000870Y007027D01*
X000870Y007123D01*
X000918Y007172D01*
X000870Y007273D02*
X000870Y007466D01*
X000870Y007370D02*
X001160Y007370D01*
X001063Y007466D01*
X001112Y007568D02*
X000918Y007761D01*
X000870Y007713D01*
X000870Y007616D01*
X000918Y007568D01*
X001112Y007568D01*
X001160Y007616D01*
X001160Y007713D01*
X001112Y007761D01*
X000918Y007761D01*
X000870Y007862D02*
X000870Y008056D01*
X001063Y007862D01*
X001112Y007862D01*
X001160Y007911D01*
X001160Y008007D01*
X001112Y008056D01*
X001112Y007172D02*
X001160Y007123D01*
X001160Y007027D01*
X001112Y006978D01*
X001015Y007027D02*
X001015Y007075D01*
X001870Y007319D02*
X002160Y007319D01*
X002160Y007126D01*
X002015Y007222D02*
X002015Y007319D01*
X001870Y007420D02*
X001870Y007614D01*
X002160Y007614D01*
X001688Y009237D02*
X001446Y009237D01*
X001398Y009286D01*
X001398Y009334D01*
X001495Y009382D02*
X001543Y009431D01*
X001640Y009431D01*
X001688Y009382D01*
X001688Y009237D01*
X001495Y009237D02*
X001495Y009382D01*
X001495Y009530D02*
X001495Y009627D01*
X001495Y009579D02*
X001688Y009579D01*
X001688Y009627D01*
X001688Y009728D02*
X001688Y009873D01*
X001640Y009922D01*
X001591Y009873D01*
X001591Y009777D01*
X001543Y009728D01*
X001495Y009777D01*
X001495Y009922D01*
X001591Y010023D02*
X001591Y010216D01*
X001543Y010216D02*
X001640Y010216D01*
X001688Y010168D01*
X001688Y010071D01*
X001640Y010023D01*
X001591Y010023D01*
X001495Y010071D02*
X001495Y010168D01*
X001543Y010216D01*
X001160Y010318D02*
X001160Y010511D01*
X000870Y010511D01*
X001015Y010511D02*
X001015Y010414D01*
X001015Y010216D02*
X000918Y010216D01*
X000870Y010168D01*
X000870Y010071D01*
X000918Y010023D01*
X001015Y010023D01*
X001063Y010071D01*
X001063Y010168D01*
X001015Y010216D01*
X001063Y009922D02*
X000870Y009922D01*
X000966Y009922D02*
X001063Y009825D01*
X001063Y009777D01*
X001063Y009676D02*
X001015Y009676D01*
X001015Y009628D01*
X001063Y009628D01*
X001063Y009676D01*
X000918Y009676D02*
X000870Y009676D01*
X000870Y009628D01*
X000918Y009628D01*
X000918Y009676D01*
X001785Y009579D02*
X001833Y009579D01*
X001870Y009480D02*
X002160Y009480D01*
X002112Y003637D02*
X002160Y003589D01*
D12*
X001354Y008339D02*
X001354Y009260D01*
X001354Y010321D02*
X001354Y011241D01*
X000894Y010781D02*
X001815Y010781D01*
X012105Y011902D02*
X013026Y011902D01*
X012566Y012362D02*
X012566Y011441D01*
X013862Y007277D02*
X014782Y007277D01*
D13*
X014579Y006894D02*
X014652Y006821D01*
X014652Y006674D01*
X014579Y006600D01*
X014359Y006600D01*
X014359Y006454D02*
X014359Y006894D01*
X014579Y006894D01*
X014192Y006821D02*
X014119Y006894D01*
X013972Y006894D01*
X013898Y006821D01*
X013898Y006747D01*
X013972Y006674D01*
X014119Y006674D01*
X014192Y006600D01*
X014192Y006527D01*
X014119Y006454D01*
X013972Y006454D01*
X013898Y006527D01*
X013738Y006454D02*
X013592Y006454D01*
X013665Y006454D02*
X013665Y006894D01*
X013592Y006894D02*
X013738Y006894D01*
X012306Y007021D02*
X009547Y007021D01*
X009547Y009641D01*
X009686Y009781D01*
X012306Y009781D01*
X012306Y007021D01*
X010727Y006020D02*
X010727Y005220D01*
X010627Y005120D01*
X009827Y005120D01*
X009727Y005220D01*
X009627Y005120D01*
X008827Y005120D01*
X008727Y005220D01*
X008727Y006020D01*
X008827Y006120D01*
X009627Y006120D01*
X009727Y006020D01*
X009827Y006120D01*
X010627Y006120D01*
X010727Y006020D01*
X012132Y003194D02*
X012132Y002439D01*
X012772Y002439D02*
X012772Y003194D01*
X013337Y002311D02*
X013339Y002378D01*
X013345Y002446D01*
X013355Y002513D01*
X013369Y002579D01*
X013386Y002644D01*
X013408Y002708D01*
X013433Y002771D01*
X013462Y002832D01*
X013494Y002891D01*
X013530Y002948D01*
X013569Y003003D01*
X013611Y003056D01*
X013656Y003106D01*
X013704Y003153D01*
X013755Y003198D01*
X013808Y003239D01*
X013864Y003278D01*
X013922Y003313D01*
X013982Y003344D01*
X014043Y003372D01*
X014106Y003396D01*
X014170Y003417D01*
X014236Y003433D01*
X014302Y003446D01*
X014369Y003455D01*
X014436Y003460D01*
X014504Y003461D01*
X014571Y003458D01*
X014638Y003451D01*
X014705Y003440D01*
X014771Y003425D01*
X014836Y003407D01*
X014900Y003384D01*
X014962Y003358D01*
X015023Y003329D01*
X015081Y003295D01*
X015138Y003259D01*
X015193Y003219D01*
X015245Y003176D01*
X015294Y003130D01*
X015341Y003081D01*
X015385Y003030D01*
X015425Y002976D01*
X015463Y002920D01*
X015497Y002861D01*
X015527Y002801D01*
X015554Y002739D01*
X015578Y002676D01*
X015597Y002611D01*
X015613Y002546D01*
X015625Y002479D01*
X015633Y002412D01*
X015637Y002345D01*
X015637Y002277D01*
X015633Y002210D01*
X015625Y002143D01*
X015613Y002076D01*
X015597Y002011D01*
X015578Y001946D01*
X015554Y001883D01*
X015527Y001821D01*
X015497Y001761D01*
X015463Y001702D01*
X015425Y001646D01*
X015385Y001592D01*
X015341Y001541D01*
X015294Y001492D01*
X015245Y001446D01*
X015193Y001403D01*
X015138Y001363D01*
X015081Y001327D01*
X015023Y001293D01*
X014962Y001264D01*
X014900Y001238D01*
X014836Y001215D01*
X014771Y001197D01*
X014705Y001182D01*
X014638Y001171D01*
X014571Y001164D01*
X014504Y001161D01*
X014436Y001162D01*
X014369Y001167D01*
X014302Y001176D01*
X014236Y001189D01*
X014170Y001205D01*
X014106Y001226D01*
X014043Y001250D01*
X013982Y001278D01*
X013922Y001309D01*
X013864Y001344D01*
X013808Y001383D01*
X013755Y001424D01*
X013704Y001469D01*
X013656Y001516D01*
X013611Y001566D01*
X013569Y001619D01*
X013530Y001674D01*
X013494Y001731D01*
X013462Y001790D01*
X013433Y001851D01*
X013408Y001914D01*
X013386Y001978D01*
X013369Y002043D01*
X013355Y002109D01*
X013345Y002176D01*
X013339Y002244D01*
X013337Y002311D01*
X009706Y009481D02*
X009708Y009504D01*
X009714Y009527D01*
X009723Y009548D01*
X009736Y009568D01*
X009752Y009585D01*
X009770Y009599D01*
X009790Y009610D01*
X009812Y009618D01*
X009835Y009622D01*
X009859Y009622D01*
X009882Y009618D01*
X009904Y009610D01*
X009924Y009599D01*
X009942Y009585D01*
X009958Y009568D01*
X009971Y009548D01*
X009980Y009527D01*
X009986Y009504D01*
X009988Y009481D01*
X009986Y009458D01*
X009980Y009435D01*
X009971Y009414D01*
X009958Y009394D01*
X009942Y009377D01*
X009924Y009363D01*
X009904Y009352D01*
X009882Y009344D01*
X009859Y009340D01*
X009835Y009340D01*
X009812Y009344D01*
X009790Y009352D01*
X009770Y009363D01*
X009752Y009377D01*
X009736Y009394D01*
X009723Y009414D01*
X009714Y009435D01*
X009708Y009458D01*
X009706Y009481D01*
X008802Y011126D02*
X008802Y011426D01*
X008652Y011276D02*
X008952Y011276D01*
X009302Y012126D02*
X009302Y012326D01*
X009302Y012426D01*
X008852Y012426D01*
X008852Y012676D01*
X009752Y012676D01*
X009752Y012426D01*
X009302Y012426D01*
X007302Y012776D02*
X007304Y012874D01*
X007312Y012972D01*
X007324Y013069D01*
X007340Y013166D01*
X007362Y013262D01*
X007388Y013357D01*
X007419Y013450D01*
X007454Y013541D01*
X007494Y013631D01*
X007538Y013719D01*
X007587Y013804D01*
X007639Y013887D01*
X007696Y013967D01*
X007756Y014045D01*
X007820Y014119D01*
X007888Y014190D01*
X007959Y014258D01*
X008033Y014322D01*
X008111Y014382D01*
X008191Y014439D01*
X008274Y014491D01*
X008359Y014540D01*
X008447Y014584D01*
X008537Y014624D01*
X008628Y014659D01*
X008721Y014690D01*
X008816Y014716D01*
X008912Y014738D01*
X009009Y014754D01*
X009106Y014766D01*
X009204Y014774D01*
X009302Y014776D01*
X009400Y014774D01*
X009498Y014766D01*
X009595Y014754D01*
X009692Y014738D01*
X009788Y014716D01*
X009883Y014690D01*
X009976Y014659D01*
X010067Y014624D01*
X010157Y014584D01*
X010245Y014540D01*
X010330Y014491D01*
X010413Y014439D01*
X010493Y014382D01*
X010571Y014322D01*
X010645Y014258D01*
X010716Y014190D01*
X010784Y014119D01*
X010848Y014045D01*
X010908Y013967D01*
X010965Y013887D01*
X011017Y013804D01*
X011066Y013719D01*
X011110Y013631D01*
X011150Y013541D01*
X011185Y013450D01*
X011216Y013357D01*
X011242Y013262D01*
X011264Y013166D01*
X011280Y013069D01*
X011292Y012972D01*
X011300Y012874D01*
X011302Y012776D01*
X011300Y012678D01*
X011292Y012580D01*
X011280Y012483D01*
X011264Y012386D01*
X011242Y012290D01*
X011216Y012195D01*
X011185Y012102D01*
X011150Y012011D01*
X011110Y011921D01*
X011066Y011833D01*
X011017Y011748D01*
X010965Y011665D01*
X010908Y011585D01*
X010848Y011507D01*
X010784Y011433D01*
X010716Y011362D01*
X010645Y011294D01*
X010571Y011230D01*
X010493Y011170D01*
X010413Y011113D01*
X010330Y011061D01*
X010245Y011012D01*
X010157Y010968D01*
X010067Y010928D01*
X009976Y010893D01*
X009883Y010862D01*
X009788Y010836D01*
X009692Y010814D01*
X009595Y010798D01*
X009498Y010786D01*
X009400Y010778D01*
X009302Y010776D01*
X009204Y010778D01*
X009106Y010786D01*
X009009Y010798D01*
X008912Y010814D01*
X008816Y010836D01*
X008721Y010862D01*
X008628Y010893D01*
X008537Y010928D01*
X008447Y010968D01*
X008359Y011012D01*
X008274Y011061D01*
X008191Y011113D01*
X008111Y011170D01*
X008033Y011230D01*
X007959Y011294D01*
X007888Y011362D01*
X007820Y011433D01*
X007756Y011507D01*
X007696Y011585D01*
X007639Y011665D01*
X007587Y011748D01*
X007538Y011833D01*
X007494Y011921D01*
X007454Y012011D01*
X007419Y012102D01*
X007388Y012195D01*
X007362Y012290D01*
X007340Y012386D01*
X007324Y012483D01*
X007312Y012580D01*
X007304Y012678D01*
X007302Y012776D01*
X007452Y011276D02*
X006652Y011276D01*
X006552Y011176D01*
X006552Y010376D01*
X006652Y010276D01*
X006552Y010176D01*
X006552Y009376D01*
X006652Y009276D01*
X006552Y009176D01*
X006552Y008376D01*
X006652Y008276D01*
X007452Y008276D01*
X007552Y008376D01*
X007552Y009176D01*
X007452Y009276D01*
X007552Y009376D01*
X007552Y010176D01*
X007452Y010276D01*
X007552Y010376D01*
X007552Y011176D01*
X007452Y011276D01*
X005962Y011765D02*
X005022Y011765D01*
X002422Y011765D01*
X002422Y007836D01*
X002342Y007836D01*
X002342Y011765D01*
X002422Y011765D01*
X002742Y010785D02*
X002744Y010813D01*
X002750Y010840D01*
X002759Y010866D01*
X002772Y010891D01*
X002789Y010914D01*
X002808Y010934D01*
X002830Y010951D01*
X002854Y010965D01*
X002880Y010975D01*
X002907Y010982D01*
X002935Y010985D01*
X002963Y010984D01*
X002990Y010979D01*
X003017Y010970D01*
X003042Y010958D01*
X003065Y010943D01*
X003086Y010924D01*
X003104Y010903D01*
X003119Y010879D01*
X003130Y010853D01*
X003138Y010827D01*
X003142Y010799D01*
X003142Y010771D01*
X003138Y010743D01*
X003130Y010717D01*
X003119Y010691D01*
X003104Y010667D01*
X003086Y010646D01*
X003065Y010627D01*
X003042Y010612D01*
X003017Y010600D01*
X002990Y010591D01*
X002963Y010586D01*
X002935Y010585D01*
X002907Y010588D01*
X002880Y010595D01*
X002854Y010605D01*
X002830Y010619D01*
X002808Y010636D01*
X002789Y010656D01*
X002772Y010679D01*
X002759Y010704D01*
X002750Y010730D01*
X002744Y010757D01*
X002742Y010785D01*
X003722Y010785D02*
X003724Y010833D01*
X003730Y010881D01*
X003740Y010928D01*
X003753Y010974D01*
X003770Y011019D01*
X003791Y011062D01*
X003816Y011104D01*
X003843Y011143D01*
X003874Y011180D01*
X003908Y011215D01*
X003944Y011246D01*
X003983Y011275D01*
X004024Y011300D01*
X004067Y011322D01*
X004111Y011340D01*
X004157Y011354D01*
X004204Y011365D01*
X004252Y011372D01*
X004300Y011375D01*
X004348Y011374D01*
X004396Y011369D01*
X004443Y011360D01*
X004490Y011348D01*
X004535Y011331D01*
X004579Y011311D01*
X004621Y011288D01*
X004661Y011261D01*
X004698Y011231D01*
X004733Y011198D01*
X004766Y011162D01*
X004795Y011124D01*
X004821Y011083D01*
X004844Y011041D01*
X004863Y010997D01*
X004878Y010951D01*
X004890Y010905D01*
X004898Y010857D01*
X004902Y010809D01*
X004902Y010761D01*
X004898Y010713D01*
X004890Y010665D01*
X004878Y010619D01*
X004863Y010573D01*
X004844Y010529D01*
X004821Y010487D01*
X004795Y010446D01*
X004766Y010408D01*
X004733Y010372D01*
X004698Y010339D01*
X004661Y010309D01*
X004621Y010282D01*
X004579Y010259D01*
X004535Y010239D01*
X004490Y010222D01*
X004443Y010210D01*
X004396Y010201D01*
X004348Y010196D01*
X004300Y010195D01*
X004252Y010198D01*
X004204Y010205D01*
X004157Y010216D01*
X004111Y010230D01*
X004067Y010248D01*
X004024Y010270D01*
X003983Y010295D01*
X003944Y010324D01*
X003908Y010355D01*
X003874Y010390D01*
X003843Y010427D01*
X003816Y010466D01*
X003791Y010508D01*
X003770Y010551D01*
X003753Y010596D01*
X003740Y010642D01*
X003730Y010689D01*
X003724Y010737D01*
X003722Y010785D01*
X005022Y010436D02*
X005022Y009165D01*
X005022Y008465D01*
X005022Y007836D01*
X002422Y007836D01*
X002742Y008815D02*
X002744Y008843D01*
X002750Y008870D01*
X002759Y008896D01*
X002772Y008921D01*
X002789Y008944D01*
X002808Y008964D01*
X002830Y008981D01*
X002854Y008995D01*
X002880Y009005D01*
X002907Y009012D01*
X002935Y009015D01*
X002963Y009014D01*
X002990Y009009D01*
X003017Y009000D01*
X003042Y008988D01*
X003065Y008973D01*
X003086Y008954D01*
X003104Y008933D01*
X003119Y008909D01*
X003130Y008883D01*
X003138Y008857D01*
X003142Y008829D01*
X003142Y008801D01*
X003138Y008773D01*
X003130Y008747D01*
X003119Y008721D01*
X003104Y008697D01*
X003086Y008676D01*
X003065Y008657D01*
X003042Y008642D01*
X003017Y008630D01*
X002990Y008621D01*
X002963Y008616D01*
X002935Y008615D01*
X002907Y008618D01*
X002880Y008625D01*
X002854Y008635D01*
X002830Y008649D01*
X002808Y008666D01*
X002789Y008686D01*
X002772Y008709D01*
X002759Y008734D01*
X002750Y008760D01*
X002744Y008787D01*
X002742Y008815D01*
X003722Y008815D02*
X003724Y008863D01*
X003730Y008911D01*
X003740Y008958D01*
X003753Y009004D01*
X003770Y009049D01*
X003791Y009092D01*
X003816Y009134D01*
X003843Y009173D01*
X003874Y009210D01*
X003908Y009245D01*
X003944Y009276D01*
X003983Y009305D01*
X004024Y009330D01*
X004067Y009352D01*
X004111Y009370D01*
X004157Y009384D01*
X004204Y009395D01*
X004252Y009402D01*
X004300Y009405D01*
X004348Y009404D01*
X004396Y009399D01*
X004443Y009390D01*
X004490Y009378D01*
X004535Y009361D01*
X004579Y009341D01*
X004621Y009318D01*
X004661Y009291D01*
X004698Y009261D01*
X004733Y009228D01*
X004766Y009192D01*
X004795Y009154D01*
X004821Y009113D01*
X004844Y009071D01*
X004863Y009027D01*
X004878Y008981D01*
X004890Y008935D01*
X004898Y008887D01*
X004902Y008839D01*
X004902Y008791D01*
X004898Y008743D01*
X004890Y008695D01*
X004878Y008649D01*
X004863Y008603D01*
X004844Y008559D01*
X004821Y008517D01*
X004795Y008476D01*
X004766Y008438D01*
X004733Y008402D01*
X004698Y008369D01*
X004661Y008339D01*
X004621Y008312D01*
X004579Y008289D01*
X004535Y008269D01*
X004490Y008252D01*
X004443Y008240D01*
X004396Y008231D01*
X004348Y008226D01*
X004300Y008225D01*
X004252Y008228D01*
X004204Y008235D01*
X004157Y008246D01*
X004111Y008260D01*
X004067Y008278D01*
X004024Y008300D01*
X003983Y008325D01*
X003944Y008354D01*
X003908Y008385D01*
X003874Y008420D01*
X003843Y008457D01*
X003816Y008496D01*
X003791Y008538D01*
X003770Y008581D01*
X003753Y008626D01*
X003740Y008672D01*
X003730Y008719D01*
X003724Y008767D01*
X003722Y008815D01*
X005022Y007836D02*
X005962Y007836D01*
X005962Y011765D01*
X005022Y011765D02*
X005022Y011136D01*
X005022Y010436D01*
X005155Y013776D02*
X005155Y018676D01*
X004805Y018676D01*
X004805Y019276D01*
X005155Y019276D01*
X005155Y020026D01*
X001055Y020026D01*
X001055Y019276D01*
X001405Y019276D01*
X001405Y018676D01*
X001055Y018676D01*
X001055Y013776D01*
X005155Y013776D01*
X002395Y018676D02*
X002397Y018729D01*
X002403Y018782D01*
X002413Y018834D01*
X002427Y018885D01*
X002444Y018935D01*
X002465Y018984D01*
X002490Y019031D01*
X002518Y019076D01*
X002550Y019119D01*
X002585Y019159D01*
X002622Y019196D01*
X002662Y019231D01*
X002705Y019263D01*
X002750Y019291D01*
X002797Y019316D01*
X002846Y019337D01*
X002896Y019354D01*
X002947Y019368D01*
X002999Y019378D01*
X003052Y019384D01*
X003105Y019386D01*
X003158Y019384D01*
X003211Y019378D01*
X003263Y019368D01*
X003314Y019354D01*
X003364Y019337D01*
X003413Y019316D01*
X003460Y019291D01*
X003505Y019263D01*
X003548Y019231D01*
X003588Y019196D01*
X003625Y019159D01*
X003660Y019119D01*
X003692Y019076D01*
X003720Y019031D01*
X003745Y018984D01*
X003766Y018935D01*
X003783Y018885D01*
X003797Y018834D01*
X003807Y018782D01*
X003813Y018729D01*
X003815Y018676D01*
X003813Y018623D01*
X003807Y018570D01*
X003797Y018518D01*
X003783Y018467D01*
X003766Y018417D01*
X003745Y018368D01*
X003720Y018321D01*
X003692Y018276D01*
X003660Y018233D01*
X003625Y018193D01*
X003588Y018156D01*
X003548Y018121D01*
X003505Y018089D01*
X003460Y018061D01*
X003413Y018036D01*
X003364Y018015D01*
X003314Y017998D01*
X003263Y017984D01*
X003211Y017974D01*
X003158Y017968D01*
X003105Y017966D01*
X003052Y017968D01*
X002999Y017974D01*
X002947Y017984D01*
X002896Y017998D01*
X002846Y018015D01*
X002797Y018036D01*
X002750Y018061D01*
X002705Y018089D01*
X002662Y018121D01*
X002622Y018156D01*
X002585Y018193D01*
X002550Y018233D01*
X002518Y018276D01*
X002490Y018321D01*
X002465Y018368D01*
X002444Y018417D01*
X002427Y018467D01*
X002413Y018518D01*
X002403Y018570D01*
X002397Y018623D01*
X002395Y018676D01*
X009302Y013426D02*
X009302Y013226D01*
X009302Y013026D01*
X012415Y010826D02*
X012415Y010726D01*
X012415Y010826D02*
X012515Y010826D01*
X012465Y010526D02*
X012467Y010557D01*
X012473Y010588D01*
X012483Y010618D01*
X012496Y010646D01*
X012513Y010673D01*
X012533Y010697D01*
X012556Y010719D01*
X012581Y010737D01*
X012609Y010752D01*
X012638Y010764D01*
X012668Y010772D01*
X012699Y010776D01*
X012731Y010776D01*
X012762Y010772D01*
X012792Y010764D01*
X012821Y010752D01*
X012849Y010737D01*
X012874Y010719D01*
X012897Y010697D01*
X012917Y010673D01*
X012934Y010646D01*
X012947Y010618D01*
X012957Y010588D01*
X012963Y010557D01*
X012965Y010526D01*
X012963Y010495D01*
X012957Y010464D01*
X012947Y010434D01*
X012934Y010406D01*
X012917Y010379D01*
X012897Y010355D01*
X012874Y010333D01*
X012849Y010315D01*
X012821Y010300D01*
X012792Y010288D01*
X012762Y010280D01*
X012731Y010276D01*
X012699Y010276D01*
X012668Y010280D01*
X012638Y010288D01*
X012609Y010300D01*
X012581Y010315D01*
X012556Y010333D01*
X012533Y010355D01*
X012513Y010379D01*
X012496Y010406D01*
X012483Y010434D01*
X012473Y010464D01*
X012467Y010495D01*
X012465Y010526D01*
X012415Y010326D02*
X012415Y010226D01*
X012515Y010226D01*
X012915Y010226D02*
X013015Y010226D01*
X013015Y010326D01*
X013015Y010726D02*
X013015Y010826D01*
X012915Y010826D01*
X002491Y002312D02*
X002493Y002379D01*
X002499Y002447D01*
X002509Y002514D01*
X002523Y002580D01*
X002540Y002645D01*
X002562Y002709D01*
X002587Y002772D01*
X002616Y002833D01*
X002648Y002892D01*
X002684Y002949D01*
X002723Y003004D01*
X002765Y003057D01*
X002810Y003107D01*
X002858Y003154D01*
X002909Y003199D01*
X002962Y003240D01*
X003018Y003279D01*
X003076Y003314D01*
X003136Y003345D01*
X003197Y003373D01*
X003260Y003397D01*
X003324Y003418D01*
X003390Y003434D01*
X003456Y003447D01*
X003523Y003456D01*
X003590Y003461D01*
X003658Y003462D01*
X003725Y003459D01*
X003792Y003452D01*
X003859Y003441D01*
X003925Y003426D01*
X003990Y003408D01*
X004054Y003385D01*
X004116Y003359D01*
X004177Y003330D01*
X004235Y003296D01*
X004292Y003260D01*
X004347Y003220D01*
X004399Y003177D01*
X004448Y003131D01*
X004495Y003082D01*
X004539Y003031D01*
X004579Y002977D01*
X004617Y002921D01*
X004651Y002862D01*
X004681Y002802D01*
X004708Y002740D01*
X004732Y002677D01*
X004751Y002612D01*
X004767Y002547D01*
X004779Y002480D01*
X004787Y002413D01*
X004791Y002346D01*
X004791Y002278D01*
X004787Y002211D01*
X004779Y002144D01*
X004767Y002077D01*
X004751Y002012D01*
X004732Y001947D01*
X004708Y001884D01*
X004681Y001822D01*
X004651Y001762D01*
X004617Y001703D01*
X004579Y001647D01*
X004539Y001593D01*
X004495Y001542D01*
X004448Y001493D01*
X004399Y001447D01*
X004347Y001404D01*
X004292Y001364D01*
X004235Y001328D01*
X004177Y001294D01*
X004116Y001265D01*
X004054Y001239D01*
X003990Y001216D01*
X003925Y001198D01*
X003859Y001183D01*
X003792Y001172D01*
X003725Y001165D01*
X003658Y001162D01*
X003590Y001163D01*
X003523Y001168D01*
X003456Y001177D01*
X003390Y001190D01*
X003324Y001206D01*
X003260Y001227D01*
X003197Y001251D01*
X003136Y001279D01*
X003076Y001310D01*
X003018Y001345D01*
X002962Y001384D01*
X002909Y001425D01*
X002858Y001470D01*
X002810Y001517D01*
X002765Y001567D01*
X002723Y001620D01*
X002684Y001675D01*
X002648Y001732D01*
X002616Y001791D01*
X002587Y001852D01*
X002562Y001915D01*
X002540Y001979D01*
X002523Y002044D01*
X002509Y002110D01*
X002499Y002177D01*
X002493Y002245D01*
X002491Y002312D01*
D14*
X009332Y007299D03*
X009332Y007614D03*
X009332Y007929D03*
X009332Y008244D03*
X009332Y008559D03*
X009332Y008874D03*
X009332Y009188D03*
X009332Y009503D03*
X012522Y009503D03*
X012522Y009188D03*
X012522Y008874D03*
X012522Y008559D03*
X012522Y008244D03*
X012522Y007929D03*
X012522Y007614D03*
X012522Y007299D03*
D15*
X012029Y006806D03*
X011714Y006806D03*
X011399Y006806D03*
X011084Y006806D03*
X010769Y006806D03*
X010454Y006806D03*
X010139Y006806D03*
X009824Y006806D03*
X009824Y009996D03*
X010139Y009996D03*
X010454Y009996D03*
X010769Y009996D03*
X011084Y009996D03*
X011399Y009996D03*
X011714Y009996D03*
X012029Y009996D03*
D16*
X012052Y012879D03*
X012051Y013923D03*
X008176Y008923D03*
X008177Y007879D03*
D17*
X008486Y008021D02*
X008486Y008781D01*
X007867Y008781D02*
X007867Y008021D01*
X007637Y007381D02*
X007484Y007381D01*
X007407Y007305D01*
X007407Y007228D01*
X007484Y007151D01*
X007637Y007151D01*
X007714Y007074D01*
X007714Y006998D01*
X007637Y006921D01*
X007484Y006921D01*
X007407Y006998D01*
X007407Y007074D01*
X007484Y007151D01*
X007637Y007151D02*
X007714Y007228D01*
X007714Y007305D01*
X007637Y007381D01*
X007867Y007228D02*
X008097Y007228D01*
X008174Y007151D01*
X008174Y006998D01*
X008097Y006921D01*
X007867Y006921D01*
X007867Y006768D02*
X007867Y007228D01*
X008287Y007191D02*
X008287Y006961D01*
X008594Y006961D01*
X008517Y006807D02*
X008594Y006730D01*
X008594Y006577D01*
X008517Y006500D01*
X008210Y006807D01*
X008517Y006807D01*
X008759Y006864D02*
X009219Y006864D01*
X009219Y006711D02*
X009219Y007018D01*
X008912Y006711D02*
X008759Y006864D01*
X008835Y006557D02*
X008759Y006480D01*
X008759Y006327D01*
X008835Y006250D01*
X009142Y006250D01*
X009219Y006327D01*
X009219Y006480D01*
X009142Y006557D01*
X008594Y006270D02*
X008594Y006117D01*
X008517Y006040D01*
X008210Y006347D01*
X008517Y006347D01*
X008594Y006270D01*
X008517Y006040D02*
X008210Y006040D01*
X008134Y006117D01*
X008134Y006270D01*
X008210Y006347D01*
X008210Y006500D02*
X008134Y006577D01*
X008134Y006730D01*
X008210Y006807D01*
X008210Y006500D02*
X008517Y006500D01*
X008594Y005886D02*
X008594Y005580D01*
X008594Y005733D02*
X008134Y005733D01*
X008287Y005580D01*
X007253Y006921D02*
X006947Y006921D01*
X007100Y006921D02*
X007100Y007381D01*
X006947Y007228D01*
X006526Y007290D02*
X006450Y007214D01*
X006526Y007137D01*
X006526Y007060D01*
X006450Y006984D01*
X006296Y006984D01*
X006219Y007060D01*
X006066Y007060D02*
X005989Y006984D01*
X005836Y006984D01*
X005759Y007060D01*
X005759Y007367D01*
X005836Y007444D01*
X005989Y007444D01*
X006066Y007367D01*
X006219Y007367D02*
X006296Y007444D01*
X006450Y007444D01*
X006526Y007367D01*
X006526Y007290D01*
X006450Y007214D02*
X006373Y007214D01*
X006422Y006711D02*
X007181Y006711D01*
X007181Y006091D02*
X006422Y006091D01*
X005231Y006998D02*
X005154Y006921D01*
X004924Y006921D01*
X004924Y006768D02*
X004924Y007228D01*
X005154Y007228D01*
X005231Y007151D01*
X005231Y006998D01*
X004770Y006998D02*
X004693Y006921D01*
X004540Y006921D01*
X004463Y006998D01*
X004463Y007074D01*
X004540Y007151D01*
X004693Y007151D01*
X004770Y007074D01*
X004770Y006998D01*
X004693Y007151D02*
X004770Y007228D01*
X004770Y007305D01*
X004693Y007381D01*
X004540Y007381D01*
X004463Y007305D01*
X004463Y007228D01*
X004540Y007151D01*
X004310Y006921D02*
X004003Y006921D01*
X004156Y006921D02*
X004156Y007381D01*
X004003Y007228D01*
X003606Y007242D02*
X003529Y007319D01*
X003375Y007319D01*
X003299Y007242D01*
X003145Y007242D02*
X003068Y007319D01*
X002915Y007319D01*
X002838Y007242D01*
X002838Y006935D01*
X002915Y006859D01*
X003068Y006859D01*
X003145Y006935D01*
X003299Y006859D02*
X003606Y007165D01*
X003606Y007242D01*
X003606Y006859D02*
X003299Y006859D01*
X003922Y006711D02*
X004681Y006711D01*
X004681Y006091D02*
X003922Y006091D01*
X004474Y003741D02*
X004398Y003665D01*
X004474Y003741D02*
X004628Y003741D01*
X004705Y003665D01*
X004705Y003588D01*
X004398Y003281D01*
X004705Y003281D01*
X004858Y003358D02*
X004858Y003665D01*
X004935Y003741D01*
X005088Y003741D01*
X005165Y003665D01*
X004858Y003358D01*
X004935Y003281D01*
X005088Y003281D01*
X005165Y003358D01*
X005165Y003665D01*
X005779Y003741D02*
X005779Y003281D01*
X005932Y003588D02*
X006086Y003741D01*
X006086Y003281D01*
X006239Y003281D02*
X006239Y003741D01*
X006239Y003511D02*
X006546Y003511D01*
X006699Y003588D02*
X007006Y003588D01*
X006699Y003281D01*
X007006Y003281D01*
X006546Y003281D02*
X006546Y003741D01*
X005932Y003588D02*
X005779Y003741D01*
X008287Y007191D02*
X008364Y007267D01*
X008594Y007267D01*
X011335Y011313D02*
X011642Y011313D01*
X011719Y011390D01*
X011719Y011543D01*
X011642Y011620D01*
X011642Y011773D02*
X011566Y011773D01*
X011489Y011850D01*
X011489Y012003D01*
X011566Y012080D01*
X011642Y012080D01*
X011719Y012003D01*
X011719Y011850D01*
X011642Y011773D01*
X011489Y011850D02*
X011412Y011773D01*
X011335Y011773D01*
X011259Y011850D01*
X011259Y012003D01*
X011335Y012080D01*
X011412Y012080D01*
X011489Y012003D01*
X011335Y011620D02*
X011259Y011543D01*
X011259Y011390D01*
X011335Y011313D01*
X011742Y013021D02*
X011742Y013781D01*
X011594Y013756D02*
X011134Y013756D01*
X011287Y013602D01*
X011594Y013602D02*
X011594Y013909D01*
X011517Y014063D02*
X011210Y014370D01*
X011517Y014370D01*
X011594Y014293D01*
X011594Y014139D01*
X011517Y014063D01*
X011210Y014063D01*
X011134Y014139D01*
X011134Y014293D01*
X011210Y014370D01*
X011287Y014523D02*
X011517Y014523D01*
X011594Y014600D01*
X011594Y014830D01*
X011287Y014830D01*
X012361Y013781D02*
X012361Y013021D01*
X013072Y013086D02*
X013831Y013086D01*
X013873Y013234D02*
X013797Y013310D01*
X014103Y013617D01*
X014103Y013310D01*
X014027Y013234D01*
X013873Y013234D01*
X013797Y013310D02*
X013797Y013617D01*
X013873Y013694D01*
X014027Y013694D01*
X014103Y013617D01*
X014257Y013617D02*
X014257Y013310D01*
X014564Y013617D01*
X014564Y013310D01*
X014487Y013234D01*
X014334Y013234D01*
X014257Y013310D01*
X014257Y013617D02*
X014334Y013694D01*
X014487Y013694D01*
X014564Y013617D01*
X014717Y013540D02*
X014947Y013540D01*
X015024Y013464D01*
X015024Y013234D01*
X014717Y013234D02*
X014717Y013540D01*
X014429Y012319D02*
X014275Y012319D01*
X014199Y012242D01*
X014199Y012165D01*
X014275Y012089D01*
X014506Y012089D01*
X014506Y012242D02*
X014429Y012319D01*
X014506Y012242D02*
X014506Y011935D01*
X014429Y011859D01*
X014275Y011859D01*
X014199Y011935D01*
X014045Y011935D02*
X013968Y011859D01*
X013815Y011859D01*
X013738Y011935D01*
X013738Y012242D01*
X013815Y012319D01*
X013968Y012319D01*
X014045Y012242D01*
X013831Y012466D02*
X013072Y012466D01*
X013336Y013234D02*
X013643Y013234D01*
X013490Y013234D02*
X013490Y013694D01*
X013336Y013540D01*
X006597Y013281D02*
X006356Y013281D01*
X006476Y013281D02*
X006476Y012921D01*
X006228Y012981D02*
X006168Y012921D01*
X006048Y012921D01*
X005988Y012981D01*
X005988Y013101D02*
X006108Y013161D01*
X006168Y013161D01*
X006228Y013101D01*
X006228Y012981D01*
X005988Y013101D02*
X005988Y013281D01*
X006228Y013281D01*
X005860Y013221D02*
X005860Y012981D01*
X005800Y012921D01*
X005680Y012921D01*
X005620Y012981D01*
X005860Y013221D01*
X005800Y013281D01*
X005680Y013281D01*
X005620Y013221D01*
X005620Y012981D01*
X005492Y012981D02*
X005432Y012921D01*
X005312Y012921D01*
X005251Y012981D01*
X005251Y013041D01*
X005312Y013101D01*
X005432Y013101D01*
X005492Y013041D01*
X005492Y012981D01*
X005432Y013101D02*
X005492Y013161D01*
X005492Y013221D01*
X005432Y013281D01*
X005312Y013281D01*
X005251Y013221D01*
X005251Y013161D01*
X005312Y013101D01*
X005123Y013221D02*
X004883Y012981D01*
X004883Y012921D01*
X004883Y013281D02*
X005123Y013281D01*
X005123Y013221D01*
X012909Y004031D02*
X012909Y003571D01*
X012909Y003724D02*
X013139Y003724D01*
X013216Y003801D01*
X013216Y003955D01*
X013139Y004031D01*
X012909Y004031D01*
X013063Y003724D02*
X013216Y003571D01*
X013369Y003571D02*
X013676Y003571D01*
X013523Y003571D02*
X013523Y004031D01*
X013369Y003878D01*
X012955Y001469D02*
X012955Y001009D01*
X012955Y001162D02*
X013185Y001315D01*
X012955Y001162D02*
X013185Y001009D01*
X012801Y001085D02*
X012801Y001392D01*
X012494Y001085D01*
X012571Y001009D01*
X012725Y001009D01*
X012801Y001085D01*
X012801Y001392D02*
X012725Y001469D01*
X012571Y001469D01*
X012494Y001392D01*
X012494Y001085D01*
X012341Y001009D02*
X012034Y001009D01*
X012188Y001009D02*
X012188Y001469D01*
X012034Y001315D01*
D18*
X012452Y002294D03*
X012452Y003334D03*
D19*
X013896Y002311D02*
X013898Y002359D01*
X013904Y002407D01*
X013914Y002454D01*
X013927Y002500D01*
X013945Y002545D01*
X013965Y002589D01*
X013990Y002631D01*
X014018Y002670D01*
X014048Y002707D01*
X014082Y002741D01*
X014119Y002773D01*
X014157Y002802D01*
X014198Y002827D01*
X014241Y002849D01*
X014286Y002867D01*
X014332Y002881D01*
X014379Y002892D01*
X014427Y002899D01*
X014475Y002902D01*
X014523Y002901D01*
X014571Y002896D01*
X014619Y002887D01*
X014665Y002875D01*
X014710Y002858D01*
X014754Y002838D01*
X014796Y002815D01*
X014836Y002788D01*
X014874Y002758D01*
X014909Y002725D01*
X014941Y002689D01*
X014971Y002651D01*
X014997Y002610D01*
X015019Y002567D01*
X015039Y002523D01*
X015054Y002478D01*
X015066Y002431D01*
X015074Y002383D01*
X015078Y002335D01*
X015078Y002287D01*
X015074Y002239D01*
X015066Y002191D01*
X015054Y002144D01*
X015039Y002099D01*
X015019Y002055D01*
X014997Y002012D01*
X014971Y001971D01*
X014941Y001933D01*
X014909Y001897D01*
X014874Y001864D01*
X014836Y001834D01*
X014796Y001807D01*
X014754Y001784D01*
X014710Y001764D01*
X014665Y001747D01*
X014619Y001735D01*
X014571Y001726D01*
X014523Y001721D01*
X014475Y001720D01*
X014427Y001723D01*
X014379Y001730D01*
X014332Y001741D01*
X014286Y001755D01*
X014241Y001773D01*
X014198Y001795D01*
X014157Y001820D01*
X014119Y001849D01*
X014082Y001881D01*
X014048Y001915D01*
X014018Y001952D01*
X013990Y001991D01*
X013965Y002033D01*
X013945Y002077D01*
X013927Y002122D01*
X013914Y002168D01*
X013904Y002215D01*
X013898Y002263D01*
X013896Y002311D01*
X007496Y003871D02*
X007496Y005682D01*
X006384Y005682D01*
X003117Y005682D01*
X003117Y003871D01*
X004219Y003871D01*
X006374Y003871D01*
X007496Y003871D01*
X006374Y003870D02*
X006433Y003872D01*
X006492Y003877D01*
X006551Y003886D01*
X006609Y003900D01*
X006666Y003917D01*
X006721Y003937D01*
X006775Y003961D01*
X006828Y003989D01*
X006878Y004020D01*
X006927Y004054D01*
X006973Y004092D01*
X007016Y004132D01*
X007057Y004175D01*
X007095Y004221D01*
X007130Y004269D01*
X007161Y004319D01*
X007189Y004371D01*
X007214Y004425D01*
X007235Y004480D01*
X007253Y004537D01*
X007267Y004594D01*
X007277Y004653D01*
X007283Y004712D01*
X007285Y004771D01*
X007283Y004830D01*
X007278Y004889D01*
X007269Y004948D01*
X007255Y005006D01*
X007238Y005063D01*
X007218Y005118D01*
X007194Y005172D01*
X007166Y005225D01*
X007135Y005275D01*
X007101Y005324D01*
X007063Y005370D01*
X007023Y005413D01*
X006980Y005454D01*
X006934Y005492D01*
X006886Y005527D01*
X006836Y005558D01*
X006784Y005586D01*
X006730Y005611D01*
X006675Y005632D01*
X006618Y005650D01*
X006561Y005664D01*
X006502Y005674D01*
X006443Y005680D01*
X006384Y005682D01*
X004229Y005682D02*
X004170Y005680D01*
X004111Y005675D01*
X004052Y005666D01*
X003994Y005652D01*
X003937Y005635D01*
X003882Y005615D01*
X003828Y005591D01*
X003775Y005563D01*
X003725Y005532D01*
X003676Y005498D01*
X003630Y005460D01*
X003587Y005420D01*
X003546Y005377D01*
X003508Y005331D01*
X003473Y005283D01*
X003442Y005233D01*
X003414Y005181D01*
X003389Y005127D01*
X003368Y005072D01*
X003350Y005015D01*
X003336Y004958D01*
X003326Y004899D01*
X003320Y004840D01*
X003318Y004781D01*
X003320Y004722D01*
X003325Y004663D01*
X003334Y004604D01*
X003348Y004546D01*
X003365Y004489D01*
X003385Y004434D01*
X003409Y004380D01*
X003437Y004327D01*
X003468Y004277D01*
X003502Y004228D01*
X003540Y004182D01*
X003580Y004139D01*
X003623Y004098D01*
X003669Y004060D01*
X003717Y004025D01*
X003767Y003994D01*
X003819Y003966D01*
X003873Y003941D01*
X003928Y003920D01*
X003985Y003902D01*
X004042Y003888D01*
X004101Y003878D01*
X004160Y003872D01*
X004219Y003870D01*
X003050Y002312D02*
X003052Y002360D01*
X003058Y002408D01*
X003068Y002455D01*
X003081Y002501D01*
X003099Y002546D01*
X003119Y002590D01*
X003144Y002632D01*
X003172Y002671D01*
X003202Y002708D01*
X003236Y002742D01*
X003273Y002774D01*
X003311Y002803D01*
X003352Y002828D01*
X003395Y002850D01*
X003440Y002868D01*
X003486Y002882D01*
X003533Y002893D01*
X003581Y002900D01*
X003629Y002903D01*
X003677Y002902D01*
X003725Y002897D01*
X003773Y002888D01*
X003819Y002876D01*
X003864Y002859D01*
X003908Y002839D01*
X003950Y002816D01*
X003990Y002789D01*
X004028Y002759D01*
X004063Y002726D01*
X004095Y002690D01*
X004125Y002652D01*
X004151Y002611D01*
X004173Y002568D01*
X004193Y002524D01*
X004208Y002479D01*
X004220Y002432D01*
X004228Y002384D01*
X004232Y002336D01*
X004232Y002288D01*
X004228Y002240D01*
X004220Y002192D01*
X004208Y002145D01*
X004193Y002100D01*
X004173Y002056D01*
X004151Y002013D01*
X004125Y001972D01*
X004095Y001934D01*
X004063Y001898D01*
X004028Y001865D01*
X003990Y001835D01*
X003950Y001808D01*
X003908Y001785D01*
X003864Y001765D01*
X003819Y001748D01*
X003773Y001736D01*
X003725Y001727D01*
X003677Y001722D01*
X003629Y001721D01*
X003581Y001724D01*
X003533Y001731D01*
X003486Y001742D01*
X003440Y001756D01*
X003395Y001774D01*
X003352Y001796D01*
X003311Y001821D01*
X003273Y001850D01*
X003236Y001882D01*
X003202Y001916D01*
X003172Y001953D01*
X003144Y001992D01*
X003119Y002034D01*
X003099Y002078D01*
X003081Y002123D01*
X003068Y002169D01*
X003058Y002216D01*
X003052Y002264D01*
X003050Y002312D01*
X012878Y014588D02*
X012878Y015988D01*
X015458Y015988D01*
X015458Y014588D01*
X012878Y014588D01*
D20*
X012929Y012776D03*
X013974Y012776D03*
X007324Y006401D03*
X006279Y006401D03*
X004824Y006401D03*
X003779Y006401D03*
D21*
X013062Y005674D03*
X013062Y004674D03*
X014062Y004674D03*
X014062Y005674D03*
X015062Y005674D03*
X015062Y004674D03*
D22*
X015562Y004174D02*
X012562Y004174D01*
X012562Y006174D01*
X015562Y006174D01*
X015562Y004174D01*
X015549Y007773D02*
X014799Y007773D01*
X014799Y011773D01*
X015549Y011773D01*
X015549Y007773D01*
X014799Y007773D02*
X013049Y007773D01*
X013049Y011773D01*
X014799Y011773D01*
X004703Y010386D02*
X003912Y011165D01*
X003922Y009215D02*
X004712Y008425D01*
D23*
X005307Y008310D02*
X005757Y008611D01*
X005757Y008771D02*
X005757Y009071D01*
X005757Y008921D02*
X005307Y008921D01*
X005457Y008771D01*
X005307Y008611D02*
X005757Y008310D01*
X007736Y008914D02*
X008077Y008914D01*
X008077Y008801D02*
X008077Y009028D01*
X007850Y008801D02*
X007736Y008914D01*
X007793Y009801D02*
X007736Y009858D01*
X007736Y009971D01*
X007793Y010028D01*
X007850Y010028D01*
X008077Y009801D01*
X008077Y010028D01*
X008020Y010801D02*
X008077Y010858D01*
X008077Y010971D01*
X008020Y011028D01*
X007963Y011028D01*
X007906Y010971D01*
X007906Y010914D01*
X007906Y010971D02*
X007850Y011028D01*
X007793Y011028D01*
X007736Y010971D01*
X007736Y010858D01*
X007793Y010801D01*
X008009Y012464D02*
X008309Y012464D01*
X008384Y012539D01*
X008384Y012689D01*
X008309Y012764D01*
X008309Y012924D02*
X008384Y012999D01*
X008384Y013149D01*
X008309Y013224D01*
X008234Y013224D01*
X008159Y013149D01*
X008159Y012924D01*
X008309Y012924D01*
X008159Y012924D02*
X008009Y013074D01*
X007934Y013224D01*
X008009Y012764D02*
X007934Y012689D01*
X007934Y012539D01*
X008009Y012464D01*
X003537Y010291D02*
X003537Y009990D01*
X003237Y010291D01*
X003162Y010291D01*
X003087Y010216D01*
X003087Y010065D01*
X003162Y009990D01*
X003537Y008341D02*
X003537Y008040D01*
X003537Y008191D02*
X003087Y008191D01*
X003237Y008040D01*
D24*
X014168Y016363D03*
X014168Y016363D03*
D25*
X014168Y014213D03*
X014168Y014213D03*
X015078Y014213D03*
X015078Y014213D03*
X013258Y014213D03*
X013258Y014213D03*
D26*
X007052Y010776D03*
X007052Y009776D03*
X007052Y008776D03*
X009227Y005620D03*
X010227Y005620D03*
D27*
X009302Y013001D03*
D28*
X014237Y002311D02*
X014239Y002342D01*
X014245Y002373D01*
X014255Y002403D01*
X014268Y002431D01*
X014285Y002458D01*
X014305Y002482D01*
X014328Y002504D01*
X014353Y002522D01*
X014381Y002537D01*
X014410Y002549D01*
X014440Y002557D01*
X014471Y002561D01*
X014503Y002561D01*
X014534Y002557D01*
X014564Y002549D01*
X014593Y002537D01*
X014621Y002522D01*
X014646Y002504D01*
X014669Y002482D01*
X014689Y002458D01*
X014706Y002431D01*
X014719Y002403D01*
X014729Y002373D01*
X014735Y002342D01*
X014737Y002311D01*
X014735Y002280D01*
X014729Y002249D01*
X014719Y002219D01*
X014706Y002191D01*
X014689Y002164D01*
X014669Y002140D01*
X014646Y002118D01*
X014621Y002100D01*
X014593Y002085D01*
X014564Y002073D01*
X014534Y002065D01*
X014503Y002061D01*
X014471Y002061D01*
X014440Y002065D01*
X014410Y002073D01*
X014381Y002085D01*
X014353Y002100D01*
X014328Y002118D01*
X014305Y002140D01*
X014285Y002164D01*
X014268Y002191D01*
X014255Y002219D01*
X014245Y002249D01*
X014239Y002280D01*
X014237Y002311D01*
X003391Y002312D02*
X003393Y002343D01*
X003399Y002374D01*
X003409Y002404D01*
X003422Y002432D01*
X003439Y002459D01*
X003459Y002483D01*
X003482Y002505D01*
X003507Y002523D01*
X003535Y002538D01*
X003564Y002550D01*
X003594Y002558D01*
X003625Y002562D01*
X003657Y002562D01*
X003688Y002558D01*
X003718Y002550D01*
X003747Y002538D01*
X003775Y002523D01*
X003800Y002505D01*
X003823Y002483D01*
X003843Y002459D01*
X003860Y002432D01*
X003873Y002404D01*
X003883Y002374D01*
X003889Y002343D01*
X003891Y002312D01*
X003889Y002281D01*
X003883Y002250D01*
X003873Y002220D01*
X003860Y002192D01*
X003843Y002165D01*
X003823Y002141D01*
X003800Y002119D01*
X003775Y002101D01*
X003747Y002086D01*
X003718Y002074D01*
X003688Y002066D01*
X003657Y002062D01*
X003625Y002062D01*
X003594Y002066D01*
X003564Y002074D01*
X003535Y002086D01*
X003507Y002101D01*
X003482Y002119D01*
X003459Y002141D01*
X003439Y002165D01*
X003422Y002192D01*
X003409Y002220D01*
X003399Y002250D01*
X003393Y002281D01*
X003391Y002312D01*
D29*
X004745Y002356D02*
X003932Y002356D01*
X003933Y002357D02*
X003925Y002390D01*
X003915Y002422D01*
X003900Y002453D01*
X003882Y002482D01*
X003861Y002508D01*
X003837Y002532D01*
X003811Y002553D01*
X003782Y002571D01*
X003751Y002586D01*
X003719Y002596D01*
X003686Y002604D01*
X003685Y003416D01*
X003686Y003416D01*
X003752Y003411D01*
X003817Y003403D01*
X003882Y003391D01*
X003945Y003374D01*
X004008Y003354D01*
X004069Y003331D01*
X004129Y003303D01*
X004187Y003272D01*
X004244Y003238D01*
X004298Y003201D01*
X004350Y003160D01*
X004399Y003116D01*
X004445Y003070D01*
X004489Y003021D01*
X004530Y002969D01*
X004567Y002915D01*
X004601Y002858D01*
X004632Y002800D01*
X004660Y002740D01*
X004683Y002679D01*
X004703Y002616D01*
X004720Y002553D01*
X004732Y002488D01*
X004740Y002423D01*
X004745Y002357D01*
X004660Y002357D01*
X004655Y002420D01*
X004647Y002482D01*
X004634Y002544D01*
X004618Y002605D01*
X004598Y002665D01*
X004575Y002723D01*
X004547Y002780D01*
X004517Y002835D01*
X004483Y002888D01*
X004446Y002939D01*
X004405Y002987D01*
X004362Y003033D01*
X004316Y003076D01*
X004268Y003117D01*
X004217Y003154D01*
X004164Y003188D01*
X004109Y003218D01*
X004052Y003246D01*
X003994Y003269D01*
X003934Y003289D01*
X003873Y003305D01*
X003811Y003318D01*
X003749Y003326D01*
X003686Y003331D01*
X003686Y003246D01*
X003746Y003241D01*
X003805Y003232D01*
X003864Y003220D01*
X003921Y003204D01*
X003978Y003184D01*
X004033Y003161D01*
X004087Y003134D01*
X004138Y003104D01*
X004188Y003070D01*
X004236Y003034D01*
X004281Y002994D01*
X004323Y002952D01*
X004363Y002907D01*
X004399Y002859D01*
X004433Y002809D01*
X004463Y002758D01*
X004490Y002704D01*
X004513Y002649D01*
X004533Y002592D01*
X004549Y002535D01*
X004561Y002476D01*
X004570Y002417D01*
X004575Y002357D01*
X004490Y002357D01*
X004485Y002413D01*
X004476Y002469D01*
X004464Y002525D01*
X004448Y002579D01*
X004428Y002632D01*
X004405Y002684D01*
X004379Y002734D01*
X004349Y002782D01*
X004317Y002828D01*
X004281Y002872D01*
X004242Y002913D01*
X004201Y002952D01*
X004157Y002988D01*
X004111Y003020D01*
X004063Y003050D01*
X004013Y003076D01*
X003961Y003099D01*
X003908Y003119D01*
X003854Y003135D01*
X003798Y003147D01*
X003742Y003156D01*
X003686Y003161D01*
X003686Y003076D01*
X003739Y003071D01*
X003791Y003062D01*
X003842Y003050D01*
X003893Y003034D01*
X003942Y003015D01*
X003990Y002993D01*
X004036Y002967D01*
X004081Y002938D01*
X004123Y002906D01*
X004163Y002871D01*
X004200Y002834D01*
X004235Y002794D01*
X004267Y002752D01*
X004296Y002707D01*
X004322Y002661D01*
X004344Y002613D01*
X004363Y002564D01*
X004379Y002513D01*
X004391Y002462D01*
X004400Y002410D01*
X004405Y002357D01*
X004320Y002357D01*
X004314Y002408D01*
X004305Y002459D01*
X004292Y002509D01*
X004275Y002557D01*
X004255Y002605D01*
X004231Y002650D01*
X004204Y002694D01*
X004173Y002735D01*
X004140Y002774D01*
X004103Y002811D01*
X004064Y002844D01*
X004023Y002875D01*
X003979Y002902D01*
X003934Y002926D01*
X003886Y002946D01*
X003838Y002963D01*
X003788Y002976D01*
X003737Y002985D01*
X003686Y002991D01*
X003686Y002905D01*
X003733Y002900D01*
X003779Y002891D01*
X003824Y002878D01*
X003868Y002862D01*
X003910Y002842D01*
X003951Y002820D01*
X003990Y002794D01*
X004027Y002765D01*
X004062Y002733D01*
X004094Y002698D01*
X004123Y002661D01*
X004149Y002622D01*
X004171Y002581D01*
X004191Y002539D01*
X004207Y002495D01*
X004220Y002450D01*
X004229Y002404D01*
X004234Y002357D01*
X004149Y002357D01*
X004143Y002401D01*
X004134Y002444D01*
X004120Y002487D01*
X004103Y002528D01*
X004083Y002567D01*
X004059Y002605D01*
X004032Y002640D01*
X004002Y002673D01*
X003969Y002703D01*
X003934Y002730D01*
X003896Y002754D01*
X003857Y002774D01*
X003816Y002791D01*
X003773Y002805D01*
X003730Y002814D01*
X003686Y002820D01*
X003686Y002735D01*
X003724Y002729D01*
X003761Y002720D01*
X003798Y002707D01*
X003833Y002691D01*
X003866Y002672D01*
X003898Y002650D01*
X003928Y002626D01*
X003955Y002599D01*
X003979Y002569D01*
X004001Y002537D01*
X004020Y002504D01*
X004036Y002469D01*
X004049Y002432D01*
X004058Y002395D01*
X004064Y002357D01*
X003978Y002357D01*
X003972Y002390D01*
X003962Y002423D01*
X003950Y002455D01*
X003934Y002485D01*
X003915Y002514D01*
X003893Y002540D01*
X003869Y002564D01*
X003843Y002586D01*
X003814Y002605D01*
X003784Y002621D01*
X003752Y002633D01*
X003719Y002643D01*
X003686Y002649D01*
X002537Y002268D02*
X003350Y002268D01*
X003349Y002267D02*
X003357Y002234D01*
X003367Y002202D01*
X003382Y002171D01*
X003400Y002142D01*
X003421Y002116D01*
X003445Y002092D01*
X003471Y002071D01*
X003500Y002053D01*
X003531Y002038D01*
X003563Y002028D01*
X003596Y002020D01*
X003597Y001208D01*
X003596Y001208D01*
X003530Y001213D01*
X003465Y001221D01*
X003400Y001233D01*
X003337Y001250D01*
X003274Y001270D01*
X003213Y001293D01*
X003153Y001321D01*
X003095Y001352D01*
X003038Y001386D01*
X002984Y001423D01*
X002932Y001464D01*
X002883Y001508D01*
X002837Y001554D01*
X002793Y001603D01*
X002752Y001655D01*
X002715Y001709D01*
X002681Y001766D01*
X002650Y001824D01*
X002622Y001884D01*
X002599Y001945D01*
X002579Y002008D01*
X002562Y002071D01*
X002550Y002136D01*
X002542Y002201D01*
X002537Y002267D01*
X002622Y002267D01*
X002627Y002204D01*
X002635Y002142D01*
X002648Y002080D01*
X002664Y002019D01*
X002684Y001959D01*
X002707Y001901D01*
X002735Y001844D01*
X002765Y001789D01*
X002799Y001736D01*
X002836Y001685D01*
X002877Y001637D01*
X002920Y001591D01*
X002966Y001548D01*
X003014Y001507D01*
X003065Y001470D01*
X003118Y001436D01*
X003173Y001406D01*
X003230Y001378D01*
X003288Y001355D01*
X003348Y001335D01*
X003409Y001319D01*
X003471Y001306D01*
X003533Y001298D01*
X003596Y001293D01*
X003596Y001378D01*
X003536Y001383D01*
X003477Y001392D01*
X003418Y001404D01*
X003361Y001420D01*
X003304Y001440D01*
X003249Y001463D01*
X003195Y001490D01*
X003144Y001520D01*
X003094Y001554D01*
X003046Y001590D01*
X003001Y001630D01*
X002959Y001672D01*
X002919Y001717D01*
X002883Y001765D01*
X002849Y001815D01*
X002819Y001866D01*
X002792Y001920D01*
X002769Y001975D01*
X002749Y002032D01*
X002733Y002089D01*
X002721Y002148D01*
X002712Y002207D01*
X002707Y002267D01*
X002792Y002267D01*
X002797Y002211D01*
X002806Y002155D01*
X002818Y002099D01*
X002834Y002045D01*
X002854Y001992D01*
X002877Y001940D01*
X002903Y001890D01*
X002933Y001842D01*
X002965Y001796D01*
X003001Y001752D01*
X003040Y001711D01*
X003081Y001672D01*
X003125Y001636D01*
X003171Y001604D01*
X003219Y001574D01*
X003269Y001548D01*
X003321Y001525D01*
X003374Y001505D01*
X003428Y001489D01*
X003484Y001477D01*
X003540Y001468D01*
X003596Y001463D01*
X003596Y001548D01*
X003543Y001553D01*
X003491Y001562D01*
X003440Y001574D01*
X003389Y001590D01*
X003340Y001609D01*
X003292Y001631D01*
X003246Y001657D01*
X003201Y001686D01*
X003159Y001718D01*
X003119Y001753D01*
X003082Y001790D01*
X003047Y001830D01*
X003015Y001872D01*
X002986Y001917D01*
X002960Y001963D01*
X002938Y002011D01*
X002919Y002060D01*
X002903Y002111D01*
X002891Y002162D01*
X002882Y002214D01*
X002877Y002267D01*
X002962Y002267D01*
X002968Y002216D01*
X002977Y002165D01*
X002990Y002115D01*
X003007Y002067D01*
X003027Y002019D01*
X003051Y001974D01*
X003078Y001930D01*
X003109Y001889D01*
X003142Y001850D01*
X003179Y001813D01*
X003218Y001780D01*
X003259Y001749D01*
X003303Y001722D01*
X003348Y001698D01*
X003396Y001678D01*
X003444Y001661D01*
X003494Y001648D01*
X003545Y001639D01*
X003596Y001633D01*
X003596Y001719D01*
X003549Y001724D01*
X003503Y001733D01*
X003458Y001746D01*
X003414Y001762D01*
X003372Y001782D01*
X003331Y001804D01*
X003292Y001830D01*
X003255Y001859D01*
X003220Y001891D01*
X003188Y001926D01*
X003159Y001963D01*
X003133Y002002D01*
X003111Y002043D01*
X003091Y002085D01*
X003075Y002129D01*
X003062Y002174D01*
X003053Y002220D01*
X003048Y002267D01*
X003133Y002267D01*
X003139Y002223D01*
X003148Y002180D01*
X003162Y002137D01*
X003179Y002096D01*
X003199Y002057D01*
X003223Y002019D01*
X003250Y001984D01*
X003280Y001951D01*
X003313Y001921D01*
X003348Y001894D01*
X003386Y001870D01*
X003425Y001850D01*
X003466Y001833D01*
X003509Y001819D01*
X003552Y001810D01*
X003596Y001804D01*
X003596Y001889D01*
X003558Y001895D01*
X003521Y001904D01*
X003484Y001917D01*
X003449Y001933D01*
X003416Y001952D01*
X003384Y001974D01*
X003354Y001998D01*
X003327Y002025D01*
X003303Y002055D01*
X003281Y002087D01*
X003262Y002120D01*
X003246Y002155D01*
X003233Y002192D01*
X003224Y002229D01*
X003218Y002267D01*
X003304Y002267D01*
X003310Y002234D01*
X003320Y002201D01*
X003332Y002169D01*
X003348Y002139D01*
X003367Y002110D01*
X003389Y002084D01*
X003413Y002060D01*
X003439Y002038D01*
X003468Y002019D01*
X003498Y002003D01*
X003530Y001991D01*
X003563Y001981D01*
X003596Y001975D01*
X015591Y002355D02*
X014778Y002355D01*
X014779Y002356D02*
X014771Y002389D01*
X014761Y002421D01*
X014746Y002452D01*
X014728Y002481D01*
X014707Y002507D01*
X014683Y002531D01*
X014657Y002552D01*
X014628Y002570D01*
X014597Y002585D01*
X014565Y002595D01*
X014532Y002603D01*
X014531Y003415D01*
X014532Y003415D01*
X014598Y003410D01*
X014663Y003402D01*
X014728Y003390D01*
X014791Y003373D01*
X014854Y003353D01*
X014915Y003330D01*
X014975Y003302D01*
X015033Y003271D01*
X015090Y003237D01*
X015144Y003200D01*
X015196Y003159D01*
X015245Y003115D01*
X015291Y003069D01*
X015335Y003020D01*
X015376Y002968D01*
X015413Y002914D01*
X015447Y002857D01*
X015478Y002799D01*
X015506Y002739D01*
X015529Y002678D01*
X015549Y002615D01*
X015566Y002552D01*
X015578Y002487D01*
X015586Y002422D01*
X015591Y002356D01*
X015506Y002356D01*
X015501Y002419D01*
X015493Y002481D01*
X015480Y002543D01*
X015464Y002604D01*
X015444Y002664D01*
X015421Y002722D01*
X015393Y002779D01*
X015363Y002834D01*
X015329Y002887D01*
X015292Y002938D01*
X015251Y002986D01*
X015208Y003032D01*
X015162Y003075D01*
X015114Y003116D01*
X015063Y003153D01*
X015010Y003187D01*
X014955Y003217D01*
X014898Y003245D01*
X014840Y003268D01*
X014780Y003288D01*
X014719Y003304D01*
X014657Y003317D01*
X014595Y003325D01*
X014532Y003330D01*
X014532Y003245D01*
X014592Y003240D01*
X014651Y003231D01*
X014710Y003219D01*
X014767Y003203D01*
X014824Y003183D01*
X014879Y003160D01*
X014933Y003133D01*
X014984Y003103D01*
X015034Y003069D01*
X015082Y003033D01*
X015127Y002993D01*
X015169Y002951D01*
X015209Y002906D01*
X015245Y002858D01*
X015279Y002808D01*
X015309Y002757D01*
X015336Y002703D01*
X015359Y002648D01*
X015379Y002591D01*
X015395Y002534D01*
X015407Y002475D01*
X015416Y002416D01*
X015421Y002356D01*
X015336Y002356D01*
X015331Y002412D01*
X015322Y002468D01*
X015310Y002524D01*
X015294Y002578D01*
X015274Y002631D01*
X015251Y002683D01*
X015225Y002733D01*
X015195Y002781D01*
X015163Y002827D01*
X015127Y002871D01*
X015088Y002912D01*
X015047Y002951D01*
X015003Y002987D01*
X014957Y003019D01*
X014909Y003049D01*
X014859Y003075D01*
X014807Y003098D01*
X014754Y003118D01*
X014700Y003134D01*
X014644Y003146D01*
X014588Y003155D01*
X014532Y003160D01*
X014532Y003075D01*
X014585Y003070D01*
X014637Y003061D01*
X014688Y003049D01*
X014739Y003033D01*
X014788Y003014D01*
X014836Y002992D01*
X014882Y002966D01*
X014927Y002937D01*
X014969Y002905D01*
X015009Y002870D01*
X015046Y002833D01*
X015081Y002793D01*
X015113Y002751D01*
X015142Y002706D01*
X015168Y002660D01*
X015190Y002612D01*
X015209Y002563D01*
X015225Y002512D01*
X015237Y002461D01*
X015246Y002409D01*
X015251Y002356D01*
X015166Y002356D01*
X015160Y002407D01*
X015151Y002458D01*
X015138Y002508D01*
X015121Y002556D01*
X015101Y002604D01*
X015077Y002649D01*
X015050Y002693D01*
X015019Y002734D01*
X014986Y002773D01*
X014949Y002810D01*
X014910Y002843D01*
X014869Y002874D01*
X014825Y002901D01*
X014780Y002925D01*
X014732Y002945D01*
X014684Y002962D01*
X014634Y002975D01*
X014583Y002984D01*
X014532Y002990D01*
X014532Y002904D01*
X014579Y002899D01*
X014625Y002890D01*
X014670Y002877D01*
X014714Y002861D01*
X014756Y002841D01*
X014797Y002819D01*
X014836Y002793D01*
X014873Y002764D01*
X014908Y002732D01*
X014940Y002697D01*
X014969Y002660D01*
X014995Y002621D01*
X015017Y002580D01*
X015037Y002538D01*
X015053Y002494D01*
X015066Y002449D01*
X015075Y002403D01*
X015080Y002356D01*
X014995Y002356D01*
X014989Y002400D01*
X014980Y002443D01*
X014966Y002486D01*
X014949Y002527D01*
X014929Y002566D01*
X014905Y002604D01*
X014878Y002639D01*
X014848Y002672D01*
X014815Y002702D01*
X014780Y002729D01*
X014742Y002753D01*
X014703Y002773D01*
X014662Y002790D01*
X014619Y002804D01*
X014576Y002813D01*
X014532Y002819D01*
X014532Y002734D01*
X014570Y002728D01*
X014607Y002719D01*
X014644Y002706D01*
X014679Y002690D01*
X014712Y002671D01*
X014744Y002649D01*
X014774Y002625D01*
X014801Y002598D01*
X014825Y002568D01*
X014847Y002536D01*
X014866Y002503D01*
X014882Y002468D01*
X014895Y002431D01*
X014904Y002394D01*
X014910Y002356D01*
X014824Y002356D01*
X014818Y002389D01*
X014808Y002422D01*
X014796Y002454D01*
X014780Y002484D01*
X014761Y002513D01*
X014739Y002539D01*
X014715Y002563D01*
X014689Y002585D01*
X014660Y002604D01*
X014630Y002620D01*
X014598Y002632D01*
X014565Y002642D01*
X014532Y002648D01*
X013383Y002267D02*
X014196Y002267D01*
X014195Y002266D02*
X014203Y002233D01*
X014213Y002201D01*
X014228Y002170D01*
X014246Y002141D01*
X014267Y002115D01*
X014291Y002091D01*
X014317Y002070D01*
X014346Y002052D01*
X014377Y002037D01*
X014409Y002027D01*
X014442Y002019D01*
X014443Y001207D01*
X014442Y001207D01*
X014376Y001212D01*
X014311Y001220D01*
X014246Y001232D01*
X014183Y001249D01*
X014120Y001269D01*
X014059Y001292D01*
X013999Y001320D01*
X013941Y001351D01*
X013884Y001385D01*
X013830Y001422D01*
X013778Y001463D01*
X013729Y001507D01*
X013683Y001553D01*
X013639Y001602D01*
X013598Y001654D01*
X013561Y001708D01*
X013527Y001765D01*
X013496Y001823D01*
X013468Y001883D01*
X013445Y001944D01*
X013425Y002007D01*
X013408Y002070D01*
X013396Y002135D01*
X013388Y002200D01*
X013383Y002266D01*
X013468Y002266D01*
X013473Y002203D01*
X013481Y002141D01*
X013494Y002079D01*
X013510Y002018D01*
X013530Y001958D01*
X013553Y001900D01*
X013581Y001843D01*
X013611Y001788D01*
X013645Y001735D01*
X013682Y001684D01*
X013723Y001636D01*
X013766Y001590D01*
X013812Y001547D01*
X013860Y001506D01*
X013911Y001469D01*
X013964Y001435D01*
X014019Y001405D01*
X014076Y001377D01*
X014134Y001354D01*
X014194Y001334D01*
X014255Y001318D01*
X014317Y001305D01*
X014379Y001297D01*
X014442Y001292D01*
X014442Y001377D01*
X014382Y001382D01*
X014323Y001391D01*
X014264Y001403D01*
X014207Y001419D01*
X014150Y001439D01*
X014095Y001462D01*
X014041Y001489D01*
X013990Y001519D01*
X013940Y001553D01*
X013892Y001589D01*
X013847Y001629D01*
X013805Y001671D01*
X013765Y001716D01*
X013729Y001764D01*
X013695Y001814D01*
X013665Y001865D01*
X013638Y001919D01*
X013615Y001974D01*
X013595Y002031D01*
X013579Y002088D01*
X013567Y002147D01*
X013558Y002206D01*
X013553Y002266D01*
X013638Y002266D01*
X013643Y002210D01*
X013652Y002154D01*
X013664Y002098D01*
X013680Y002044D01*
X013700Y001991D01*
X013723Y001939D01*
X013749Y001889D01*
X013779Y001841D01*
X013811Y001795D01*
X013847Y001751D01*
X013886Y001710D01*
X013927Y001671D01*
X013971Y001635D01*
X014017Y001603D01*
X014065Y001573D01*
X014115Y001547D01*
X014167Y001524D01*
X014220Y001504D01*
X014274Y001488D01*
X014330Y001476D01*
X014386Y001467D01*
X014442Y001462D01*
X014442Y001547D01*
X014389Y001552D01*
X014337Y001561D01*
X014286Y001573D01*
X014235Y001589D01*
X014186Y001608D01*
X014138Y001630D01*
X014092Y001656D01*
X014047Y001685D01*
X014005Y001717D01*
X013965Y001752D01*
X013928Y001789D01*
X013893Y001829D01*
X013861Y001871D01*
X013832Y001916D01*
X013806Y001962D01*
X013784Y002010D01*
X013765Y002059D01*
X013749Y002110D01*
X013737Y002161D01*
X013728Y002213D01*
X013723Y002266D01*
X013808Y002266D01*
X013814Y002215D01*
X013823Y002164D01*
X013836Y002114D01*
X013853Y002066D01*
X013873Y002018D01*
X013897Y001973D01*
X013924Y001929D01*
X013955Y001888D01*
X013988Y001849D01*
X014025Y001812D01*
X014064Y001779D01*
X014105Y001748D01*
X014149Y001721D01*
X014194Y001697D01*
X014242Y001677D01*
X014290Y001660D01*
X014340Y001647D01*
X014391Y001638D01*
X014442Y001632D01*
X014442Y001718D01*
X014395Y001723D01*
X014349Y001732D01*
X014304Y001745D01*
X014260Y001761D01*
X014218Y001781D01*
X014177Y001803D01*
X014138Y001829D01*
X014101Y001858D01*
X014066Y001890D01*
X014034Y001925D01*
X014005Y001962D01*
X013979Y002001D01*
X013957Y002042D01*
X013937Y002084D01*
X013921Y002128D01*
X013908Y002173D01*
X013899Y002219D01*
X013894Y002266D01*
X013979Y002266D01*
X013985Y002222D01*
X013994Y002179D01*
X014008Y002136D01*
X014025Y002095D01*
X014045Y002056D01*
X014069Y002018D01*
X014096Y001983D01*
X014126Y001950D01*
X014159Y001920D01*
X014194Y001893D01*
X014232Y001869D01*
X014271Y001849D01*
X014312Y001832D01*
X014355Y001818D01*
X014398Y001809D01*
X014442Y001803D01*
X014442Y001888D01*
X014404Y001894D01*
X014367Y001903D01*
X014330Y001916D01*
X014295Y001932D01*
X014262Y001951D01*
X014230Y001973D01*
X014200Y001997D01*
X014173Y002024D01*
X014149Y002054D01*
X014127Y002086D01*
X014108Y002119D01*
X014092Y002154D01*
X014079Y002191D01*
X014070Y002228D01*
X014064Y002266D01*
X014150Y002266D01*
X014156Y002233D01*
X014166Y002200D01*
X014178Y002168D01*
X014194Y002138D01*
X014213Y002109D01*
X014235Y002083D01*
X014259Y002059D01*
X014285Y002037D01*
X014314Y002018D01*
X014344Y002002D01*
X014376Y001990D01*
X014409Y001980D01*
X014442Y001974D01*
D30*
X004905Y014026D02*
X004905Y017276D01*
X001305Y017276D01*
X001305Y014026D01*
X004905Y014026D01*
D31*
X004105Y012551D03*
X003105Y012551D03*
X002105Y012551D03*
D32*
X002105Y013226D03*
X003105Y013226D03*
X004105Y013226D03*
M02*
