G75*
G70*
%OFA0B0*%
%FSLAX24Y24*%
%IPPOS*%
%LPD*%
%AMOC8*
5,1,8,0,0,1.08239X$1,22.5*
%
%ADD10C,0.0000*%
%ADD11R,0.0600X0.0600*%
%ADD12OC8,0.0600*%
%ADD13R,0.0630X0.0709*%
%ADD14C,0.0705*%
%ADD15C,0.0560*%
%ADD16OC8,0.0560*%
%ADD17C,0.0560*%
%ADD18C,0.0594*%
%ADD19C,0.1000*%
%ADD20OC8,0.1000*%
%ADD21OC8,0.0630*%
%ADD22C,0.0660*%
%ADD23C,0.0160*%
%ADD24C,0.0317*%
%ADD25C,0.1000*%
%ADD26C,0.0591*%
%ADD27C,0.0500*%
%ADD28C,0.0472*%
%ADD29C,0.0100*%
%ADD30C,0.0356*%
D10*
X000605Y000776D02*
X000605Y020264D01*
X005648Y020264D01*
X005648Y014949D01*
X012341Y014949D01*
X012341Y020264D01*
X015884Y020264D01*
X015884Y000776D01*
X000605Y000776D01*
X003090Y002312D02*
X003092Y002359D01*
X003098Y002405D01*
X003108Y002451D01*
X003121Y002496D01*
X003139Y002539D01*
X003160Y002581D01*
X003184Y002621D01*
X003212Y002658D01*
X003243Y002693D01*
X003277Y002726D01*
X003313Y002755D01*
X003352Y002781D01*
X003393Y002804D01*
X003436Y002823D01*
X003480Y002839D01*
X003525Y002851D01*
X003571Y002859D01*
X003618Y002863D01*
X003664Y002863D01*
X003711Y002859D01*
X003757Y002851D01*
X003802Y002839D01*
X003846Y002823D01*
X003889Y002804D01*
X003930Y002781D01*
X003969Y002755D01*
X004005Y002726D01*
X004039Y002693D01*
X004070Y002658D01*
X004098Y002621D01*
X004122Y002581D01*
X004143Y002539D01*
X004161Y002496D01*
X004174Y002451D01*
X004184Y002405D01*
X004190Y002359D01*
X004192Y002312D01*
X004190Y002265D01*
X004184Y002219D01*
X004174Y002173D01*
X004161Y002128D01*
X004143Y002085D01*
X004122Y002043D01*
X004098Y002003D01*
X004070Y001966D01*
X004039Y001931D01*
X004005Y001898D01*
X003969Y001869D01*
X003930Y001843D01*
X003889Y001820D01*
X003846Y001801D01*
X003802Y001785D01*
X003757Y001773D01*
X003711Y001765D01*
X003664Y001761D01*
X003618Y001761D01*
X003571Y001765D01*
X003525Y001773D01*
X003480Y001785D01*
X003436Y001801D01*
X003393Y001820D01*
X003352Y001843D01*
X003313Y001869D01*
X003277Y001898D01*
X003243Y001931D01*
X003212Y001966D01*
X003184Y002003D01*
X003160Y002043D01*
X003139Y002085D01*
X003121Y002128D01*
X003108Y002173D01*
X003098Y002219D01*
X003092Y002265D01*
X003090Y002312D01*
X013936Y002311D02*
X013938Y002358D01*
X013944Y002404D01*
X013954Y002450D01*
X013967Y002495D01*
X013985Y002538D01*
X014006Y002580D01*
X014030Y002620D01*
X014058Y002657D01*
X014089Y002692D01*
X014123Y002725D01*
X014159Y002754D01*
X014198Y002780D01*
X014239Y002803D01*
X014282Y002822D01*
X014326Y002838D01*
X014371Y002850D01*
X014417Y002858D01*
X014464Y002862D01*
X014510Y002862D01*
X014557Y002858D01*
X014603Y002850D01*
X014648Y002838D01*
X014692Y002822D01*
X014735Y002803D01*
X014776Y002780D01*
X014815Y002754D01*
X014851Y002725D01*
X014885Y002692D01*
X014916Y002657D01*
X014944Y002620D01*
X014968Y002580D01*
X014989Y002538D01*
X015007Y002495D01*
X015020Y002450D01*
X015030Y002404D01*
X015036Y002358D01*
X015038Y002311D01*
X015036Y002264D01*
X015030Y002218D01*
X015020Y002172D01*
X015007Y002127D01*
X014989Y002084D01*
X014968Y002042D01*
X014944Y002002D01*
X014916Y001965D01*
X014885Y001930D01*
X014851Y001897D01*
X014815Y001868D01*
X014776Y001842D01*
X014735Y001819D01*
X014692Y001800D01*
X014648Y001784D01*
X014603Y001772D01*
X014557Y001764D01*
X014510Y001760D01*
X014464Y001760D01*
X014417Y001764D01*
X014371Y001772D01*
X014326Y001784D01*
X014282Y001800D01*
X014239Y001819D01*
X014198Y001842D01*
X014159Y001868D01*
X014123Y001897D01*
X014089Y001930D01*
X014058Y001965D01*
X014030Y002002D01*
X014006Y002042D01*
X013985Y002084D01*
X013967Y002127D01*
X013954Y002172D01*
X013944Y002218D01*
X013938Y002264D01*
X013936Y002311D01*
X002455Y018676D02*
X002457Y018726D01*
X002463Y018776D01*
X002473Y018826D01*
X002486Y018874D01*
X002503Y018922D01*
X002524Y018968D01*
X002548Y019012D01*
X002576Y019054D01*
X002607Y019094D01*
X002641Y019131D01*
X002678Y019166D01*
X002717Y019197D01*
X002758Y019226D01*
X002802Y019251D01*
X002848Y019273D01*
X002895Y019291D01*
X002943Y019305D01*
X002992Y019316D01*
X003042Y019323D01*
X003092Y019326D01*
X003143Y019325D01*
X003193Y019320D01*
X003243Y019311D01*
X003291Y019299D01*
X003339Y019282D01*
X003385Y019262D01*
X003430Y019239D01*
X003473Y019212D01*
X003513Y019182D01*
X003551Y019149D01*
X003586Y019113D01*
X003619Y019074D01*
X003648Y019033D01*
X003674Y018990D01*
X003697Y018945D01*
X003716Y018898D01*
X003731Y018850D01*
X003743Y018801D01*
X003751Y018751D01*
X003755Y018701D01*
X003755Y018651D01*
X003751Y018601D01*
X003743Y018551D01*
X003731Y018502D01*
X003716Y018454D01*
X003697Y018407D01*
X003674Y018362D01*
X003648Y018319D01*
X003619Y018278D01*
X003586Y018239D01*
X003551Y018203D01*
X003513Y018170D01*
X003473Y018140D01*
X003430Y018113D01*
X003385Y018090D01*
X003339Y018070D01*
X003291Y018053D01*
X003243Y018041D01*
X003193Y018032D01*
X003143Y018027D01*
X003092Y018026D01*
X003042Y018029D01*
X002992Y018036D01*
X002943Y018047D01*
X002895Y018061D01*
X002848Y018079D01*
X002802Y018101D01*
X002758Y018126D01*
X002717Y018155D01*
X002678Y018186D01*
X002641Y018221D01*
X002607Y018258D01*
X002576Y018298D01*
X002548Y018340D01*
X002524Y018384D01*
X002503Y018430D01*
X002486Y018478D01*
X002473Y018526D01*
X002463Y018576D01*
X002457Y018626D01*
X002455Y018676D01*
D11*
X013062Y004674D03*
D12*
X013062Y005674D03*
X014062Y005674D03*
X014062Y004674D03*
X015062Y004674D03*
X015062Y005674D03*
D13*
X006883Y014365D03*
X005780Y014365D03*
X005234Y012932D03*
X006337Y012932D03*
D14*
X004665Y010784D02*
X003960Y010784D01*
X003960Y008815D02*
X004665Y008815D01*
D15*
X011239Y002666D03*
D16*
X011239Y001666D03*
X010239Y001666D03*
X010239Y002666D03*
X009239Y002666D03*
X009239Y001666D03*
X008239Y001666D03*
X008239Y002666D03*
X007239Y002666D03*
X007239Y001666D03*
D17*
X009227Y005340D02*
X009227Y005900D01*
X010227Y005900D02*
X010227Y005340D01*
X007332Y008776D02*
X006772Y008776D01*
X006772Y009776D02*
X007332Y009776D01*
X007332Y010776D02*
X006772Y010776D01*
D18*
X014002Y011273D02*
X014596Y011273D01*
X014596Y010273D02*
X014002Y010273D01*
X014002Y009273D02*
X014596Y009273D01*
X014596Y008273D02*
X014002Y008273D01*
D19*
X009302Y011776D03*
D20*
X009302Y013776D03*
D21*
X012715Y010526D03*
D22*
X004105Y012446D02*
X004105Y013106D01*
X003105Y013106D02*
X003105Y012446D01*
X002105Y012446D02*
X002105Y013106D01*
D23*
X002105Y012776D02*
X002105Y011776D01*
X002355Y011526D01*
X003355Y011526D01*
X005105Y011526D01*
X006042Y012464D01*
X006355Y012464D01*
X006355Y012932D01*
X006337Y012932D01*
X006355Y012464D02*
X006855Y012464D01*
X006862Y012456D01*
X006868Y012462D01*
X006862Y012456D02*
X009115Y012456D01*
X009302Y012269D01*
X009302Y011776D01*
X009458Y010995D02*
X010427Y010995D01*
X011105Y010276D02*
X012230Y010276D01*
X012480Y010526D01*
X012715Y010526D01*
X013480Y010276D02*
X012750Y009546D01*
X011482Y009546D01*
X011087Y009151D01*
X009927Y009151D01*
X010355Y009526D02*
X011105Y010276D01*
X011864Y008964D02*
X011864Y008964D01*
X011927Y008964D01*
X013114Y007776D01*
X013302Y007776D01*
X013802Y007276D01*
X013802Y006964D01*
X014552Y006214D01*
X014552Y005151D01*
X015029Y004674D01*
X015062Y004674D01*
X014062Y005674D02*
X013522Y006214D01*
X012677Y006214D01*
X012489Y006026D01*
X011677Y006026D01*
X012029Y005111D02*
X011262Y005111D01*
X009927Y003776D01*
X008739Y003776D01*
X008239Y003276D01*
X008239Y002863D01*
X008239Y002666D01*
X009239Y002666D02*
X009239Y002963D01*
X009677Y003401D01*
X010239Y003401D01*
X010927Y004089D01*
X011677Y004089D01*
X012552Y004964D01*
X012552Y005182D01*
X013062Y005674D02*
X013217Y005486D01*
X013552Y005151D01*
X013552Y004151D01*
X012302Y004151D01*
X011677Y003589D02*
X011864Y003401D01*
X011864Y002267D01*
X011739Y002142D01*
X009714Y002142D01*
X009239Y001666D01*
X010239Y002666D02*
X010388Y002666D01*
X011114Y003392D01*
X011114Y003392D01*
X011239Y001862D02*
X011239Y001666D01*
X011239Y001862D02*
X011239Y001214D01*
X011114Y001089D01*
X005364Y001089D01*
X005177Y001276D01*
X005184Y002305D01*
X003739Y004223D02*
X003739Y004223D01*
X003302Y004223D01*
X003281Y004187D02*
X003184Y004283D01*
X003179Y004294D01*
X003175Y004298D01*
X003175Y005880D01*
X003209Y005914D01*
X003273Y006068D01*
X003273Y006234D01*
X003209Y006388D01*
X003092Y006505D01*
X002938Y006569D01*
X002772Y006569D01*
X002618Y006505D01*
X002500Y006388D01*
X002437Y006234D01*
X002437Y006068D01*
X002500Y005914D01*
X002535Y005880D01*
X002535Y004202D01*
X002531Y004190D01*
X002535Y004139D01*
X002535Y004087D01*
X002539Y004076D01*
X002540Y004064D01*
X002564Y004017D01*
X002583Y003970D01*
X002592Y003961D01*
X002598Y003950D01*
X002637Y003916D01*
X002673Y003880D01*
X002685Y003875D01*
X002704Y003859D01*
X002828Y003735D01*
X002821Y003732D01*
X002821Y003732D01*
X002438Y003427D01*
X002163Y003023D01*
X002019Y002556D01*
X002019Y002067D01*
X002163Y001600D01*
X002438Y001196D01*
X002438Y001196D01*
X002664Y001016D01*
X000845Y001016D01*
X000845Y012401D01*
X001535Y012401D01*
X001535Y012333D01*
X001621Y012123D01*
X001782Y011963D01*
X001785Y011962D01*
X001785Y011712D01*
X001833Y011595D01*
X001923Y011505D01*
X002173Y011255D01*
X002291Y011206D01*
X002418Y011206D01*
X003035Y011206D01*
X003035Y010465D01*
X003035Y010337D01*
X003083Y010220D01*
X003355Y009949D01*
X003355Y004187D01*
X003281Y004187D01*
X003355Y004264D02*
X003204Y004264D01*
X003175Y004423D02*
X003355Y004423D01*
X003355Y004581D02*
X003175Y004581D01*
X003175Y004740D02*
X003355Y004740D01*
X003355Y004898D02*
X003175Y004898D01*
X003175Y005057D02*
X003355Y005057D01*
X003355Y005215D02*
X003175Y005215D01*
X003175Y005374D02*
X003355Y005374D01*
X003355Y005532D02*
X003175Y005532D01*
X003175Y005691D02*
X003355Y005691D01*
X003355Y005849D02*
X003175Y005849D01*
X003248Y006008D02*
X003355Y006008D01*
X003355Y006167D02*
X003273Y006167D01*
X003235Y006325D02*
X003355Y006325D01*
X003355Y006484D02*
X003113Y006484D01*
X003355Y006642D02*
X000845Y006642D01*
X000845Y006484D02*
X002596Y006484D01*
X002474Y006325D02*
X000845Y006325D01*
X000845Y006167D02*
X002437Y006167D01*
X002461Y006008D02*
X000845Y006008D01*
X000845Y005849D02*
X002535Y005849D01*
X002535Y005691D02*
X000845Y005691D01*
X000845Y005532D02*
X002535Y005532D01*
X002535Y005374D02*
X000845Y005374D01*
X000845Y005215D02*
X002535Y005215D01*
X002535Y005057D02*
X000845Y005057D01*
X000845Y004898D02*
X002535Y004898D01*
X002535Y004740D02*
X000845Y004740D01*
X000845Y004581D02*
X002535Y004581D01*
X002535Y004423D02*
X000845Y004423D01*
X000845Y004264D02*
X002535Y004264D01*
X002535Y004105D02*
X000845Y004105D01*
X000845Y003947D02*
X002601Y003947D01*
X002774Y003788D02*
X000845Y003788D01*
X000845Y003630D02*
X002693Y003630D01*
X002494Y003471D02*
X000845Y003471D01*
X000845Y003313D02*
X002360Y003313D01*
X002438Y003427D02*
X002438Y003427D01*
X002252Y003154D02*
X000845Y003154D01*
X000845Y002996D02*
X002154Y002996D01*
X002163Y003023D02*
X002163Y003023D01*
X002106Y002837D02*
X000845Y002837D01*
X000845Y002679D02*
X002057Y002679D01*
X002019Y002556D02*
X002019Y002556D01*
X002019Y002520D02*
X000845Y002520D01*
X000845Y002361D02*
X002019Y002361D01*
X002019Y002203D02*
X000845Y002203D01*
X000845Y002044D02*
X002026Y002044D01*
X002019Y002067D02*
X002019Y002067D01*
X002075Y001886D02*
X000845Y001886D01*
X000845Y001727D02*
X002124Y001727D01*
X002163Y001600D02*
X002163Y001600D01*
X002184Y001569D02*
X000845Y001569D01*
X000845Y001410D02*
X002292Y001410D01*
X002400Y001252D02*
X000845Y001252D01*
X000845Y001093D02*
X002568Y001093D01*
X005185Y002305D02*
X005183Y002382D01*
X005177Y002458D01*
X005168Y002534D01*
X005155Y002610D01*
X005138Y002685D01*
X005118Y002759D01*
X005094Y002832D01*
X005066Y002903D01*
X005035Y002973D01*
X005000Y003042D01*
X004963Y003109D01*
X004922Y003173D01*
X004877Y003236D01*
X004830Y003297D01*
X004780Y003355D01*
X004727Y003410D01*
X004672Y003463D01*
X004614Y003513D01*
X004553Y003560D01*
X004490Y003605D01*
X004426Y003646D01*
X004359Y003683D01*
X004290Y003718D01*
X004220Y003749D01*
X004149Y003777D01*
X004076Y003801D01*
X004002Y003821D01*
X003927Y003838D01*
X003851Y003851D01*
X003775Y003860D01*
X003699Y003866D01*
X003622Y003868D01*
X003622Y003867D02*
X003148Y003867D01*
X002922Y004093D01*
X002855Y004151D01*
X002855Y006151D01*
X003355Y006801D02*
X000845Y006801D01*
X000845Y006959D02*
X003355Y006959D01*
X003355Y007118D02*
X000845Y007118D01*
X000845Y007276D02*
X003355Y007276D01*
X003355Y007435D02*
X000845Y007435D01*
X000845Y007593D02*
X003355Y007593D01*
X003355Y007752D02*
X000845Y007752D01*
X000845Y007911D02*
X003355Y007911D01*
X003355Y008069D02*
X000845Y008069D01*
X000845Y008228D02*
X003355Y008228D01*
X003355Y008386D02*
X000845Y008386D01*
X000845Y008545D02*
X003355Y008545D01*
X003355Y008703D02*
X000845Y008703D01*
X000845Y008862D02*
X003355Y008862D01*
X003355Y009020D02*
X000845Y009020D01*
X000845Y009179D02*
X003355Y009179D01*
X003355Y009337D02*
X000845Y009337D01*
X000845Y009496D02*
X003355Y009496D01*
X003355Y009654D02*
X000845Y009654D01*
X000845Y009813D02*
X003355Y009813D01*
X003332Y009972D02*
X000845Y009972D01*
X000845Y010130D02*
X003173Y010130D01*
X003055Y010289D02*
X000845Y010289D01*
X000845Y010401D02*
X000845Y020024D01*
X005408Y020024D01*
X005408Y014902D01*
X005412Y014892D01*
X005396Y014887D01*
X005355Y014864D01*
X005321Y014830D01*
X005298Y014789D01*
X005285Y014743D01*
X005285Y014443D01*
X005605Y014443D01*
X005605Y014288D01*
X005285Y014288D01*
X005285Y013987D01*
X005290Y013971D01*
X004291Y013971D01*
X004173Y013922D01*
X004083Y013832D01*
X003923Y013672D01*
X003882Y013631D01*
X003782Y013589D01*
X003621Y013429D01*
X003573Y013311D01*
X003541Y013373D01*
X003494Y013438D01*
X003437Y013495D01*
X003372Y013542D01*
X003300Y013579D01*
X003224Y013603D01*
X003145Y013616D01*
X003135Y013616D01*
X003135Y012806D01*
X003075Y012806D01*
X003075Y013616D01*
X003065Y013616D01*
X002985Y013603D01*
X002909Y013579D01*
X002837Y013542D01*
X002772Y013495D01*
X002716Y013438D01*
X002669Y013373D01*
X002637Y013311D01*
X002588Y013429D01*
X002428Y013589D01*
X002218Y013676D01*
X001991Y013676D01*
X001782Y013589D01*
X001621Y013429D01*
X001535Y013219D01*
X001535Y012333D01*
X001621Y012123D01*
X001782Y011963D01*
X001785Y011962D01*
X001785Y011712D01*
X001833Y011595D01*
X001923Y011505D01*
X002173Y011255D01*
X002291Y011206D01*
X002418Y011206D01*
X003035Y011206D01*
X003035Y010465D01*
X003035Y010401D01*
X000845Y010401D01*
X000845Y010447D02*
X003035Y010447D01*
X000845Y010447D01*
X000845Y010606D02*
X003035Y010606D01*
X000845Y010606D01*
X000845Y010764D02*
X003035Y010764D01*
X000845Y010764D01*
X000845Y010923D02*
X003035Y010923D01*
X000845Y010923D01*
X000845Y011081D02*
X003035Y011081D01*
X000845Y011081D01*
X000845Y011240D02*
X002209Y011240D01*
X000845Y011240D01*
X000845Y011398D02*
X002030Y011398D01*
X000845Y011398D01*
X000845Y011557D02*
X001871Y011557D01*
X000845Y011557D01*
X000845Y011716D02*
X001785Y011716D01*
X000845Y011716D01*
X000845Y011874D02*
X001785Y011874D01*
X000845Y011874D01*
X000845Y012033D02*
X001712Y012033D01*
X000845Y012033D01*
X000845Y012191D02*
X001593Y012191D01*
X000845Y012191D01*
X000845Y012350D02*
X001535Y012350D01*
X000845Y012350D01*
X000845Y012508D02*
X001535Y012508D01*
X001535Y012667D02*
X000845Y012667D01*
X000845Y012825D02*
X001535Y012825D01*
X001535Y012984D02*
X000845Y012984D01*
X000845Y013142D02*
X001535Y013142D01*
X001569Y013301D02*
X000845Y013301D01*
X000845Y013460D02*
X001652Y013460D01*
X001851Y013618D02*
X000845Y013618D01*
X000845Y013777D02*
X004028Y013777D01*
X004083Y013832D02*
X004083Y013832D01*
X004204Y013935D02*
X000845Y013935D01*
X000845Y014094D02*
X005285Y014094D01*
X005285Y014252D02*
X000845Y014252D01*
X000845Y014411D02*
X005605Y014411D01*
X005285Y014569D02*
X000845Y014569D01*
X000845Y014728D02*
X005285Y014728D01*
X005394Y014886D02*
X000845Y014886D01*
X000845Y015045D02*
X005408Y015045D01*
X005408Y015204D02*
X000845Y015204D01*
X000845Y015362D02*
X005408Y015362D01*
X005408Y015521D02*
X000845Y015521D01*
X000845Y015679D02*
X005408Y015679D01*
X005408Y015838D02*
X000845Y015838D01*
X000845Y015996D02*
X005408Y015996D01*
X005408Y016155D02*
X000845Y016155D01*
X000845Y016313D02*
X005408Y016313D01*
X005408Y016472D02*
X000845Y016472D01*
X000845Y016630D02*
X005408Y016630D01*
X005408Y016789D02*
X000845Y016789D01*
X000845Y016947D02*
X005408Y016947D01*
X005408Y017106D02*
X000845Y017106D01*
X000845Y017265D02*
X005408Y017265D01*
X005408Y017423D02*
X000845Y017423D01*
X000845Y017582D02*
X002520Y017582D01*
X002626Y017521D02*
X002343Y017684D01*
X002112Y017915D01*
X001949Y018197D01*
X001865Y018513D01*
X001865Y018839D01*
X001949Y019155D01*
X002112Y019437D01*
X002343Y019668D01*
X002626Y019832D01*
X002941Y019916D01*
X003268Y019916D01*
X003583Y019832D01*
X003866Y019668D01*
X004097Y019437D01*
X004260Y019155D01*
X004345Y018839D01*
X004345Y018513D01*
X004260Y018197D01*
X004097Y017915D01*
X003866Y017684D01*
X003583Y017521D01*
X003268Y017436D01*
X002941Y017436D01*
X002626Y017521D01*
X002287Y017740D02*
X000845Y017740D01*
X000845Y017899D02*
X002128Y017899D01*
X002030Y018057D02*
X000845Y018057D01*
X000845Y018216D02*
X001944Y018216D01*
X001902Y018374D02*
X000845Y018374D01*
X000845Y018533D02*
X001865Y018533D01*
X001865Y018691D02*
X000845Y018691D01*
X000845Y018850D02*
X001868Y018850D01*
X001910Y019009D02*
X000845Y019009D01*
X000845Y019167D02*
X001956Y019167D01*
X002048Y019326D02*
X000845Y019326D01*
X000845Y019484D02*
X002159Y019484D01*
X002318Y019643D02*
X000845Y019643D01*
X000845Y019801D02*
X002574Y019801D01*
X003636Y019801D02*
X005408Y019801D01*
X005408Y019643D02*
X003892Y019643D01*
X004050Y019484D02*
X005408Y019484D01*
X005408Y019326D02*
X004161Y019326D01*
X004253Y019167D02*
X005408Y019167D01*
X005408Y019009D02*
X004299Y019009D01*
X004342Y018850D02*
X005408Y018850D01*
X005408Y018691D02*
X004345Y018691D01*
X004345Y018533D02*
X005408Y018533D01*
X005408Y018374D02*
X004308Y018374D01*
X004265Y018216D02*
X005408Y018216D01*
X005408Y018057D02*
X004179Y018057D01*
X004081Y017899D02*
X005408Y017899D01*
X005408Y017740D02*
X003922Y017740D01*
X003689Y017582D02*
X005408Y017582D01*
X005408Y019960D02*
X000845Y019960D01*
X002358Y013618D02*
X003851Y013618D01*
X004105Y013401D02*
X004105Y012776D01*
X004105Y013401D02*
X004355Y013651D01*
X006855Y013651D01*
X007605Y013651D01*
X007855Y013401D01*
X007855Y012901D01*
X007980Y012776D01*
X009511Y012776D01*
X009730Y012557D01*
X009989Y012557D01*
X010052Y012901D02*
X009802Y013151D01*
X009239Y013151D01*
X008792Y013151D01*
X007636Y014307D01*
X007636Y014495D01*
X006972Y014276D02*
X006883Y014365D01*
X006855Y014337D01*
X006855Y013651D01*
X006302Y012079D02*
X006302Y011776D01*
X005524Y012398D02*
X004972Y011846D01*
X003418Y011846D01*
X002487Y011846D01*
X002425Y011909D01*
X002425Y011962D01*
X002428Y011963D01*
X002588Y012123D01*
X002637Y012241D01*
X002669Y012179D01*
X002716Y012114D01*
X002772Y012057D01*
X002837Y012010D01*
X002909Y011973D01*
X002985Y011949D01*
X003065Y011936D01*
X003075Y011936D01*
X003075Y012401D01*
X003135Y012401D01*
X003135Y011936D01*
X003145Y011936D01*
X003224Y011949D01*
X003300Y011973D01*
X003355Y012001D01*
X003355Y011846D01*
X002487Y011846D01*
X002425Y011909D01*
X002425Y011962D01*
X002428Y011963D01*
X002588Y012123D01*
X002637Y012241D01*
X002669Y012179D01*
X002716Y012114D01*
X002772Y012057D01*
X002837Y012010D01*
X002909Y011973D01*
X002985Y011949D01*
X003065Y011936D01*
X003075Y011936D01*
X003075Y012746D01*
X003135Y012746D01*
X003135Y011936D01*
X003145Y011936D01*
X003224Y011949D01*
X003300Y011973D01*
X003372Y012010D01*
X003437Y012057D01*
X003494Y012114D01*
X003541Y012179D01*
X003573Y012241D01*
X003621Y012123D01*
X003782Y011963D01*
X003991Y011876D01*
X004218Y011876D01*
X004428Y011963D01*
X004588Y012123D01*
X004675Y012333D01*
X004675Y013219D01*
X004628Y013331D01*
X004745Y013331D01*
X004739Y013311D01*
X004739Y013010D01*
X005157Y013010D01*
X005157Y012855D01*
X005312Y012855D01*
X005312Y012398D01*
X005524Y012398D01*
X005476Y012350D02*
X004675Y012350D01*
X004775Y012468D02*
X004809Y012434D01*
X004850Y012410D01*
X004896Y012398D01*
X005157Y012398D01*
X005157Y012855D01*
X004739Y012855D01*
X004739Y012554D01*
X004752Y012509D01*
X004775Y012468D01*
X004752Y012508D02*
X004675Y012508D01*
X004675Y012667D02*
X004739Y012667D01*
X004739Y012825D02*
X004675Y012825D01*
X004675Y012984D02*
X005157Y012984D01*
X005157Y012825D02*
X005312Y012825D01*
X005312Y012667D02*
X005157Y012667D01*
X005157Y012508D02*
X005312Y012508D01*
X005317Y012191D02*
X004616Y012191D01*
X004497Y012033D02*
X005159Y012033D01*
X005000Y011874D02*
X002459Y011874D01*
X003355Y011874D01*
X003403Y012033D02*
X003712Y012033D01*
X003593Y012191D02*
X003547Y012191D01*
X003135Y012191D02*
X003075Y012191D01*
X003135Y012191D01*
X003135Y012033D02*
X003075Y012033D01*
X003135Y012033D01*
X003135Y012350D02*
X003075Y012350D01*
X003135Y012350D01*
X003135Y012508D02*
X003075Y012508D01*
X003075Y012667D02*
X003135Y012667D01*
X003135Y012825D02*
X003075Y012825D01*
X003075Y012984D02*
X003135Y012984D01*
X003135Y013142D02*
X003075Y013142D01*
X003075Y013301D02*
X003135Y013301D01*
X003135Y013460D02*
X003075Y013460D01*
X002737Y013460D02*
X002557Y013460D01*
X003472Y013460D02*
X003652Y013460D01*
X002662Y012191D02*
X002616Y012191D01*
X002662Y012191D01*
X002806Y012033D02*
X002497Y012033D01*
X002806Y012033D01*
X003355Y011526D02*
X003355Y010401D01*
X003980Y009776D01*
X005605Y009776D01*
X006605Y008776D01*
X007052Y008776D01*
X007427Y007776D02*
X009227Y005975D01*
X009227Y005620D01*
X009230Y006526D02*
X009230Y007401D01*
X008730Y007901D01*
X008730Y009401D01*
X009355Y010026D01*
X009114Y010651D02*
X009458Y010995D01*
X009114Y010651D02*
X008614Y010151D01*
X008177Y009714D01*
X008177Y009714D01*
X008177Y008526D01*
X007427Y007776D01*
X006052Y007776D01*
X005552Y007276D01*
X003739Y004223D02*
X003739Y004223D01*
X002922Y004093D02*
X002864Y004151D01*
X003739Y004224D02*
X003829Y004217D01*
X003920Y004206D01*
X004009Y004191D01*
X004098Y004172D01*
X004186Y004148D01*
X004272Y004120D01*
X004357Y004088D01*
X004441Y004052D01*
X004522Y004012D01*
X004602Y003969D01*
X004680Y003921D01*
X004755Y003870D01*
X004827Y003816D01*
X004897Y003758D01*
X004964Y003697D01*
X005029Y003632D01*
X005090Y003565D01*
X005147Y003495D01*
X005202Y003422D01*
X005253Y003347D01*
X005300Y003269D01*
X005343Y003189D01*
X005383Y003107D01*
X005418Y003024D01*
X005450Y002939D01*
X005478Y002852D01*
X005501Y002764D01*
X005520Y002675D01*
X005535Y002586D01*
X005546Y002495D01*
X005552Y002405D01*
X005554Y002314D01*
X005552Y002223D01*
X007230Y002675D02*
X007239Y002666D01*
X007230Y002675D02*
X007230Y003276D01*
X008230Y004276D01*
X008230Y005901D01*
X009727Y006639D02*
X009727Y004314D01*
X009727Y006639D02*
X010427Y007339D01*
X010427Y007401D01*
X010302Y008401D02*
X010489Y008526D01*
X011614Y008526D01*
X013480Y010276D02*
X014296Y010276D01*
X014299Y010273D01*
X011427Y012901D02*
X010614Y012901D01*
X010614Y012557D01*
X010614Y012901D02*
X010052Y012901D01*
X009302Y013214D02*
X009302Y013776D01*
X009302Y013214D02*
X009239Y013151D01*
X008552Y010776D02*
X007052Y010776D01*
X004739Y013142D02*
X004675Y013142D01*
X004641Y013301D02*
X004739Y013301D01*
D24*
X007636Y014495D03*
X009989Y012557D03*
X010614Y012557D03*
X011427Y012901D03*
X010427Y010995D03*
X009927Y009151D03*
X010302Y008401D03*
X010427Y007401D03*
X011614Y008526D03*
X011864Y008964D03*
X011677Y006026D03*
X012029Y005111D03*
X012552Y005182D03*
X012302Y004151D03*
X011677Y003589D03*
X011114Y003392D03*
X009727Y004314D03*
X007427Y007776D03*
X008614Y010151D03*
X008552Y010776D03*
X005552Y007276D03*
X005552Y002223D03*
D25*
X005309Y010784D02*
X004312Y010784D01*
X005309Y010784D02*
X006302Y011776D01*
X009302Y011776D01*
X013796Y011776D01*
X014299Y011273D01*
X014952Y012676D02*
X013802Y013776D01*
X009302Y013776D01*
D26*
X012971Y015343D03*
X012971Y016130D03*
X012971Y016918D03*
X012971Y017705D03*
X012971Y018493D03*
X012971Y019280D03*
X013758Y019280D03*
X013758Y018493D03*
X014546Y018493D03*
X014546Y019280D03*
X015333Y019280D03*
X015333Y018493D03*
X015333Y017705D03*
X015333Y016918D03*
X015333Y016130D03*
X015333Y015343D03*
X014546Y015343D03*
X013758Y015343D03*
X013758Y017705D03*
X014546Y017705D03*
X014952Y012676D03*
D27*
X015302Y012276D01*
X015302Y008276D01*
X014302Y008276D01*
D28*
X005164Y014362D03*
X005164Y014862D03*
X005164Y015362D03*
X005164Y015862D03*
X005164Y016362D03*
X005164Y016862D03*
X005164Y017362D03*
X005164Y017862D03*
X005164Y018362D03*
X005164Y018862D03*
X005164Y019362D03*
X005164Y019862D03*
X004664Y019862D03*
X004164Y019862D03*
X004664Y019362D03*
X004664Y018862D03*
X004664Y018362D03*
X004664Y017862D03*
X004664Y017362D03*
X004664Y016862D03*
X004164Y016862D03*
X004164Y017362D03*
X003664Y017362D03*
X003664Y016862D03*
X003664Y016362D03*
X003664Y015862D03*
X003664Y015362D03*
X003664Y014862D03*
X003664Y014362D03*
X003101Y014362D03*
X003101Y014862D03*
X003101Y015362D03*
X003101Y015862D03*
X003101Y016362D03*
X003101Y016862D03*
X002539Y016862D03*
X002539Y017362D03*
X002039Y017362D03*
X002039Y016862D03*
X001539Y016862D03*
X001539Y017362D03*
X001539Y017862D03*
X001539Y018362D03*
X001539Y018862D03*
X001539Y019362D03*
X001539Y019862D03*
X002039Y019862D03*
X001039Y019862D03*
X001039Y019362D03*
X001039Y018862D03*
X001039Y018362D03*
X001039Y017862D03*
X001039Y017362D03*
X001039Y016862D03*
X001039Y016362D03*
X001039Y015862D03*
X001039Y015362D03*
X001539Y015362D03*
X001539Y015862D03*
X001539Y016362D03*
X002039Y016362D03*
X002039Y015862D03*
X002039Y015362D03*
X002539Y015362D03*
X002539Y015862D03*
X002539Y016362D03*
X002539Y014862D03*
X002539Y014362D03*
X002039Y014362D03*
X002039Y014862D03*
X001539Y014862D03*
X001539Y014362D03*
X001039Y014362D03*
X001039Y014862D03*
X004164Y014862D03*
X004164Y014362D03*
X004664Y014362D03*
X004664Y014862D03*
X004664Y015362D03*
X004664Y015862D03*
X004664Y016362D03*
X004164Y016362D03*
X004164Y015862D03*
X004164Y015362D03*
D29*
X012551Y015360D02*
X015674Y015360D01*
X015674Y015262D02*
X012551Y015262D01*
X012551Y015163D02*
X015674Y015163D01*
X015674Y015065D02*
X012551Y015065D01*
X012551Y015036D02*
X012551Y020054D01*
X015674Y020054D01*
X015674Y014949D01*
X012551Y014949D01*
X012551Y015036D01*
X012551Y014966D02*
X015674Y014966D01*
X015674Y015459D02*
X012551Y015459D01*
X012551Y015558D02*
X015674Y015558D01*
X015674Y015656D02*
X012551Y015656D01*
X012551Y015755D02*
X015674Y015755D01*
X015674Y015853D02*
X012551Y015853D01*
X012551Y015952D02*
X015674Y015952D01*
X015674Y016050D02*
X012551Y016050D01*
X012551Y016149D02*
X015674Y016149D01*
X015674Y016247D02*
X012551Y016247D01*
X012551Y016346D02*
X015674Y016346D01*
X015674Y016444D02*
X012551Y016444D01*
X012551Y016543D02*
X015674Y016543D01*
X015674Y016642D02*
X012551Y016642D01*
X012551Y016740D02*
X015674Y016740D01*
X015674Y016839D02*
X012551Y016839D01*
X012551Y016937D02*
X015674Y016937D01*
X015674Y017036D02*
X012551Y017036D01*
X012551Y017134D02*
X015674Y017134D01*
X015674Y017233D02*
X012551Y017233D01*
X012551Y017331D02*
X015674Y017331D01*
X015674Y017430D02*
X012551Y017430D01*
X012551Y017528D02*
X015674Y017528D01*
X015674Y017627D02*
X012551Y017627D01*
X012551Y017726D02*
X015674Y017726D01*
X015674Y017824D02*
X012551Y017824D01*
X012551Y017923D02*
X015674Y017923D01*
X015674Y018021D02*
X012551Y018021D01*
X012551Y018120D02*
X015674Y018120D01*
X015674Y018218D02*
X012551Y018218D01*
X012551Y018317D02*
X015674Y018317D01*
X015674Y018415D02*
X012551Y018415D01*
X012551Y018514D02*
X015674Y018514D01*
X015674Y018612D02*
X012551Y018612D01*
X012551Y018711D02*
X015674Y018711D01*
X015674Y018809D02*
X012551Y018809D01*
X012551Y018908D02*
X015674Y018908D01*
X015674Y019007D02*
X012551Y019007D01*
X012551Y019105D02*
X015674Y019105D01*
X015674Y019204D02*
X012551Y019204D01*
X012551Y019302D02*
X015674Y019302D01*
X015674Y019401D02*
X012551Y019401D01*
X012551Y019499D02*
X015674Y019499D01*
X015674Y019598D02*
X012551Y019598D01*
X012551Y019696D02*
X015674Y019696D01*
X015674Y019795D02*
X012551Y019795D01*
X012551Y019893D02*
X015674Y019893D01*
X015674Y019992D02*
X012551Y019992D01*
D30*
X009355Y010026D03*
X010355Y009526D03*
X009230Y006526D03*
X008230Y005901D03*
X002855Y006151D03*
M02*
