G75*
G70*
%OFA0B0*%
%FSLAX24Y24*%
%IPPOS*%
%LPD*%
%AMOC8*
5,1,8,0,0,1.08239X$1,22.5*
%
%ADD10C,0.0000*%
%ADD11R,0.0010X0.0080*%
%ADD12R,0.0010X0.0120*%
%ADD13R,0.0010X0.0150*%
%ADD14R,0.0010X0.0180*%
%ADD15R,0.0010X0.0200*%
%ADD16R,0.0010X0.0090*%
%ADD17R,0.0010X0.0070*%
%ADD18R,0.0010X0.0060*%
%ADD19R,0.0010X0.0050*%
%ADD20R,0.0010X0.0040*%
%ADD21R,0.0010X0.0030*%
%ADD22R,0.0010X0.0250*%
%ADD23R,0.0010X0.0100*%
%ADD24R,0.0010X0.0600*%
%ADD25R,0.0010X0.0310*%
%ADD26R,0.0010X0.0450*%
%ADD27R,0.0010X0.0130*%
%ADD28R,0.0010X0.0110*%
%ADD29R,0.0010X0.0390*%
%ADD30R,0.0010X0.0480*%
%ADD31R,0.0010X0.0140*%
%ADD32R,0.0010X0.0370*%
%ADD33R,0.0010X0.0440*%
%ADD34R,0.0010X0.0500*%
%ADD35R,0.0010X0.0190*%
%ADD36R,0.0010X0.0230*%
%ADD37R,0.0010X0.0410*%
%ADD38R,0.0010X0.0170*%
%ADD39R,0.0010X0.0160*%
%ADD40R,0.0010X0.0470*%
%ADD41R,0.0010X0.0520*%
%ADD42R,0.0010X0.0270*%
%ADD43R,0.0010X0.0290*%
%ADD44R,0.0010X0.0510*%
%ADD45R,0.0010X0.0330*%
%ADD46R,0.0010X0.0350*%
%ADD47R,0.0010X0.0490*%
%ADD48R,0.0010X0.0380*%
%ADD49R,0.0010X0.0430*%
%ADD50R,0.0010X0.0420*%
%ADD51R,0.0010X0.0550*%
%ADD52R,0.0010X0.0210*%
%ADD53R,0.0010X0.0010*%
%ADD54R,0.0010X0.0570*%
%ADD55R,0.0010X0.0220*%
%ADD56R,0.0010X0.0630*%
%ADD57R,0.0010X0.0650*%
%ADD58R,0.0010X0.0280*%
%ADD59R,0.0010X0.0240*%
%ADD60R,0.0010X0.0670*%
%ADD61R,0.0010X0.0260*%
%ADD62R,0.0010X0.0590*%
%ADD63R,0.0010X0.0690*%
%ADD64R,0.0010X0.0620*%
%ADD65R,0.0010X0.0710*%
%ADD66R,0.0010X0.0640*%
%ADD67R,0.0010X0.0720*%
%ADD68R,0.0010X0.0740*%
%ADD69R,0.0010X0.0760*%
%ADD70R,0.0010X0.0320*%
%ADD71R,0.0010X0.0770*%
%ADD72R,0.0010X0.0300*%
%ADD73R,0.0010X0.0790*%
%ADD74R,0.0010X0.0360*%
%ADD75R,0.0010X0.0340*%
%ADD76R,0.0010X0.0730*%
%ADD77R,0.0010X0.0750*%
%ADD78R,0.0010X0.0400*%
%ADD79R,0.0010X0.0780*%
%ADD80R,0.0010X0.0460*%
%ADD81R,0.0010X0.0800*%
%ADD82R,0.0010X0.0810*%
%ADD83R,0.0010X0.0820*%
%ADD84R,0.0010X0.0830*%
%ADD85R,0.0010X0.0540*%
%ADD86R,0.0010X0.0840*%
%ADD87R,0.0010X0.0560*%
%ADD88R,0.0010X0.0530*%
%ADD89R,0.0010X0.0580*%
%ADD90R,0.0010X0.0020*%
%ADD91R,0.0010X0.0610*%
%ADD92R,0.0295X0.0669*%
%ADD93C,0.0040*%
%ADD94C,0.0060*%
%ADD95C,0.0050*%
%ADD96C,0.0160*%
D10*
X000605Y000776D02*
X000605Y020264D01*
X005648Y020264D01*
X005648Y014949D01*
X012341Y014949D01*
X012341Y020264D01*
X015884Y020264D01*
X015884Y000776D01*
X000605Y000776D01*
X003090Y002312D02*
X003092Y002359D01*
X003098Y002405D01*
X003108Y002451D01*
X003121Y002496D01*
X003139Y002539D01*
X003160Y002581D01*
X003184Y002621D01*
X003212Y002658D01*
X003243Y002693D01*
X003277Y002726D01*
X003313Y002755D01*
X003352Y002781D01*
X003393Y002804D01*
X003436Y002823D01*
X003480Y002839D01*
X003525Y002851D01*
X003571Y002859D01*
X003618Y002863D01*
X003664Y002863D01*
X003711Y002859D01*
X003757Y002851D01*
X003802Y002839D01*
X003846Y002823D01*
X003889Y002804D01*
X003930Y002781D01*
X003969Y002755D01*
X004005Y002726D01*
X004039Y002693D01*
X004070Y002658D01*
X004098Y002621D01*
X004122Y002581D01*
X004143Y002539D01*
X004161Y002496D01*
X004174Y002451D01*
X004184Y002405D01*
X004190Y002359D01*
X004192Y002312D01*
X004190Y002265D01*
X004184Y002219D01*
X004174Y002173D01*
X004161Y002128D01*
X004143Y002085D01*
X004122Y002043D01*
X004098Y002003D01*
X004070Y001966D01*
X004039Y001931D01*
X004005Y001898D01*
X003969Y001869D01*
X003930Y001843D01*
X003889Y001820D01*
X003846Y001801D01*
X003802Y001785D01*
X003757Y001773D01*
X003711Y001765D01*
X003664Y001761D01*
X003618Y001761D01*
X003571Y001765D01*
X003525Y001773D01*
X003480Y001785D01*
X003436Y001801D01*
X003393Y001820D01*
X003352Y001843D01*
X003313Y001869D01*
X003277Y001898D01*
X003243Y001931D01*
X003212Y001966D01*
X003184Y002003D01*
X003160Y002043D01*
X003139Y002085D01*
X003121Y002128D01*
X003108Y002173D01*
X003098Y002219D01*
X003092Y002265D01*
X003090Y002312D01*
X013936Y002311D02*
X013938Y002358D01*
X013944Y002404D01*
X013954Y002450D01*
X013967Y002495D01*
X013985Y002538D01*
X014006Y002580D01*
X014030Y002620D01*
X014058Y002657D01*
X014089Y002692D01*
X014123Y002725D01*
X014159Y002754D01*
X014198Y002780D01*
X014239Y002803D01*
X014282Y002822D01*
X014326Y002838D01*
X014371Y002850D01*
X014417Y002858D01*
X014464Y002862D01*
X014510Y002862D01*
X014557Y002858D01*
X014603Y002850D01*
X014648Y002838D01*
X014692Y002822D01*
X014735Y002803D01*
X014776Y002780D01*
X014815Y002754D01*
X014851Y002725D01*
X014885Y002692D01*
X014916Y002657D01*
X014944Y002620D01*
X014968Y002580D01*
X014989Y002538D01*
X015007Y002495D01*
X015020Y002450D01*
X015030Y002404D01*
X015036Y002358D01*
X015038Y002311D01*
X015036Y002264D01*
X015030Y002218D01*
X015020Y002172D01*
X015007Y002127D01*
X014989Y002084D01*
X014968Y002042D01*
X014944Y002002D01*
X014916Y001965D01*
X014885Y001930D01*
X014851Y001897D01*
X014815Y001868D01*
X014776Y001842D01*
X014735Y001819D01*
X014692Y001800D01*
X014648Y001784D01*
X014603Y001772D01*
X014557Y001764D01*
X014510Y001760D01*
X014464Y001760D01*
X014417Y001764D01*
X014371Y001772D01*
X014326Y001784D01*
X014282Y001800D01*
X014239Y001819D01*
X014198Y001842D01*
X014159Y001868D01*
X014123Y001897D01*
X014089Y001930D01*
X014058Y001965D01*
X014030Y002002D01*
X014006Y002042D01*
X013985Y002084D01*
X013967Y002127D01*
X013954Y002172D01*
X013944Y002218D01*
X013938Y002264D01*
X013936Y002311D01*
X002455Y018676D02*
X002457Y018726D01*
X002463Y018776D01*
X002473Y018826D01*
X002486Y018874D01*
X002503Y018922D01*
X002524Y018968D01*
X002548Y019012D01*
X002576Y019054D01*
X002607Y019094D01*
X002641Y019131D01*
X002678Y019166D01*
X002717Y019197D01*
X002758Y019226D01*
X002802Y019251D01*
X002848Y019273D01*
X002895Y019291D01*
X002943Y019305D01*
X002992Y019316D01*
X003042Y019323D01*
X003092Y019326D01*
X003143Y019325D01*
X003193Y019320D01*
X003243Y019311D01*
X003291Y019299D01*
X003339Y019282D01*
X003385Y019262D01*
X003430Y019239D01*
X003473Y019212D01*
X003513Y019182D01*
X003551Y019149D01*
X003586Y019113D01*
X003619Y019074D01*
X003648Y019033D01*
X003674Y018990D01*
X003697Y018945D01*
X003716Y018898D01*
X003731Y018850D01*
X003743Y018801D01*
X003751Y018751D01*
X003755Y018701D01*
X003755Y018651D01*
X003751Y018601D01*
X003743Y018551D01*
X003731Y018502D01*
X003716Y018454D01*
X003697Y018407D01*
X003674Y018362D01*
X003648Y018319D01*
X003619Y018278D01*
X003586Y018239D01*
X003551Y018203D01*
X003513Y018170D01*
X003473Y018140D01*
X003430Y018113D01*
X003385Y018090D01*
X003339Y018070D01*
X003291Y018053D01*
X003243Y018041D01*
X003193Y018032D01*
X003143Y018027D01*
X003092Y018026D01*
X003042Y018029D01*
X002992Y018036D01*
X002943Y018047D01*
X002895Y018061D01*
X002848Y018079D01*
X002802Y018101D01*
X002758Y018126D01*
X002717Y018155D01*
X002678Y018186D01*
X002641Y018221D01*
X002607Y018258D01*
X002576Y018298D01*
X002548Y018340D01*
X002524Y018384D01*
X002503Y018430D01*
X002486Y018478D01*
X002473Y018526D01*
X002463Y018576D01*
X002457Y018626D01*
X002455Y018676D01*
D11*
X001915Y011381D03*
X001575Y011371D03*
X001125Y011351D03*
X001125Y010191D03*
X001135Y009711D03*
X001145Y009701D03*
X001565Y009321D03*
X001915Y009321D03*
X001915Y009721D03*
X001475Y008891D03*
X001595Y005321D03*
X001605Y005321D03*
X001635Y005311D03*
X001685Y005291D03*
X001695Y005291D03*
X001705Y005281D03*
X001715Y005281D03*
X001585Y005191D03*
X001575Y005201D03*
X001565Y005211D03*
X001555Y005221D03*
X001385Y005301D03*
X001375Y005301D03*
X001365Y005291D03*
X001355Y005291D03*
X001345Y005281D03*
X001335Y005281D03*
X001205Y004981D03*
X001215Y004971D03*
X001295Y004861D03*
X001475Y004981D03*
X001485Y004971D03*
X001325Y004571D03*
X001345Y004561D03*
X001355Y004551D03*
X001365Y004551D03*
X001385Y004541D03*
X001395Y004541D03*
X001415Y004531D03*
X001425Y004531D03*
X001465Y004521D03*
X001475Y004521D03*
X001485Y004521D03*
X001555Y004521D03*
X001845Y004661D03*
X001995Y004011D03*
X002075Y003731D03*
X001665Y003881D03*
X001585Y003811D03*
X001625Y003731D03*
X001615Y003721D03*
X001605Y003111D03*
X001645Y003101D03*
X001665Y003091D03*
X001675Y003091D03*
X001695Y003081D03*
X001715Y003071D03*
X001735Y003061D03*
X001635Y002971D03*
X001445Y003111D03*
X001435Y003111D03*
X001405Y003101D03*
X001375Y003091D03*
X001355Y003081D03*
X001345Y003081D03*
X001335Y003071D03*
X001315Y003061D03*
X001345Y002351D03*
X001355Y002351D03*
X001365Y002341D03*
X001375Y002341D03*
X001395Y002331D03*
X001405Y002331D03*
X001425Y002321D03*
X001435Y002321D03*
X001495Y002311D03*
X001505Y002311D03*
X001515Y002311D03*
X001525Y002311D03*
X001535Y002311D03*
X001545Y002311D03*
X001555Y002311D03*
X001615Y002321D03*
X001645Y002331D03*
X001655Y002331D03*
X001675Y002341D03*
X001685Y002341D03*
X001695Y002351D03*
X001705Y002351D03*
X001715Y002361D03*
X001735Y002371D03*
X001205Y002141D03*
X001075Y002281D03*
X001085Y002291D03*
X001065Y002271D03*
X001035Y002231D03*
X001005Y002191D03*
X000975Y002151D03*
X000895Y002041D03*
X000945Y001981D03*
D12*
X000905Y002041D03*
X001175Y002361D03*
X001205Y002961D03*
X001215Y002971D03*
X001595Y002971D03*
X001835Y002971D03*
X001855Y002941D03*
X001845Y002471D03*
X001835Y002461D03*
X001545Y003681D03*
X001545Y003811D03*
X001255Y004631D03*
X001205Y004681D03*
X001555Y004961D03*
X001615Y005141D03*
X001625Y005161D03*
X001675Y005281D03*
X001495Y005301D03*
X001265Y005221D03*
X001215Y005181D03*
X001205Y005171D03*
X001775Y005031D03*
X001885Y004731D03*
X001075Y007691D03*
X001075Y008521D03*
X001545Y009281D03*
D13*
X001085Y008526D03*
X001095Y008106D03*
X001085Y007686D03*
X001085Y007336D03*
X001085Y006786D03*
X001055Y006066D03*
X001435Y005276D03*
X001285Y005216D03*
X001355Y005126D03*
X001385Y005106D03*
X001565Y004976D03*
X001605Y005136D03*
X001635Y005176D03*
X001775Y004776D03*
X001915Y004796D03*
X001925Y004816D03*
X001315Y004606D03*
X001265Y004646D03*
X001605Y003926D03*
X001515Y003816D03*
X001505Y003816D03*
X001895Y003966D03*
X001895Y003646D03*
X001875Y002906D03*
X001875Y002526D03*
X001305Y002346D03*
X001175Y002526D03*
X001175Y002906D03*
X000915Y002036D03*
X001955Y007856D03*
X001955Y008346D03*
D14*
X001935Y008351D03*
X001935Y007851D03*
X001125Y008101D03*
X001105Y007691D03*
X001105Y007341D03*
X001105Y006791D03*
X001425Y005261D03*
X001305Y005211D03*
X001335Y005141D03*
X001165Y004761D03*
X001275Y004651D03*
X001875Y003981D03*
X001865Y003621D03*
X001885Y002881D03*
X001835Y002721D03*
X001955Y002711D03*
X001885Y002551D03*
X000925Y002041D03*
X001105Y008521D03*
D15*
X001125Y008521D03*
X001135Y008521D03*
X001155Y008101D03*
X001135Y007691D03*
X001125Y007691D03*
X001125Y007341D03*
X001125Y006791D03*
X001915Y006791D03*
X001915Y007341D03*
X001915Y008351D03*
X001985Y006071D03*
X001165Y005081D03*
X001095Y004921D03*
X001575Y004151D03*
X001585Y004141D03*
X001455Y003821D03*
X001845Y003611D03*
X000935Y002041D03*
D16*
X000945Y002106D03*
X000955Y002126D03*
X000965Y002136D03*
X000985Y002166D03*
X000995Y002176D03*
X001015Y002206D03*
X001025Y002216D03*
X001045Y002246D03*
X001055Y002256D03*
X001215Y002156D03*
X001195Y002126D03*
X001185Y002116D03*
X001175Y002106D03*
X001165Y002086D03*
X001155Y002076D03*
X001145Y002066D03*
X001135Y002046D03*
X001125Y002036D03*
X001115Y002026D03*
X001105Y002006D03*
X001095Y001996D03*
X001085Y001986D03*
X001335Y002356D03*
X001725Y002366D03*
X001745Y002376D03*
X001755Y002386D03*
X001765Y002396D03*
X001775Y002396D03*
X001785Y002406D03*
X001795Y002416D03*
X001625Y002976D03*
X001615Y002976D03*
X001705Y003076D03*
X001725Y003066D03*
X001745Y003056D03*
X001755Y003046D03*
X001765Y003036D03*
X001325Y003066D03*
X001305Y003056D03*
X001295Y003046D03*
X001285Y003036D03*
X001275Y003036D03*
X001265Y003026D03*
X001255Y003016D03*
X001605Y003716D03*
X001645Y003746D03*
X001575Y003806D03*
X001925Y003946D03*
X002065Y003736D03*
X001825Y004646D03*
X001855Y004676D03*
X001705Y004906D03*
X001575Y005036D03*
X001465Y004996D03*
X001455Y005006D03*
X001285Y004866D03*
X001335Y004566D03*
X001085Y004926D03*
X001465Y005316D03*
X001065Y008106D03*
X001555Y009306D03*
X001125Y009726D03*
X001925Y009736D03*
X001925Y009306D03*
X001925Y010176D03*
X001925Y011366D03*
X001495Y011356D03*
D17*
X001485Y011376D03*
X001475Y011386D03*
X001465Y011396D03*
X001155Y011386D03*
X001145Y011376D03*
X001135Y011366D03*
X001145Y010216D03*
X001135Y010206D03*
X001155Y009696D03*
X001165Y009686D03*
X001575Y009336D03*
X001585Y009346D03*
X001895Y009346D03*
X001905Y009336D03*
X001905Y009706D03*
X001915Y010196D03*
X001905Y010206D03*
X001465Y008876D03*
X001455Y008866D03*
X001445Y008856D03*
X001985Y007856D03*
X001985Y007336D03*
X001985Y006786D03*
X001585Y005326D03*
X001575Y005326D03*
X001565Y005326D03*
X001555Y005326D03*
X001545Y005326D03*
X001535Y005326D03*
X001525Y005326D03*
X001525Y005246D03*
X001535Y005236D03*
X001545Y005226D03*
X001615Y005316D03*
X001625Y005316D03*
X001665Y005146D03*
X001805Y005196D03*
X001885Y005126D03*
X001885Y005266D03*
X001395Y005306D03*
X001225Y004956D03*
X001235Y004946D03*
X001245Y004936D03*
X001235Y004836D03*
X001205Y004826D03*
X001195Y004826D03*
X001185Y004826D03*
X001375Y004546D03*
X001405Y004536D03*
X001435Y004526D03*
X001445Y004526D03*
X001455Y004526D03*
X001495Y004516D03*
X001505Y004516D03*
X001515Y004516D03*
X001525Y004516D03*
X001535Y004516D03*
X001715Y004556D03*
X001735Y004566D03*
X002005Y004026D03*
X001895Y003776D03*
X002055Y003756D03*
X002085Y003726D03*
X001655Y003746D03*
X001595Y003806D03*
X001595Y003116D03*
X001585Y003116D03*
X001575Y003116D03*
X001565Y003116D03*
X001555Y003116D03*
X001545Y003116D03*
X001535Y003116D03*
X001525Y003116D03*
X001515Y003116D03*
X001505Y003116D03*
X001495Y003116D03*
X001485Y003116D03*
X001475Y003116D03*
X001465Y003116D03*
X001455Y003116D03*
X001425Y003106D03*
X001415Y003106D03*
X001395Y003096D03*
X001385Y003096D03*
X001365Y003086D03*
X001615Y003106D03*
X001625Y003106D03*
X001635Y003106D03*
X001655Y003096D03*
X001685Y003086D03*
X001655Y002976D03*
X001645Y002976D03*
X001745Y002916D03*
X001665Y002336D03*
X001635Y002326D03*
X001625Y002326D03*
X001605Y002316D03*
X001595Y002316D03*
X001585Y002316D03*
X001575Y002316D03*
X001565Y002316D03*
X001485Y002316D03*
X001475Y002316D03*
X001465Y002316D03*
X001455Y002316D03*
X001445Y002316D03*
X001415Y002326D03*
X001385Y002336D03*
X001095Y002306D03*
X001075Y001976D03*
X001065Y001966D03*
X000955Y001966D03*
X001085Y002716D03*
D18*
X001115Y002321D03*
X001125Y002321D03*
X001105Y002311D03*
X001055Y001961D03*
X001045Y001951D03*
X001035Y001951D03*
X000985Y001951D03*
X000975Y001951D03*
X000965Y001961D03*
X001665Y002971D03*
X001675Y002971D03*
X001695Y002961D03*
X001715Y002951D03*
X001725Y002941D03*
X001735Y002931D03*
X002065Y003561D03*
X002055Y003571D03*
X002095Y003721D03*
X002045Y003771D03*
X001945Y003711D03*
X001885Y003791D03*
X001785Y003791D03*
X001675Y003881D03*
X001605Y003811D03*
X001935Y003931D03*
X001665Y004531D03*
X001655Y004531D03*
X001675Y004541D03*
X001685Y004541D03*
X001695Y004551D03*
X001705Y004551D03*
X001725Y004561D03*
X001745Y004571D03*
X001765Y004581D03*
X001775Y004651D03*
X001835Y004641D03*
X001905Y004931D03*
X001895Y005101D03*
X001845Y005131D03*
X001835Y005111D03*
X001795Y005071D03*
X001695Y005151D03*
X001685Y005151D03*
X001675Y005151D03*
X001845Y005261D03*
X001835Y005281D03*
X001895Y005291D03*
X001695Y004921D03*
X001635Y004931D03*
X001625Y004931D03*
X001615Y004931D03*
X001605Y004931D03*
X001595Y004931D03*
X001585Y004931D03*
X001575Y004931D03*
X001305Y005081D03*
X001285Y005071D03*
X001275Y005071D03*
X001265Y005071D03*
X001225Y005061D03*
X001255Y004921D03*
X001255Y004841D03*
X001245Y004841D03*
X001225Y004831D03*
X001215Y004831D03*
X001995Y006071D03*
X001985Y008351D03*
X001435Y008851D03*
X001415Y008841D03*
X001385Y008831D03*
X001595Y009351D03*
X001605Y009361D03*
X001615Y009361D03*
X001635Y009371D03*
X001805Y009381D03*
X001845Y009371D03*
X001865Y009361D03*
X001875Y009361D03*
X001885Y009351D03*
X001795Y009661D03*
X001865Y009681D03*
X001885Y009691D03*
X001895Y009701D03*
X001895Y010221D03*
X001885Y010221D03*
X001875Y010231D03*
X001855Y010241D03*
X001215Y010251D03*
X001185Y010241D03*
X001165Y010231D03*
X001155Y010221D03*
X001175Y009681D03*
X001185Y009671D03*
X001195Y009671D03*
X001225Y009661D03*
X001235Y009661D03*
X001245Y009661D03*
X001165Y011391D03*
X001175Y011401D03*
X001255Y011421D03*
X001265Y011421D03*
X001275Y011421D03*
X001285Y011421D03*
X001295Y011421D03*
X001305Y011421D03*
X001315Y011421D03*
X001325Y011421D03*
X001335Y011421D03*
X001345Y011421D03*
X001355Y011421D03*
X001365Y011421D03*
X001375Y011421D03*
X001385Y011421D03*
X001435Y011411D03*
X001455Y011401D03*
X001585Y011381D03*
X001595Y011391D03*
X001605Y011401D03*
X001615Y011401D03*
X001635Y011411D03*
X001685Y011421D03*
X001695Y011421D03*
X001705Y011421D03*
X001715Y011421D03*
X001725Y011421D03*
X001735Y011421D03*
X001745Y011421D03*
X001755Y011421D03*
X001765Y011421D03*
X001775Y011421D03*
X001785Y011421D03*
X001795Y011421D03*
X001805Y011421D03*
X001815Y011421D03*
X001895Y011401D03*
X001905Y011391D03*
D19*
X001885Y011406D03*
X001875Y011406D03*
X001865Y011416D03*
X001855Y011416D03*
X001845Y011416D03*
X001835Y011416D03*
X001825Y011416D03*
X001675Y011416D03*
X001665Y011416D03*
X001655Y011416D03*
X001645Y011416D03*
X001625Y011406D03*
X001445Y011406D03*
X001425Y011416D03*
X001415Y011416D03*
X001405Y011416D03*
X001395Y011416D03*
X001245Y011416D03*
X001235Y011416D03*
X001225Y011416D03*
X001215Y011416D03*
X001205Y011416D03*
X001195Y011406D03*
X001185Y011406D03*
X001185Y010576D03*
X001195Y010576D03*
X001205Y010576D03*
X001215Y010576D03*
X001225Y010576D03*
X001235Y010576D03*
X001245Y010576D03*
X001255Y010576D03*
X001265Y010576D03*
X001275Y010576D03*
X001285Y010576D03*
X001295Y010576D03*
X001305Y010576D03*
X001315Y010576D03*
X001325Y010576D03*
X001335Y010576D03*
X001345Y010576D03*
X001355Y010576D03*
X001365Y010576D03*
X001375Y010576D03*
X001385Y010576D03*
X001395Y010576D03*
X001405Y010576D03*
X001415Y010576D03*
X001425Y010576D03*
X001435Y010576D03*
X001445Y010576D03*
X001455Y010576D03*
X001465Y010576D03*
X001475Y010576D03*
X001485Y010576D03*
X001495Y010576D03*
X001505Y010576D03*
X001515Y010576D03*
X001525Y010576D03*
X001535Y010576D03*
X001545Y010576D03*
X001555Y010576D03*
X001565Y010576D03*
X001575Y010576D03*
X001585Y010576D03*
X001595Y010576D03*
X001605Y010576D03*
X001615Y010576D03*
X001625Y010576D03*
X001635Y010576D03*
X001645Y010576D03*
X001655Y010576D03*
X001665Y010576D03*
X001675Y010576D03*
X001685Y010576D03*
X001695Y010576D03*
X001705Y010576D03*
X001715Y010576D03*
X001725Y010576D03*
X001735Y010576D03*
X001745Y010576D03*
X001755Y010576D03*
X001765Y010576D03*
X001775Y010576D03*
X001785Y010576D03*
X001795Y010576D03*
X001805Y010576D03*
X001815Y010576D03*
X001825Y010576D03*
X001835Y010576D03*
X001845Y010576D03*
X001855Y010576D03*
X001865Y010576D03*
X001875Y010576D03*
X001885Y010576D03*
X001895Y010576D03*
X001905Y010576D03*
X001915Y010576D03*
X001925Y010576D03*
X001935Y010576D03*
X001945Y010576D03*
X001955Y010576D03*
X001965Y010576D03*
X001975Y010576D03*
X001985Y010576D03*
X001825Y010256D03*
X001815Y010256D03*
X001805Y010256D03*
X001795Y010256D03*
X001785Y010256D03*
X001775Y010256D03*
X001765Y010256D03*
X001755Y010256D03*
X001745Y010256D03*
X001735Y010256D03*
X001725Y010256D03*
X001715Y010256D03*
X001705Y010256D03*
X001695Y010256D03*
X001685Y010256D03*
X001675Y010256D03*
X001665Y010256D03*
X001655Y010256D03*
X001645Y010256D03*
X001635Y010256D03*
X001625Y010256D03*
X001615Y010256D03*
X001605Y010256D03*
X001595Y010256D03*
X001585Y010256D03*
X001575Y010256D03*
X001565Y010256D03*
X001555Y010256D03*
X001545Y010256D03*
X001535Y010256D03*
X001525Y010256D03*
X001515Y010256D03*
X001505Y010256D03*
X001495Y010256D03*
X001485Y010256D03*
X001475Y010256D03*
X001465Y010256D03*
X001455Y010256D03*
X001445Y010256D03*
X001435Y010256D03*
X001425Y010256D03*
X001415Y010256D03*
X001405Y010256D03*
X001395Y010256D03*
X001385Y010256D03*
X001375Y010256D03*
X001365Y010256D03*
X001355Y010256D03*
X001345Y010256D03*
X001335Y010256D03*
X001325Y010256D03*
X001315Y010256D03*
X001305Y010256D03*
X001295Y010256D03*
X001285Y010256D03*
X001275Y010256D03*
X001265Y010256D03*
X001255Y010256D03*
X001245Y010256D03*
X001235Y010256D03*
X001225Y010256D03*
X001205Y010246D03*
X001195Y010246D03*
X001175Y010236D03*
X001175Y010576D03*
X001165Y010576D03*
X001155Y010576D03*
X001145Y010576D03*
X001135Y010576D03*
X001125Y010576D03*
X001115Y010576D03*
X001105Y010576D03*
X001095Y010576D03*
X001085Y010576D03*
X001075Y010576D03*
X001065Y010576D03*
X001205Y009666D03*
X001215Y009666D03*
X001255Y009656D03*
X001265Y009656D03*
X001275Y009656D03*
X001285Y009656D03*
X001295Y009656D03*
X001305Y009656D03*
X001315Y009656D03*
X001325Y009656D03*
X001335Y009656D03*
X001345Y009656D03*
X001355Y009656D03*
X001365Y009656D03*
X001375Y009656D03*
X001385Y009656D03*
X001395Y009656D03*
X001405Y009656D03*
X001415Y009656D03*
X001425Y009656D03*
X001435Y009656D03*
X001445Y009656D03*
X001455Y009656D03*
X001465Y009656D03*
X001475Y009656D03*
X001485Y009656D03*
X001495Y009656D03*
X001505Y009656D03*
X001515Y009656D03*
X001525Y009656D03*
X001535Y009656D03*
X001545Y009656D03*
X001555Y009656D03*
X001565Y009656D03*
X001575Y009656D03*
X001585Y009656D03*
X001595Y009656D03*
X001605Y009656D03*
X001615Y009656D03*
X001625Y009656D03*
X001635Y009656D03*
X001645Y009656D03*
X001655Y009656D03*
X001665Y009656D03*
X001675Y009656D03*
X001685Y009656D03*
X001695Y009656D03*
X001705Y009656D03*
X001715Y009656D03*
X001725Y009656D03*
X001735Y009656D03*
X001745Y009656D03*
X001755Y009656D03*
X001765Y009656D03*
X001775Y009656D03*
X001785Y009656D03*
X001805Y009666D03*
X001815Y009666D03*
X001825Y009666D03*
X001835Y009666D03*
X001845Y009676D03*
X001855Y009676D03*
X001875Y009686D03*
X001795Y009386D03*
X001785Y009386D03*
X001775Y009386D03*
X001765Y009386D03*
X001755Y009386D03*
X001745Y009386D03*
X001735Y009386D03*
X001725Y009386D03*
X001715Y009386D03*
X001705Y009386D03*
X001695Y009386D03*
X001685Y009386D03*
X001675Y009376D03*
X001665Y009376D03*
X001655Y009376D03*
X001645Y009376D03*
X001625Y009366D03*
X001815Y009376D03*
X001825Y009376D03*
X001835Y009376D03*
X001855Y009366D03*
X001425Y008846D03*
X001405Y008836D03*
X001395Y008836D03*
X001375Y008826D03*
X001365Y008826D03*
X001355Y008826D03*
X001345Y008826D03*
X001335Y008826D03*
X001325Y008826D03*
X001315Y008826D03*
X001305Y008826D03*
X001295Y008826D03*
X001285Y008826D03*
X001275Y008826D03*
X001265Y008826D03*
X001255Y008826D03*
X001245Y008826D03*
X001235Y008826D03*
X001225Y008826D03*
X001215Y008826D03*
X001205Y008826D03*
X001195Y008826D03*
X001185Y008826D03*
X001175Y008826D03*
X001165Y008826D03*
X001155Y008826D03*
X001145Y008826D03*
X001135Y008826D03*
X001125Y008826D03*
X001115Y008826D03*
X001835Y010246D03*
X001845Y010246D03*
X001865Y010236D03*
X001055Y006786D03*
X001725Y005256D03*
X001725Y005156D03*
X001735Y005156D03*
X001715Y005156D03*
X001705Y005156D03*
X001815Y005196D03*
X001825Y005196D03*
X001835Y005196D03*
X001895Y005196D03*
X001905Y005196D03*
X001915Y005196D03*
X001875Y005136D03*
X001855Y005136D03*
X001855Y005256D03*
X001875Y005256D03*
X001895Y004936D03*
X001915Y004936D03*
X001655Y004926D03*
X001645Y004926D03*
X001585Y004716D03*
X001575Y004716D03*
X001565Y004716D03*
X001555Y004716D03*
X001605Y004706D03*
X001615Y004706D03*
X001635Y004526D03*
X001645Y004526D03*
X001625Y004516D03*
X001615Y004516D03*
X001755Y004576D03*
X001775Y004586D03*
X001385Y004666D03*
X001375Y004666D03*
X001365Y004666D03*
X001345Y004656D03*
X001335Y004656D03*
X001325Y004656D03*
X001335Y004866D03*
X001345Y004866D03*
X001295Y005076D03*
X001255Y005066D03*
X001245Y005066D03*
X001235Y005066D03*
X001215Y005056D03*
X001205Y005056D03*
X002025Y004046D03*
X002015Y004036D03*
X002025Y003796D03*
X002035Y003786D03*
X001875Y003816D03*
X001775Y003816D03*
X001665Y003736D03*
X001625Y003806D03*
X001615Y003806D03*
X001945Y003546D03*
X002075Y003556D03*
X002195Y003596D03*
X002205Y003586D03*
X002215Y003586D03*
X002225Y003586D03*
X001705Y002956D03*
X001685Y002966D03*
X001225Y002716D03*
X001155Y002326D03*
X001145Y002326D03*
X001135Y002326D03*
X001025Y001946D03*
X001015Y001946D03*
X001005Y001946D03*
X000995Y001946D03*
D20*
X001275Y002231D03*
X002085Y003551D03*
X002045Y003601D03*
X002175Y003611D03*
X002185Y003601D03*
X002235Y003581D03*
X002245Y003581D03*
X002105Y003721D03*
X002015Y003811D03*
X001685Y003881D03*
X001575Y004501D03*
X001565Y004501D03*
X001585Y004511D03*
X001595Y004511D03*
X001605Y004511D03*
X001665Y004691D03*
X001675Y004691D03*
X001685Y004691D03*
X001655Y004701D03*
X001645Y004701D03*
X001635Y004701D03*
X001625Y004701D03*
X001595Y004711D03*
X001485Y004691D03*
X001445Y004681D03*
X001435Y004681D03*
X001425Y004681D03*
X001415Y004671D03*
X001405Y004671D03*
X001395Y004671D03*
X001355Y004661D03*
X001325Y004861D03*
X001355Y004871D03*
X001365Y004871D03*
X001375Y004871D03*
X001395Y004881D03*
X001405Y004881D03*
X001665Y004931D03*
X001675Y004931D03*
X001685Y004931D03*
X001825Y005081D03*
X001905Y005071D03*
X001965Y004921D03*
X001825Y005311D03*
X001905Y005321D03*
X001735Y005241D03*
X001745Y005161D03*
X001725Y004681D03*
X001055Y007341D03*
X001055Y007691D03*
X001055Y008521D03*
D21*
X001055Y008106D03*
X001815Y005336D03*
X001915Y005346D03*
X001865Y005246D03*
X001925Y005216D03*
X001935Y005216D03*
X001935Y005176D03*
X001925Y005176D03*
X001955Y005166D03*
X001865Y005146D03*
X001795Y005176D03*
X001795Y005216D03*
X001775Y005226D03*
X001755Y005226D03*
X001745Y005236D03*
X001755Y005166D03*
X001805Y005086D03*
X001815Y005056D03*
X001915Y005006D03*
X001825Y004926D03*
X001815Y004926D03*
X001805Y004926D03*
X001795Y004926D03*
X001785Y004926D03*
X001775Y004926D03*
X001715Y004686D03*
X001705Y004686D03*
X001695Y004686D03*
X001735Y004676D03*
X001745Y004676D03*
X001755Y004676D03*
X001765Y004676D03*
X001515Y004696D03*
X001505Y004696D03*
X001495Y004696D03*
X001475Y004686D03*
X001465Y004686D03*
X001455Y004686D03*
X001435Y004886D03*
X001425Y004886D03*
X001415Y004886D03*
X001445Y004896D03*
X001455Y004896D03*
X001465Y004896D03*
X001385Y004876D03*
X002035Y004056D03*
X002075Y003896D03*
X002085Y003896D03*
X002095Y003896D03*
X002105Y003886D03*
X002005Y003826D03*
X001945Y003916D03*
X001855Y003856D03*
X001865Y003836D03*
X001765Y003846D03*
X001955Y003716D03*
X002115Y003716D03*
X002155Y003626D03*
X002165Y003616D03*
X002095Y003546D03*
X001975Y003516D03*
X001155Y002376D03*
D22*
X001205Y002406D03*
X001945Y002716D03*
X001565Y003496D03*
X001555Y003496D03*
X001635Y004106D03*
X001625Y004116D03*
X001295Y004676D03*
X001745Y004896D03*
X001695Y005746D03*
X001685Y005746D03*
X001705Y005756D03*
X001355Y005746D03*
X001335Y005756D03*
X001065Y006066D03*
X001335Y006376D03*
X001345Y006386D03*
X001695Y006386D03*
X001705Y006376D03*
X001825Y007866D03*
X001825Y008346D03*
X001835Y008346D03*
X001235Y008106D03*
X001225Y008106D03*
X001985Y009956D03*
D23*
X001485Y008911D03*
X001065Y008521D03*
X001065Y007691D03*
X001065Y007341D03*
X001065Y006791D03*
X001455Y005311D03*
X001475Y005311D03*
X001585Y005061D03*
X001445Y005021D03*
X001435Y005031D03*
X001425Y005041D03*
X001495Y004941D03*
X001275Y004871D03*
X001235Y004641D03*
X001245Y004631D03*
X001235Y005201D03*
X001245Y005211D03*
X001255Y005221D03*
X001785Y005051D03*
X001865Y004691D03*
X001565Y003811D03*
X001595Y003711D03*
X001585Y003701D03*
X001935Y003701D03*
X001955Y003561D03*
X001775Y003031D03*
X001785Y003021D03*
X001795Y003011D03*
X001805Y003001D03*
X001815Y002991D03*
X001605Y002971D03*
X001845Y002721D03*
X001325Y002351D03*
X001165Y002351D03*
X001245Y003001D03*
X001115Y011331D03*
X001565Y011351D03*
D24*
X001105Y009101D03*
X001095Y009101D03*
X001085Y009101D03*
X001075Y009101D03*
X001065Y009101D03*
X001155Y006071D03*
X001445Y002721D03*
X001455Y002721D03*
X001465Y002721D03*
D25*
X001695Y002606D03*
X001705Y002616D03*
X001725Y002626D03*
X001935Y002716D03*
X001665Y003546D03*
X001805Y003626D03*
X001755Y004026D03*
X001455Y004086D03*
X001445Y004086D03*
X001415Y003536D03*
X001405Y003536D03*
X001265Y002716D03*
X001755Y004896D03*
X001075Y006066D03*
X001725Y007866D03*
X001735Y007866D03*
X001335Y008106D03*
X001325Y008106D03*
X001725Y008336D03*
X001735Y008336D03*
X001065Y009956D03*
D26*
X001065Y011066D03*
X001105Y006066D03*
X001145Y004926D03*
X001145Y002716D03*
X001905Y002716D03*
D27*
X001865Y002506D03*
X001855Y002486D03*
X001845Y002956D03*
X001525Y003666D03*
X001535Y003676D03*
X001535Y003816D03*
X001645Y003886D03*
X001195Y004696D03*
X001315Y004816D03*
X001265Y004876D03*
X001195Y005016D03*
X001195Y005156D03*
X001365Y005116D03*
X001375Y005106D03*
X001445Y005296D03*
X001505Y005296D03*
X001925Y004976D03*
X001075Y006786D03*
X001075Y007336D03*
X001085Y008106D03*
X001965Y008346D03*
X001965Y007856D03*
X001935Y009276D03*
X001935Y010146D03*
X001935Y011336D03*
X001195Y002946D03*
X001315Y002346D03*
D28*
X001805Y002426D03*
X001815Y002436D03*
X001825Y002446D03*
X001825Y002986D03*
X001965Y003566D03*
X001915Y003956D03*
X001655Y003886D03*
X001555Y003816D03*
X001565Y003696D03*
X001575Y003696D03*
X001555Y003686D03*
X001235Y002996D03*
X001225Y002986D03*
X001225Y004656D03*
X001215Y004666D03*
X001415Y005056D03*
X001225Y005196D03*
X001485Y005306D03*
X001715Y004896D03*
X001875Y004716D03*
X001815Y004646D03*
X001805Y004636D03*
X001975Y006786D03*
X001975Y007336D03*
X001975Y007856D03*
X001975Y008346D03*
X001075Y008106D03*
X001115Y009746D03*
X001115Y010166D03*
D29*
X001075Y009956D03*
X001505Y009076D03*
X001595Y008326D03*
X001465Y008106D03*
X001455Y008106D03*
X001585Y007876D03*
X001595Y007876D03*
X001605Y007876D03*
X001955Y006066D03*
X001125Y003806D03*
X001705Y003606D03*
X001585Y002606D03*
D30*
X001335Y002721D03*
X001155Y002711D03*
X001155Y004921D03*
X001975Y009041D03*
X001945Y009961D03*
X001075Y011081D03*
D31*
X001505Y011331D03*
X001935Y009771D03*
X001965Y007341D03*
X001965Y006791D03*
X001665Y005271D03*
X001515Y005291D03*
X001275Y005221D03*
X001185Y004711D03*
X001895Y004751D03*
X001905Y004771D03*
X001905Y003961D03*
X001925Y003701D03*
X001625Y003911D03*
X001615Y003921D03*
X001525Y003811D03*
X001085Y003811D03*
X001185Y002931D03*
X001585Y002961D03*
X001865Y002921D03*
D32*
X001925Y002716D03*
X001605Y002596D03*
X001285Y002716D03*
X001125Y002716D03*
X001515Y003546D03*
X001695Y003586D03*
X001555Y004066D03*
X001545Y004066D03*
X001085Y006066D03*
X001615Y007876D03*
X001625Y007876D03*
X001435Y008106D03*
X001425Y008106D03*
X001635Y008336D03*
D33*
X001525Y007881D03*
X001085Y009961D03*
X001315Y002721D03*
X001755Y002721D03*
D34*
X001345Y002721D03*
X001925Y006071D03*
X001965Y009051D03*
X001085Y011091D03*
D35*
X001115Y008526D03*
X001135Y008106D03*
X001145Y008106D03*
X001115Y007686D03*
X001115Y007336D03*
X001115Y006786D03*
X001915Y007856D03*
X001925Y007856D03*
X001925Y008346D03*
X001925Y007336D03*
X001935Y007336D03*
X001935Y006786D03*
X001925Y006786D03*
X001595Y005126D03*
X001955Y004926D03*
X001865Y003986D03*
X001855Y003616D03*
X001465Y003816D03*
X001095Y002716D03*
D36*
X001525Y003476D03*
X001535Y003486D03*
X001835Y004006D03*
X001825Y004016D03*
X001605Y004126D03*
X001515Y004856D03*
X001655Y005226D03*
X001635Y005716D03*
X001625Y005716D03*
X001645Y005726D03*
X001655Y005726D03*
X001395Y005726D03*
X001385Y005726D03*
X001375Y005736D03*
X001385Y006406D03*
X001395Y006416D03*
X001405Y006416D03*
X001435Y006426D03*
X001635Y006416D03*
X001655Y006406D03*
X001675Y006396D03*
X001855Y007856D03*
X001865Y007856D03*
X001865Y008346D03*
X001875Y008346D03*
X001855Y008346D03*
X001205Y008106D03*
X001195Y008106D03*
X001095Y003806D03*
D37*
X001135Y002716D03*
X001915Y002716D03*
X001095Y006066D03*
X001555Y007876D03*
X001565Y007876D03*
X001495Y008106D03*
X001485Y008106D03*
X001555Y008326D03*
X001565Y008326D03*
X001965Y009956D03*
D38*
X001945Y008346D03*
X001945Y007856D03*
X001945Y007336D03*
X001945Y006786D03*
X001095Y006786D03*
X001095Y007336D03*
X001115Y008106D03*
X001295Y005216D03*
X001575Y003956D03*
X001585Y003946D03*
X001495Y003816D03*
X001485Y003816D03*
X001885Y003976D03*
X001915Y003696D03*
X001875Y003626D03*
X001165Y002886D03*
X001165Y002546D03*
X001275Y002356D03*
X001285Y002346D03*
X001295Y002346D03*
D39*
X001235Y002721D03*
X001575Y002951D03*
X001885Y003641D03*
X001595Y003941D03*
X001795Y004651D03*
X001725Y004891D03*
X001505Y004901D03*
X001345Y005131D03*
X001955Y006791D03*
X001955Y007341D03*
X001095Y007691D03*
X001105Y008101D03*
X001095Y008521D03*
D40*
X001095Y009956D03*
X001935Y006066D03*
X001145Y003806D03*
X001895Y002716D03*
D41*
X001365Y002721D03*
X001165Y003811D03*
X001125Y006071D03*
X001955Y009061D03*
X001095Y011101D03*
X001105Y011111D03*
D42*
X001795Y008346D03*
X001795Y007866D03*
X001785Y007866D03*
X001275Y008106D03*
X001265Y008106D03*
X001315Y006366D03*
X001735Y006356D03*
X001975Y006066D03*
X001725Y005776D03*
X001315Y005776D03*
X001305Y005786D03*
X001325Y005186D03*
X001105Y004926D03*
X001395Y004096D03*
X001635Y003826D03*
X001785Y004026D03*
X001815Y003616D03*
X001785Y003586D03*
X001775Y003586D03*
X001765Y003576D03*
X001585Y003506D03*
X001255Y002716D03*
X001105Y002716D03*
X001265Y002316D03*
D43*
X001625Y003526D03*
X001735Y003566D03*
X001775Y004026D03*
X001675Y004076D03*
X001415Y004096D03*
X001105Y003806D03*
X001525Y004806D03*
X001745Y005796D03*
X001295Y005796D03*
X001755Y006336D03*
X001295Y006346D03*
X001745Y007866D03*
X001755Y007866D03*
X001765Y007866D03*
X001765Y008336D03*
X001305Y008106D03*
X001295Y008106D03*
D44*
X001105Y009956D03*
X001965Y011096D03*
X001545Y004736D03*
X001355Y002716D03*
D45*
X001115Y002716D03*
X001645Y002596D03*
X001655Y002596D03*
X001665Y002596D03*
X001435Y003536D03*
X001685Y003566D03*
X001715Y003576D03*
X001475Y004086D03*
X001465Y004086D03*
X001115Y004926D03*
X001965Y006066D03*
X001775Y006306D03*
X001695Y007866D03*
X001365Y008106D03*
X001355Y008106D03*
X001685Y008336D03*
X001695Y008336D03*
X001705Y008336D03*
X001545Y011206D03*
X001525Y011206D03*
D46*
X001655Y008336D03*
X001665Y008336D03*
X001675Y008336D03*
X001395Y008106D03*
X001385Y008106D03*
X001655Y007876D03*
X001775Y005836D03*
X001265Y005846D03*
X001765Y004896D03*
X001515Y004076D03*
X001505Y004076D03*
X001495Y003546D03*
X001485Y003546D03*
X001115Y003806D03*
X001795Y002716D03*
X001625Y002596D03*
X001615Y002596D03*
X001235Y002316D03*
D47*
X001155Y003806D03*
X001115Y006066D03*
X001975Y011086D03*
D48*
X001535Y009141D03*
X001605Y008331D03*
X001615Y008331D03*
X001625Y008331D03*
X001445Y008101D03*
X001125Y004921D03*
X001535Y004771D03*
X001565Y004061D03*
X001785Y002721D03*
X001595Y002601D03*
X001225Y002311D03*
D49*
X001135Y003806D03*
X001945Y006066D03*
X001535Y008326D03*
X001525Y008326D03*
D50*
X001545Y008331D03*
X001505Y008101D03*
X001535Y007881D03*
X001545Y007881D03*
X001985Y009021D03*
X001985Y011061D03*
X001135Y004921D03*
X001305Y002721D03*
X001575Y002621D03*
X001765Y002721D03*
D51*
X001445Y003646D03*
X001175Y003806D03*
X001135Y006066D03*
X001905Y006066D03*
X001945Y011116D03*
D52*
X001435Y008456D03*
X001475Y008446D03*
X001515Y008436D03*
X001515Y008216D03*
X001515Y007996D03*
X001485Y007766D03*
X001355Y007736D03*
X001315Y007726D03*
X001185Y007696D03*
X001145Y007686D03*
X001145Y007336D03*
X001155Y007336D03*
X001165Y007336D03*
X001175Y007336D03*
X001185Y007336D03*
X001195Y007336D03*
X001205Y007336D03*
X001215Y007336D03*
X001225Y007336D03*
X001235Y007336D03*
X001245Y007336D03*
X001255Y007336D03*
X001265Y007336D03*
X001275Y007336D03*
X001285Y007336D03*
X001295Y007336D03*
X001305Y007336D03*
X001315Y007336D03*
X001325Y007336D03*
X001335Y007336D03*
X001345Y007336D03*
X001355Y007336D03*
X001365Y007336D03*
X001375Y007336D03*
X001385Y007336D03*
X001395Y007336D03*
X001405Y007336D03*
X001415Y007336D03*
X001425Y007336D03*
X001135Y007336D03*
X001135Y006786D03*
X001145Y006786D03*
X001155Y006786D03*
X001165Y006786D03*
X001175Y006786D03*
X001185Y006786D03*
X001195Y006786D03*
X001205Y006786D03*
X001215Y006786D03*
X001225Y006786D03*
X001235Y006786D03*
X001245Y006786D03*
X001255Y006786D03*
X001265Y006786D03*
X001275Y006786D03*
X001285Y006786D03*
X001295Y006786D03*
X001305Y006786D03*
X001315Y006786D03*
X001325Y006786D03*
X001335Y006786D03*
X001345Y006786D03*
X001355Y006786D03*
X001365Y006786D03*
X001375Y006786D03*
X001385Y006786D03*
X001395Y006786D03*
X001405Y006786D03*
X001415Y006786D03*
X001425Y006786D03*
X001635Y006786D03*
X001645Y006786D03*
X001655Y006786D03*
X001665Y006786D03*
X001675Y006786D03*
X001685Y006786D03*
X001695Y006786D03*
X001705Y006786D03*
X001715Y006786D03*
X001725Y006786D03*
X001735Y006786D03*
X001745Y006786D03*
X001755Y006786D03*
X001765Y006786D03*
X001775Y006786D03*
X001785Y006786D03*
X001795Y006786D03*
X001805Y006786D03*
X001815Y006786D03*
X001825Y006786D03*
X001835Y006786D03*
X001845Y006786D03*
X001855Y006786D03*
X001865Y006786D03*
X001875Y006786D03*
X001885Y006786D03*
X001895Y006786D03*
X001905Y006786D03*
X001555Y006436D03*
X001545Y006436D03*
X001535Y006436D03*
X001525Y006436D03*
X001515Y006436D03*
X001505Y006436D03*
X001495Y006436D03*
X001485Y006436D03*
X001465Y005706D03*
X001455Y005706D03*
X001585Y005706D03*
X001415Y005246D03*
X001395Y005126D03*
X001735Y004896D03*
X001175Y004756D03*
X001595Y004136D03*
X001855Y003996D03*
X001905Y003696D03*
X001835Y003606D03*
X001845Y007336D03*
X001855Y007336D03*
X001865Y007336D03*
X001875Y007336D03*
X001885Y007336D03*
X001895Y007336D03*
X001905Y007336D03*
X001835Y007336D03*
X001825Y007336D03*
X001815Y007336D03*
X001805Y007336D03*
X001795Y007336D03*
X001785Y007336D03*
X001775Y007336D03*
X001765Y007336D03*
X001755Y007336D03*
X001745Y007336D03*
X001735Y007336D03*
X001725Y007336D03*
X001715Y007336D03*
X001705Y007336D03*
X001695Y007336D03*
X001685Y007336D03*
X001675Y007336D03*
X001665Y007336D03*
X001655Y007336D03*
X001645Y007336D03*
X001635Y007336D03*
X001885Y007856D03*
X001895Y007856D03*
X001905Y007856D03*
X001905Y008346D03*
X001895Y008346D03*
X001885Y008346D03*
X001185Y008516D03*
X001145Y008526D03*
X001165Y008106D03*
X001175Y008106D03*
D53*
X001725Y005306D03*
X001735Y005306D03*
X001845Y004926D03*
X001855Y004926D03*
X001865Y004926D03*
X001875Y004926D03*
X001885Y004926D03*
X001995Y005146D03*
X002005Y005146D03*
X001975Y005156D03*
X001975Y005236D03*
X001995Y005246D03*
X002005Y005246D03*
X002225Y003906D03*
X002205Y003896D03*
X002195Y003896D03*
X002185Y003896D03*
X002165Y003886D03*
X002155Y003886D03*
X002145Y003886D03*
X002005Y003886D03*
X001995Y003886D03*
X001985Y003886D03*
X002015Y003706D03*
X002025Y003706D03*
X002035Y003706D03*
X002145Y003716D03*
X002155Y003716D03*
X002165Y003716D03*
X002175Y003716D03*
X002185Y003716D03*
X002195Y003716D03*
X002135Y003636D03*
X002115Y003536D03*
X002285Y003576D03*
X001145Y002376D03*
D54*
X001395Y003666D03*
X001185Y003806D03*
X001145Y006066D03*
D55*
X001405Y005721D03*
X001415Y005721D03*
X001425Y005711D03*
X001435Y005711D03*
X001445Y005711D03*
X001475Y005701D03*
X001485Y005701D03*
X001495Y005701D03*
X001505Y005701D03*
X001515Y005701D03*
X001525Y005701D03*
X001535Y005701D03*
X001545Y005701D03*
X001555Y005701D03*
X001565Y005701D03*
X001575Y005701D03*
X001595Y005711D03*
X001605Y005711D03*
X001615Y005711D03*
X001175Y005081D03*
X001285Y004661D03*
X001785Y004681D03*
X001435Y003821D03*
X001245Y002721D03*
X001415Y006421D03*
X001425Y006421D03*
X001445Y006431D03*
X001455Y006431D03*
X001465Y006431D03*
X001475Y006431D03*
X001565Y006431D03*
X001575Y006431D03*
X001585Y006431D03*
X001595Y006431D03*
X001605Y006421D03*
X001615Y006421D03*
X001625Y006421D03*
X001645Y006411D03*
X001395Y007741D03*
X001385Y007741D03*
X001375Y007741D03*
X001365Y007741D03*
X001345Y007731D03*
X001335Y007731D03*
X001325Y007731D03*
X001305Y007721D03*
X001295Y007721D03*
X001285Y007721D03*
X001275Y007721D03*
X001265Y007711D03*
X001255Y007711D03*
X001245Y007711D03*
X001235Y007711D03*
X001225Y007701D03*
X001215Y007701D03*
X001205Y007701D03*
X001195Y007701D03*
X001175Y007691D03*
X001165Y007691D03*
X001155Y007691D03*
X001405Y007751D03*
X001415Y007751D03*
X001425Y007751D03*
X001435Y007751D03*
X001445Y007761D03*
X001455Y007761D03*
X001465Y007761D03*
X001475Y007761D03*
X001495Y007771D03*
X001505Y007771D03*
X001515Y007771D03*
X001875Y007861D03*
X001505Y008441D03*
X001495Y008441D03*
X001485Y008441D03*
X001465Y008451D03*
X001455Y008451D03*
X001445Y008451D03*
X001425Y008461D03*
X001415Y008461D03*
X001405Y008461D03*
X001395Y008461D03*
X001385Y008471D03*
X001375Y008471D03*
X001365Y008471D03*
X001355Y008471D03*
X001345Y008481D03*
X001335Y008481D03*
X001325Y008481D03*
X001315Y008481D03*
X001305Y008491D03*
X001295Y008491D03*
X001285Y008491D03*
X001275Y008491D03*
X001265Y008501D03*
X001255Y008501D03*
X001245Y008501D03*
X001235Y008501D03*
X001225Y008511D03*
X001215Y008511D03*
X001205Y008511D03*
X001195Y008511D03*
X001175Y008521D03*
X001165Y008521D03*
X001155Y008521D03*
X001185Y008101D03*
D56*
X001165Y006066D03*
X001875Y006066D03*
D57*
X001865Y006066D03*
X001175Y006066D03*
X001225Y003806D03*
D58*
X001595Y003511D03*
X001605Y003511D03*
X001615Y003521D03*
X001745Y003571D03*
X001755Y003571D03*
X001665Y004081D03*
X001655Y004091D03*
X001815Y002721D03*
X001185Y002431D03*
X001735Y005781D03*
X001745Y006341D03*
X001305Y006351D03*
X001775Y007861D03*
X001775Y008341D03*
X001785Y008341D03*
X001285Y008101D03*
D59*
X001215Y008101D03*
X001835Y007861D03*
X001845Y007861D03*
X001845Y008341D03*
X001665Y006401D03*
X001685Y006391D03*
X001375Y006401D03*
X001365Y006401D03*
X001355Y006391D03*
X001345Y005751D03*
X001365Y005741D03*
X001665Y005731D03*
X001675Y005741D03*
X001645Y005231D03*
X001185Y005081D03*
X001615Y004121D03*
X001815Y004021D03*
X001845Y003991D03*
X001825Y003611D03*
X001545Y003491D03*
X001415Y003821D03*
X001825Y002721D03*
X001215Y002391D03*
D60*
X001235Y003806D03*
X001185Y006066D03*
X001855Y006066D03*
D61*
X001715Y005761D03*
X001325Y005771D03*
X001315Y005181D03*
X001945Y004921D03*
X001645Y004101D03*
X001795Y004021D03*
X001805Y004021D03*
X001575Y003501D03*
X001195Y002421D03*
X001325Y006371D03*
X001715Y006371D03*
X001725Y006361D03*
X001805Y007861D03*
X001815Y007861D03*
X001815Y008341D03*
X001805Y008341D03*
X001255Y008101D03*
X001245Y008101D03*
D62*
X001895Y006066D03*
X001195Y003806D03*
X001435Y002716D03*
D63*
X001245Y003806D03*
X001195Y006066D03*
X001845Y006066D03*
D64*
X001205Y003811D03*
X001475Y002721D03*
X001485Y002721D03*
X001495Y002721D03*
X001505Y002721D03*
X001515Y002721D03*
X001525Y002721D03*
X001535Y002721D03*
X001545Y002721D03*
X001555Y002721D03*
X001565Y002721D03*
D65*
X001255Y003806D03*
X001205Y006066D03*
X001835Y006066D03*
D66*
X001215Y003811D03*
D67*
X001265Y003811D03*
X001215Y006071D03*
D68*
X001225Y006071D03*
D69*
X001235Y006071D03*
X001805Y006071D03*
X001625Y007061D03*
X001615Y007061D03*
X001605Y007061D03*
X001595Y007061D03*
X001585Y007061D03*
X001575Y007061D03*
X001565Y007061D03*
X001555Y007061D03*
X001545Y007061D03*
X001535Y007061D03*
X001525Y007061D03*
X001515Y007061D03*
X001505Y007061D03*
X001495Y007061D03*
X001485Y007061D03*
X001475Y007061D03*
X001465Y007061D03*
X001455Y007061D03*
X001445Y007061D03*
X001435Y007061D03*
X001295Y003811D03*
D70*
X001425Y003541D03*
X001715Y004041D03*
X001725Y004041D03*
X001935Y004921D03*
X001765Y005821D03*
X001275Y005821D03*
X001275Y006311D03*
X001705Y007871D03*
X001715Y007871D03*
X001345Y008101D03*
X001715Y008341D03*
X001535Y011201D03*
X001805Y002721D03*
X001745Y002651D03*
X001735Y002641D03*
X001715Y002621D03*
X001685Y002601D03*
X001675Y002601D03*
X001245Y002311D03*
D71*
X001305Y003806D03*
X001245Y006066D03*
X001795Y006066D03*
D72*
X001765Y006321D03*
X001755Y005801D03*
X001285Y005811D03*
X001285Y006331D03*
X001315Y008101D03*
X001745Y008341D03*
X001755Y008341D03*
X001435Y004091D03*
X001685Y004071D03*
X001735Y004041D03*
X001745Y004041D03*
X001765Y004031D03*
X001725Y003561D03*
X001655Y003541D03*
X001645Y003531D03*
X001635Y003531D03*
X001255Y002311D03*
D73*
X001325Y003806D03*
X001255Y006066D03*
X001785Y006066D03*
D74*
X001265Y006291D03*
X001635Y007871D03*
X001645Y007871D03*
X001415Y008101D03*
X001405Y008101D03*
X001645Y008331D03*
X001495Y009051D03*
X001975Y009961D03*
X001535Y004071D03*
X001525Y004071D03*
X001505Y003551D03*
X001675Y003571D03*
D75*
X001795Y003631D03*
X001465Y003541D03*
X001455Y003541D03*
X001485Y004081D03*
X001495Y004081D03*
X001695Y004041D03*
X001705Y004041D03*
X001305Y004711D03*
X001405Y005181D03*
X001275Y002721D03*
X001635Y002591D03*
X001665Y007871D03*
X001675Y007871D03*
X001685Y007871D03*
X001375Y008101D03*
X001515Y011211D03*
X001555Y011221D03*
D76*
X001825Y006066D03*
X001275Y003806D03*
D77*
X001285Y003806D03*
X001815Y006066D03*
D78*
X001575Y007881D03*
X001475Y008101D03*
X001575Y008331D03*
X001585Y008331D03*
X001515Y009101D03*
X001525Y009121D03*
X001295Y002721D03*
X001775Y002721D03*
D79*
X001315Y003811D03*
D80*
X001325Y002721D03*
X001955Y009961D03*
D81*
X001335Y003811D03*
D82*
X001345Y003806D03*
D83*
X001355Y003811D03*
D84*
X001365Y003806D03*
X001375Y003806D03*
D85*
X001475Y003641D03*
X001385Y002721D03*
X001375Y002721D03*
D86*
X001385Y003811D03*
D87*
X001395Y002721D03*
X001405Y002721D03*
D88*
X001405Y003966D03*
X001425Y003976D03*
X001915Y006066D03*
X001945Y009066D03*
X001955Y011106D03*
D89*
X001425Y002721D03*
X001415Y002721D03*
D90*
X002105Y003541D03*
X002145Y003631D03*
X002135Y003711D03*
X002125Y003711D03*
X002055Y003701D03*
X002045Y003701D03*
X001965Y003701D03*
X001995Y003841D03*
X001985Y003861D03*
X002015Y003891D03*
X002025Y003891D03*
X002035Y003891D03*
X002045Y003891D03*
X002055Y003891D03*
X002065Y003891D03*
X002115Y003881D03*
X002125Y003881D03*
X002135Y003881D03*
X002175Y003891D03*
X002045Y004071D03*
X002255Y003581D03*
X002265Y003581D03*
X002275Y003581D03*
X001765Y004631D03*
X001835Y004921D03*
X001915Y005051D03*
X001965Y005161D03*
X001985Y005151D03*
X001945Y005171D03*
X001945Y005221D03*
X001955Y005231D03*
X001965Y005231D03*
X001985Y005241D03*
X001785Y005221D03*
X001765Y005231D03*
X001775Y005171D03*
X001785Y005171D03*
X001765Y005161D03*
X001485Y004901D03*
X001475Y004901D03*
D91*
X001885Y006066D03*
D92*
X005263Y012933D03*
X006308Y012932D03*
X005809Y014366D03*
X006854Y014365D03*
D93*
X006712Y014675D02*
X005952Y014675D01*
X005952Y014056D02*
X006712Y014056D01*
X006525Y013876D02*
X006371Y013876D01*
X006294Y013799D01*
X006601Y013492D01*
X006525Y013415D01*
X006371Y013415D01*
X006294Y013492D01*
X006294Y013799D01*
X006141Y013799D02*
X006064Y013876D01*
X005911Y013876D01*
X005834Y013799D01*
X006141Y013492D01*
X006064Y013415D01*
X005911Y013415D01*
X005834Y013492D01*
X005834Y013799D01*
X005681Y013722D02*
X005450Y013722D01*
X005374Y013646D01*
X005374Y013415D01*
X005406Y013242D02*
X006165Y013242D01*
X006141Y013492D02*
X006141Y013799D01*
X006525Y013876D02*
X006601Y013799D01*
X006601Y013492D01*
X006755Y013415D02*
X007062Y013415D01*
X006908Y013415D02*
X006908Y013876D01*
X007062Y013722D01*
X007525Y013650D02*
X007525Y013496D01*
X007602Y013420D01*
X007755Y013420D01*
X007832Y013496D01*
X007985Y013496D02*
X008062Y013420D01*
X008216Y013420D01*
X008292Y013496D01*
X008292Y013803D01*
X008216Y013880D01*
X008062Y013880D01*
X007985Y013803D01*
X007832Y013880D02*
X007832Y013650D01*
X007679Y013727D01*
X007602Y013727D01*
X007525Y013650D01*
X007525Y013880D02*
X007832Y013880D01*
X006550Y012475D02*
X006703Y012322D01*
X006550Y012475D02*
X006550Y012015D01*
X006703Y012015D02*
X006396Y012015D01*
X006243Y012092D02*
X005936Y012399D01*
X005936Y012092D01*
X006013Y012015D01*
X006166Y012015D01*
X006243Y012092D01*
X006243Y012399D01*
X006166Y012475D01*
X006013Y012475D01*
X005936Y012399D01*
X005782Y012399D02*
X005782Y012092D01*
X005475Y012399D01*
X005475Y012092D01*
X005552Y012015D01*
X005706Y012015D01*
X005782Y012092D01*
X005782Y012399D02*
X005706Y012475D01*
X005552Y012475D01*
X005475Y012399D01*
X005322Y012322D02*
X005092Y012322D01*
X005015Y012245D01*
X005015Y012015D01*
X005322Y012015D02*
X005322Y012322D01*
X005406Y012623D02*
X006165Y012623D01*
X005950Y011788D02*
X006180Y011558D01*
X005873Y011558D01*
X005950Y011788D02*
X005950Y011327D01*
X006334Y011404D02*
X006410Y011327D01*
X006564Y011327D01*
X006641Y011404D01*
X006641Y011711D01*
X006564Y011788D01*
X006410Y011788D01*
X006334Y011711D01*
X005681Y013415D02*
X005681Y013722D01*
D94*
X006989Y003366D02*
X011489Y003366D01*
X011519Y003364D01*
X011549Y003359D01*
X011578Y003350D01*
X011605Y003337D01*
X011631Y003322D01*
X011655Y003303D01*
X011676Y003282D01*
X011695Y003258D01*
X011710Y003232D01*
X011723Y003205D01*
X011732Y003176D01*
X011737Y003146D01*
X011739Y003116D01*
X011739Y001216D01*
X011737Y001186D01*
X011732Y001156D01*
X011723Y001127D01*
X011710Y001100D01*
X011695Y001074D01*
X011676Y001050D01*
X011655Y001029D01*
X011631Y001010D01*
X011605Y000995D01*
X011578Y000982D01*
X011549Y000973D01*
X011519Y000968D01*
X011489Y000966D01*
X006989Y000966D01*
X006959Y000968D01*
X006929Y000973D01*
X006900Y000982D01*
X006873Y000995D01*
X006847Y001010D01*
X006823Y001029D01*
X006802Y001050D01*
X006783Y001074D01*
X006768Y001100D01*
X006755Y001127D01*
X006746Y001156D01*
X006741Y001186D01*
X006739Y001216D01*
X006739Y003116D01*
X006741Y003146D01*
X006746Y003176D01*
X006755Y003205D01*
X006768Y003232D01*
X006783Y003258D01*
X006802Y003282D01*
X006823Y003303D01*
X006847Y003322D01*
X006873Y003337D01*
X006900Y003350D01*
X006929Y003359D01*
X006959Y003364D01*
X006989Y003366D01*
X006889Y002666D02*
X006891Y002703D01*
X006897Y002740D01*
X006907Y002776D01*
X006920Y002811D01*
X006937Y002844D01*
X006958Y002875D01*
X006982Y002903D01*
X007009Y002929D01*
X007038Y002952D01*
X007069Y002972D01*
X007103Y002988D01*
X007138Y003001D01*
X007174Y003010D01*
X007211Y003015D01*
X007248Y003016D01*
X007285Y003013D01*
X007322Y003006D01*
X007358Y002995D01*
X007392Y002981D01*
X007425Y002963D01*
X007455Y002941D01*
X007483Y002917D01*
X007508Y002889D01*
X007531Y002859D01*
X007550Y002827D01*
X007565Y002793D01*
X007577Y002758D01*
X007585Y002722D01*
X007589Y002685D01*
X007589Y002647D01*
X007585Y002610D01*
X007577Y002574D01*
X007565Y002539D01*
X007550Y002505D01*
X007531Y002473D01*
X007508Y002443D01*
X007483Y002415D01*
X007455Y002391D01*
X007425Y002369D01*
X007392Y002351D01*
X007358Y002337D01*
X007322Y002326D01*
X007285Y002319D01*
X007248Y002316D01*
X007211Y002317D01*
X007174Y002322D01*
X007138Y002331D01*
X007103Y002344D01*
X007069Y002360D01*
X007038Y002380D01*
X007009Y002403D01*
X006982Y002429D01*
X006958Y002457D01*
X006937Y002488D01*
X006920Y002521D01*
X006907Y002556D01*
X006897Y002592D01*
X006891Y002629D01*
X006889Y002666D01*
X006889Y001666D02*
X006891Y001703D01*
X006897Y001740D01*
X006907Y001776D01*
X006920Y001811D01*
X006937Y001844D01*
X006958Y001875D01*
X006982Y001903D01*
X007009Y001929D01*
X007038Y001952D01*
X007069Y001972D01*
X007103Y001988D01*
X007138Y002001D01*
X007174Y002010D01*
X007211Y002015D01*
X007248Y002016D01*
X007285Y002013D01*
X007322Y002006D01*
X007358Y001995D01*
X007392Y001981D01*
X007425Y001963D01*
X007455Y001941D01*
X007483Y001917D01*
X007508Y001889D01*
X007531Y001859D01*
X007550Y001827D01*
X007565Y001793D01*
X007577Y001758D01*
X007585Y001722D01*
X007589Y001685D01*
X007589Y001647D01*
X007585Y001610D01*
X007577Y001574D01*
X007565Y001539D01*
X007550Y001505D01*
X007531Y001473D01*
X007508Y001443D01*
X007483Y001415D01*
X007455Y001391D01*
X007425Y001369D01*
X007392Y001351D01*
X007358Y001337D01*
X007322Y001326D01*
X007285Y001319D01*
X007248Y001316D01*
X007211Y001317D01*
X007174Y001322D01*
X007138Y001331D01*
X007103Y001344D01*
X007069Y001360D01*
X007038Y001380D01*
X007009Y001403D01*
X006982Y001429D01*
X006958Y001457D01*
X006937Y001488D01*
X006920Y001521D01*
X006907Y001556D01*
X006897Y001592D01*
X006891Y001629D01*
X006889Y001666D01*
X007889Y001666D02*
X007891Y001703D01*
X007897Y001740D01*
X007907Y001776D01*
X007920Y001811D01*
X007937Y001844D01*
X007958Y001875D01*
X007982Y001903D01*
X008009Y001929D01*
X008038Y001952D01*
X008069Y001972D01*
X008103Y001988D01*
X008138Y002001D01*
X008174Y002010D01*
X008211Y002015D01*
X008248Y002016D01*
X008285Y002013D01*
X008322Y002006D01*
X008358Y001995D01*
X008392Y001981D01*
X008425Y001963D01*
X008455Y001941D01*
X008483Y001917D01*
X008508Y001889D01*
X008531Y001859D01*
X008550Y001827D01*
X008565Y001793D01*
X008577Y001758D01*
X008585Y001722D01*
X008589Y001685D01*
X008589Y001647D01*
X008585Y001610D01*
X008577Y001574D01*
X008565Y001539D01*
X008550Y001505D01*
X008531Y001473D01*
X008508Y001443D01*
X008483Y001415D01*
X008455Y001391D01*
X008425Y001369D01*
X008392Y001351D01*
X008358Y001337D01*
X008322Y001326D01*
X008285Y001319D01*
X008248Y001316D01*
X008211Y001317D01*
X008174Y001322D01*
X008138Y001331D01*
X008103Y001344D01*
X008069Y001360D01*
X008038Y001380D01*
X008009Y001403D01*
X007982Y001429D01*
X007958Y001457D01*
X007937Y001488D01*
X007920Y001521D01*
X007907Y001556D01*
X007897Y001592D01*
X007891Y001629D01*
X007889Y001666D01*
X007889Y002666D02*
X007891Y002703D01*
X007897Y002740D01*
X007907Y002776D01*
X007920Y002811D01*
X007937Y002844D01*
X007958Y002875D01*
X007982Y002903D01*
X008009Y002929D01*
X008038Y002952D01*
X008069Y002972D01*
X008103Y002988D01*
X008138Y003001D01*
X008174Y003010D01*
X008211Y003015D01*
X008248Y003016D01*
X008285Y003013D01*
X008322Y003006D01*
X008358Y002995D01*
X008392Y002981D01*
X008425Y002963D01*
X008455Y002941D01*
X008483Y002917D01*
X008508Y002889D01*
X008531Y002859D01*
X008550Y002827D01*
X008565Y002793D01*
X008577Y002758D01*
X008585Y002722D01*
X008589Y002685D01*
X008589Y002647D01*
X008585Y002610D01*
X008577Y002574D01*
X008565Y002539D01*
X008550Y002505D01*
X008531Y002473D01*
X008508Y002443D01*
X008483Y002415D01*
X008455Y002391D01*
X008425Y002369D01*
X008392Y002351D01*
X008358Y002337D01*
X008322Y002326D01*
X008285Y002319D01*
X008248Y002316D01*
X008211Y002317D01*
X008174Y002322D01*
X008138Y002331D01*
X008103Y002344D01*
X008069Y002360D01*
X008038Y002380D01*
X008009Y002403D01*
X007982Y002429D01*
X007958Y002457D01*
X007937Y002488D01*
X007920Y002521D01*
X007907Y002556D01*
X007897Y002592D01*
X007891Y002629D01*
X007889Y002666D01*
X008889Y002666D02*
X008891Y002703D01*
X008897Y002740D01*
X008907Y002776D01*
X008920Y002811D01*
X008937Y002844D01*
X008958Y002875D01*
X008982Y002903D01*
X009009Y002929D01*
X009038Y002952D01*
X009069Y002972D01*
X009103Y002988D01*
X009138Y003001D01*
X009174Y003010D01*
X009211Y003015D01*
X009248Y003016D01*
X009285Y003013D01*
X009322Y003006D01*
X009358Y002995D01*
X009392Y002981D01*
X009425Y002963D01*
X009455Y002941D01*
X009483Y002917D01*
X009508Y002889D01*
X009531Y002859D01*
X009550Y002827D01*
X009565Y002793D01*
X009577Y002758D01*
X009585Y002722D01*
X009589Y002685D01*
X009589Y002647D01*
X009585Y002610D01*
X009577Y002574D01*
X009565Y002539D01*
X009550Y002505D01*
X009531Y002473D01*
X009508Y002443D01*
X009483Y002415D01*
X009455Y002391D01*
X009425Y002369D01*
X009392Y002351D01*
X009358Y002337D01*
X009322Y002326D01*
X009285Y002319D01*
X009248Y002316D01*
X009211Y002317D01*
X009174Y002322D01*
X009138Y002331D01*
X009103Y002344D01*
X009069Y002360D01*
X009038Y002380D01*
X009009Y002403D01*
X008982Y002429D01*
X008958Y002457D01*
X008937Y002488D01*
X008920Y002521D01*
X008907Y002556D01*
X008897Y002592D01*
X008891Y002629D01*
X008889Y002666D01*
X008889Y001666D02*
X008891Y001703D01*
X008897Y001740D01*
X008907Y001776D01*
X008920Y001811D01*
X008937Y001844D01*
X008958Y001875D01*
X008982Y001903D01*
X009009Y001929D01*
X009038Y001952D01*
X009069Y001972D01*
X009103Y001988D01*
X009138Y002001D01*
X009174Y002010D01*
X009211Y002015D01*
X009248Y002016D01*
X009285Y002013D01*
X009322Y002006D01*
X009358Y001995D01*
X009392Y001981D01*
X009425Y001963D01*
X009455Y001941D01*
X009483Y001917D01*
X009508Y001889D01*
X009531Y001859D01*
X009550Y001827D01*
X009565Y001793D01*
X009577Y001758D01*
X009585Y001722D01*
X009589Y001685D01*
X009589Y001647D01*
X009585Y001610D01*
X009577Y001574D01*
X009565Y001539D01*
X009550Y001505D01*
X009531Y001473D01*
X009508Y001443D01*
X009483Y001415D01*
X009455Y001391D01*
X009425Y001369D01*
X009392Y001351D01*
X009358Y001337D01*
X009322Y001326D01*
X009285Y001319D01*
X009248Y001316D01*
X009211Y001317D01*
X009174Y001322D01*
X009138Y001331D01*
X009103Y001344D01*
X009069Y001360D01*
X009038Y001380D01*
X009009Y001403D01*
X008982Y001429D01*
X008958Y001457D01*
X008937Y001488D01*
X008920Y001521D01*
X008907Y001556D01*
X008897Y001592D01*
X008891Y001629D01*
X008889Y001666D01*
X009889Y001666D02*
X009891Y001703D01*
X009897Y001740D01*
X009907Y001776D01*
X009920Y001811D01*
X009937Y001844D01*
X009958Y001875D01*
X009982Y001903D01*
X010009Y001929D01*
X010038Y001952D01*
X010069Y001972D01*
X010103Y001988D01*
X010138Y002001D01*
X010174Y002010D01*
X010211Y002015D01*
X010248Y002016D01*
X010285Y002013D01*
X010322Y002006D01*
X010358Y001995D01*
X010392Y001981D01*
X010425Y001963D01*
X010455Y001941D01*
X010483Y001917D01*
X010508Y001889D01*
X010531Y001859D01*
X010550Y001827D01*
X010565Y001793D01*
X010577Y001758D01*
X010585Y001722D01*
X010589Y001685D01*
X010589Y001647D01*
X010585Y001610D01*
X010577Y001574D01*
X010565Y001539D01*
X010550Y001505D01*
X010531Y001473D01*
X010508Y001443D01*
X010483Y001415D01*
X010455Y001391D01*
X010425Y001369D01*
X010392Y001351D01*
X010358Y001337D01*
X010322Y001326D01*
X010285Y001319D01*
X010248Y001316D01*
X010211Y001317D01*
X010174Y001322D01*
X010138Y001331D01*
X010103Y001344D01*
X010069Y001360D01*
X010038Y001380D01*
X010009Y001403D01*
X009982Y001429D01*
X009958Y001457D01*
X009937Y001488D01*
X009920Y001521D01*
X009907Y001556D01*
X009897Y001592D01*
X009891Y001629D01*
X009889Y001666D01*
X009889Y002666D02*
X009891Y002703D01*
X009897Y002740D01*
X009907Y002776D01*
X009920Y002811D01*
X009937Y002844D01*
X009958Y002875D01*
X009982Y002903D01*
X010009Y002929D01*
X010038Y002952D01*
X010069Y002972D01*
X010103Y002988D01*
X010138Y003001D01*
X010174Y003010D01*
X010211Y003015D01*
X010248Y003016D01*
X010285Y003013D01*
X010322Y003006D01*
X010358Y002995D01*
X010392Y002981D01*
X010425Y002963D01*
X010455Y002941D01*
X010483Y002917D01*
X010508Y002889D01*
X010531Y002859D01*
X010550Y002827D01*
X010565Y002793D01*
X010577Y002758D01*
X010585Y002722D01*
X010589Y002685D01*
X010589Y002647D01*
X010585Y002610D01*
X010577Y002574D01*
X010565Y002539D01*
X010550Y002505D01*
X010531Y002473D01*
X010508Y002443D01*
X010483Y002415D01*
X010455Y002391D01*
X010425Y002369D01*
X010392Y002351D01*
X010358Y002337D01*
X010322Y002326D01*
X010285Y002319D01*
X010248Y002316D01*
X010211Y002317D01*
X010174Y002322D01*
X010138Y002331D01*
X010103Y002344D01*
X010069Y002360D01*
X010038Y002380D01*
X010009Y002403D01*
X009982Y002429D01*
X009958Y002457D01*
X009937Y002488D01*
X009920Y002521D01*
X009907Y002556D01*
X009897Y002592D01*
X009891Y002629D01*
X009889Y002666D01*
X010889Y002666D02*
X010891Y002703D01*
X010897Y002740D01*
X010907Y002776D01*
X010920Y002811D01*
X010937Y002844D01*
X010958Y002875D01*
X010982Y002903D01*
X011009Y002929D01*
X011038Y002952D01*
X011069Y002972D01*
X011103Y002988D01*
X011138Y003001D01*
X011174Y003010D01*
X011211Y003015D01*
X011248Y003016D01*
X011285Y003013D01*
X011322Y003006D01*
X011358Y002995D01*
X011392Y002981D01*
X011425Y002963D01*
X011455Y002941D01*
X011483Y002917D01*
X011508Y002889D01*
X011531Y002859D01*
X011550Y002827D01*
X011565Y002793D01*
X011577Y002758D01*
X011585Y002722D01*
X011589Y002685D01*
X011589Y002647D01*
X011585Y002610D01*
X011577Y002574D01*
X011565Y002539D01*
X011550Y002505D01*
X011531Y002473D01*
X011508Y002443D01*
X011483Y002415D01*
X011455Y002391D01*
X011425Y002369D01*
X011392Y002351D01*
X011358Y002337D01*
X011322Y002326D01*
X011285Y002319D01*
X011248Y002316D01*
X011211Y002317D01*
X011174Y002322D01*
X011138Y002331D01*
X011103Y002344D01*
X011069Y002360D01*
X011038Y002380D01*
X011009Y002403D01*
X010982Y002429D01*
X010958Y002457D01*
X010937Y002488D01*
X010920Y002521D01*
X010907Y002556D01*
X010897Y002592D01*
X010891Y002629D01*
X010889Y002666D01*
X010889Y001666D02*
X010891Y001703D01*
X010897Y001740D01*
X010907Y001776D01*
X010920Y001811D01*
X010937Y001844D01*
X010958Y001875D01*
X010982Y001903D01*
X011009Y001929D01*
X011038Y001952D01*
X011069Y001972D01*
X011103Y001988D01*
X011138Y002001D01*
X011174Y002010D01*
X011211Y002015D01*
X011248Y002016D01*
X011285Y002013D01*
X011322Y002006D01*
X011358Y001995D01*
X011392Y001981D01*
X011425Y001963D01*
X011455Y001941D01*
X011483Y001917D01*
X011508Y001889D01*
X011531Y001859D01*
X011550Y001827D01*
X011565Y001793D01*
X011577Y001758D01*
X011585Y001722D01*
X011589Y001685D01*
X011589Y001647D01*
X011585Y001610D01*
X011577Y001574D01*
X011565Y001539D01*
X011550Y001505D01*
X011531Y001473D01*
X011508Y001443D01*
X011483Y001415D01*
X011455Y001391D01*
X011425Y001369D01*
X011392Y001351D01*
X011358Y001337D01*
X011322Y001326D01*
X011285Y001319D01*
X011248Y001316D01*
X011211Y001317D01*
X011174Y001322D01*
X011138Y001331D01*
X011103Y001344D01*
X011069Y001360D01*
X011038Y001380D01*
X011009Y001403D01*
X010982Y001429D01*
X010958Y001457D01*
X010937Y001488D01*
X010920Y001521D01*
X010907Y001556D01*
X010897Y001592D01*
X010891Y001629D01*
X010889Y001666D01*
D95*
X011063Y003541D02*
X011364Y003541D01*
X011213Y003541D02*
X011213Y003991D01*
X011364Y003841D01*
X007564Y000641D02*
X007413Y000791D01*
X007413Y000341D01*
X007263Y000341D02*
X007564Y000341D01*
X007103Y000416D02*
X006803Y000716D01*
X006803Y000416D01*
X006878Y000341D01*
X007028Y000341D01*
X007103Y000416D01*
X007103Y000716D01*
X007028Y000791D01*
X006878Y000791D01*
X006803Y000716D01*
D96*
X007189Y001666D02*
X007191Y001679D01*
X007196Y001692D01*
X007205Y001703D01*
X007216Y001710D01*
X007229Y001715D01*
X007242Y001716D01*
X007256Y001713D01*
X007268Y001707D01*
X007278Y001698D01*
X007285Y001686D01*
X007289Y001673D01*
X007289Y001659D01*
X007285Y001646D01*
X007278Y001634D01*
X007268Y001625D01*
X007256Y001619D01*
X007242Y001616D01*
X007229Y001617D01*
X007216Y001622D01*
X007205Y001629D01*
X007196Y001640D01*
X007191Y001653D01*
X007189Y001666D01*
X007189Y002666D02*
X007191Y002679D01*
X007196Y002692D01*
X007205Y002703D01*
X007216Y002710D01*
X007229Y002715D01*
X007242Y002716D01*
X007256Y002713D01*
X007268Y002707D01*
X007278Y002698D01*
X007285Y002686D01*
X007289Y002673D01*
X007289Y002659D01*
X007285Y002646D01*
X007278Y002634D01*
X007268Y002625D01*
X007256Y002619D01*
X007242Y002616D01*
X007229Y002617D01*
X007216Y002622D01*
X007205Y002629D01*
X007196Y002640D01*
X007191Y002653D01*
X007189Y002666D01*
X008189Y002666D02*
X008191Y002679D01*
X008196Y002692D01*
X008205Y002703D01*
X008216Y002710D01*
X008229Y002715D01*
X008242Y002716D01*
X008256Y002713D01*
X008268Y002707D01*
X008278Y002698D01*
X008285Y002686D01*
X008289Y002673D01*
X008289Y002659D01*
X008285Y002646D01*
X008278Y002634D01*
X008268Y002625D01*
X008256Y002619D01*
X008242Y002616D01*
X008229Y002617D01*
X008216Y002622D01*
X008205Y002629D01*
X008196Y002640D01*
X008191Y002653D01*
X008189Y002666D01*
X008189Y001666D02*
X008191Y001679D01*
X008196Y001692D01*
X008205Y001703D01*
X008216Y001710D01*
X008229Y001715D01*
X008242Y001716D01*
X008256Y001713D01*
X008268Y001707D01*
X008278Y001698D01*
X008285Y001686D01*
X008289Y001673D01*
X008289Y001659D01*
X008285Y001646D01*
X008278Y001634D01*
X008268Y001625D01*
X008256Y001619D01*
X008242Y001616D01*
X008229Y001617D01*
X008216Y001622D01*
X008205Y001629D01*
X008196Y001640D01*
X008191Y001653D01*
X008189Y001666D01*
X009189Y001666D02*
X009191Y001679D01*
X009196Y001692D01*
X009205Y001703D01*
X009216Y001710D01*
X009229Y001715D01*
X009242Y001716D01*
X009256Y001713D01*
X009268Y001707D01*
X009278Y001698D01*
X009285Y001686D01*
X009289Y001673D01*
X009289Y001659D01*
X009285Y001646D01*
X009278Y001634D01*
X009268Y001625D01*
X009256Y001619D01*
X009242Y001616D01*
X009229Y001617D01*
X009216Y001622D01*
X009205Y001629D01*
X009196Y001640D01*
X009191Y001653D01*
X009189Y001666D01*
X009189Y002666D02*
X009191Y002679D01*
X009196Y002692D01*
X009205Y002703D01*
X009216Y002710D01*
X009229Y002715D01*
X009242Y002716D01*
X009256Y002713D01*
X009268Y002707D01*
X009278Y002698D01*
X009285Y002686D01*
X009289Y002673D01*
X009289Y002659D01*
X009285Y002646D01*
X009278Y002634D01*
X009268Y002625D01*
X009256Y002619D01*
X009242Y002616D01*
X009229Y002617D01*
X009216Y002622D01*
X009205Y002629D01*
X009196Y002640D01*
X009191Y002653D01*
X009189Y002666D01*
X010189Y002666D02*
X010191Y002679D01*
X010196Y002692D01*
X010205Y002703D01*
X010216Y002710D01*
X010229Y002715D01*
X010242Y002716D01*
X010256Y002713D01*
X010268Y002707D01*
X010278Y002698D01*
X010285Y002686D01*
X010289Y002673D01*
X010289Y002659D01*
X010285Y002646D01*
X010278Y002634D01*
X010268Y002625D01*
X010256Y002619D01*
X010242Y002616D01*
X010229Y002617D01*
X010216Y002622D01*
X010205Y002629D01*
X010196Y002640D01*
X010191Y002653D01*
X010189Y002666D01*
X010189Y001666D02*
X010191Y001679D01*
X010196Y001692D01*
X010205Y001703D01*
X010216Y001710D01*
X010229Y001715D01*
X010242Y001716D01*
X010256Y001713D01*
X010268Y001707D01*
X010278Y001698D01*
X010285Y001686D01*
X010289Y001673D01*
X010289Y001659D01*
X010285Y001646D01*
X010278Y001634D01*
X010268Y001625D01*
X010256Y001619D01*
X010242Y001616D01*
X010229Y001617D01*
X010216Y001622D01*
X010205Y001629D01*
X010196Y001640D01*
X010191Y001653D01*
X010189Y001666D01*
X011189Y001666D02*
X011191Y001679D01*
X011196Y001692D01*
X011205Y001703D01*
X011216Y001710D01*
X011229Y001715D01*
X011242Y001716D01*
X011256Y001713D01*
X011268Y001707D01*
X011278Y001698D01*
X011285Y001686D01*
X011289Y001673D01*
X011289Y001659D01*
X011285Y001646D01*
X011278Y001634D01*
X011268Y001625D01*
X011256Y001619D01*
X011242Y001616D01*
X011229Y001617D01*
X011216Y001622D01*
X011205Y001629D01*
X011196Y001640D01*
X011191Y001653D01*
X011189Y001666D01*
X011189Y002666D02*
X011191Y002679D01*
X011196Y002692D01*
X011205Y002703D01*
X011216Y002710D01*
X011229Y002715D01*
X011242Y002716D01*
X011256Y002713D01*
X011268Y002707D01*
X011278Y002698D01*
X011285Y002686D01*
X011289Y002673D01*
X011289Y002659D01*
X011285Y002646D01*
X011278Y002634D01*
X011268Y002625D01*
X011256Y002619D01*
X011242Y002616D01*
X011229Y002617D01*
X011216Y002622D01*
X011205Y002629D01*
X011196Y002640D01*
X011191Y002653D01*
X011189Y002666D01*
M02*
